<svg width="1728" height="1030" viewBox="0 0 1728 1030" fill="none" xmlns="http://www.w3.org/2000/svg">
<g clip-path="url(#clip0_106_4176)">
<path opacity="0.6" d="M1808.85 759.076C1795.45 752.686 1789.37 758.017 1784.49 752.686C1779.62 747.354 1797.93 733.585 1761.31 719.815C1761.31 719.815 1758.88 690.086 1708.87 689.027C1658.86 687.967 1672.33 718.755 1658.86 726.17C1645.38 733.584 1641.77 721.933 1628.37 729.348C1614.98 736.762 1621.02 751.627 1610.06 753.745C1599.1 755.863 1584.45 744.212 1571.01 751.627C1557.58 759.041 1557.54 765.467 1551.45 765.467C1545.36 765.467 1533.18 761.23 1525.83 765.467C1518.48 769.704 1510 775 1510 775H1818.51C1818.51 775 1822.29 765.467 1808.85 759.076Z" fill="#EDF9FA"/>
<path d="M1599.62 505.372C1587.3 499.536 1581.68 504.396 1577.22 499.536C1572.75 494.675 1589.54 481.978 1555.91 469.303C1555.91 469.303 1553.66 442.001 1507.7 441.025C1461.74 440.048 1474.09 468.327 1461.74 475.164C1449.38 482.001 1446.07 471.257 1433.71 478.07C1421.36 484.884 1427 498.559 1416.92 500.512C1406.84 502.466 1393.37 491.721 1381.04 498.559C1368.72 505.396 1368.72 511.233 1363.1 511.233C1357.49 511.233 1346.28 507.326 1339.57 511.233C1332.86 515.14 1325 520 1325 520H1608.58C1608.58 520 1611.95 511.233 1599.62 505.372Z" fill="#EDF9FA"/>
<path opacity="0.6" d="M1573 215.373C1587.45 207.541 1594.03 214.062 1599.27 207.541C1604.5 201.02 1584.81 183.982 1624.25 166.977C1624.25 166.977 1626.89 130.344 1680.78 129.033C1734.67 127.723 1720.19 165.666 1734.67 174.84C1749.16 184.014 1753.04 169.598 1767.53 178.74C1782.01 187.882 1775.4 206.231 1787.22 208.852C1799.03 211.473 1814.84 197.057 1829.29 206.231C1843.74 215.405 1843.74 223.237 1850.33 223.237C1856.91 223.237 1870.05 217.994 1877.91 223.237C1885.78 228.479 1895 235 1895 235H1562.49C1562.49 235 1558.54 223.237 1573 215.373Z" fill="#EDF9FA"/>
<path opacity="0.6" d="M109.53 720.356C123.374 713.657 129.719 719.239 134.738 713.657C139.756 708.075 120.894 693.663 158.734 679.252C158.734 679.252 161.272 648.145 213.071 647.028C264.871 645.912 250.912 678.135 264.986 685.899C279.061 693.663 282.695 681.484 296.597 689.249C310.498 697.013 304.153 712.591 315.517 714.621C326.88 716.651 342.051 704.472 355.895 712.439C369.739 720.406 369.739 726.851 376.084 726.851C382.429 726.851 395.004 722.436 402.618 726.851C410.232 731.266 419 737 419 737H99.4935C99.4935 737 95.6287 727.003 109.53 720.356Z" fill="#EDF9FA"/>
<path d="M-110.226 239.854C-97.3793 232.614 -91.5268 238.643 -86.8734 232.614C-82.2201 226.585 -99.7202 210.833 -64.6628 195.11C-64.6628 195.11 -62.3218 161.242 -14.4176 160.031C33.4865 158.819 20.6112 193.899 33.4865 202.381C46.3618 210.862 49.8162 197.534 62.6915 205.986C75.5668 214.438 69.6859 231.402 80.1917 233.825C90.6975 236.249 104.743 222.92 117.59 231.402C130.437 239.884 130.437 247.124 136.289 247.124C142.142 247.124 153.818 242.278 160.812 247.124C167.807 251.971 176 258 176 258H-119.561C-119.561 258 -123.073 247.124 -110.226 239.854Z" fill="#EDF9FA"/>
<path d="M1728 1026H2V1030H1728V1026Z" fill="#2E3F57"/>
<path d="M30.4816 829.656H-259.626V1029.25H30.4816V829.656Z" fill="#3AABB0" stroke="#2E3F57" stroke-linecap="round" stroke-linejoin="round"/>
<path d="M39.3566 832.235H-230.211C-230.316 832.235 -230.417 832.199 -230.497 832.133C-230.578 832.067 -230.633 831.975 -230.653 831.873C-230.674 831.771 -230.658 831.665 -230.609 831.574C-230.56 831.482 -230.481 831.41 -230.385 831.37L-155.106 798.816C-153.745 798.224 -152.275 797.917 -150.79 797.916H-46.8941C-45.5159 797.915 -44.1505 798.18 -42.8727 798.695L39.53 831.352C39.6439 831.379 39.7431 831.448 39.8067 831.546C39.8703 831.644 39.8933 831.763 39.8708 831.877C39.8483 831.992 39.7821 832.093 39.6862 832.16C39.5902 832.227 39.472 832.254 39.3566 832.235Z" fill="#2E3F57" stroke="#2E3F57" stroke-linecap="round" stroke-linejoin="round"/>
<path d="M21.8151 940.989H-42.3182V994.638H21.8151V940.989Z" fill="white" stroke="#2E3F57" stroke-linecap="round" stroke-linejoin="round"/>
<path d="M15.9911 945.869H1.88177V957.429H15.9911V945.869Z" fill="#2E3F57" stroke="#2E3F57" stroke-linecap="round" stroke-linejoin="round"/>
<path d="M15.9911 962.622H1.88177V989.758H15.9911V962.622Z" fill="#2E3F57" stroke="#2E3F57" stroke-linecap="round" stroke-linejoin="round"/>
<path d="M21.8151 838.015H-42.3182V891.665H21.8151V838.015Z" fill="white" stroke="#2E3F57" stroke-linecap="round" stroke-linejoin="round"/>
<path d="M15.9911 842.896H1.88177V854.456H15.9911V842.896Z" fill="#2E3F57" stroke="#2E3F57" stroke-linecap="round" stroke-linejoin="round"/>
<path d="M15.9911 859.648H1.88177V886.785H15.9911V859.648Z" fill="#2E3F57" stroke="#2E3F57" stroke-linecap="round" stroke-linejoin="round"/>
<path d="M4.91511 994.638H-25.4182V1003.29H4.91511V994.638Z" fill="#3AABB0" stroke="#2E3F57" stroke-linecap="round" stroke-linejoin="round"/>
<path d="M336.749 856.936H101.691V1030H336.749V856.936Z" fill="white" stroke="#2E3F57" stroke-linecap="round" stroke-linejoin="round"/>
<path d="M356.543 861.816H81.8967L102.419 869.275H336.003L356.543 861.816Z" fill="#3AABB0" stroke="#2E3F57" stroke-linecap="round" stroke-linejoin="round"/>
<path d="M356.578 861.834H81.8794L100.651 834.905C101.198 834.121 101.927 833.48 102.775 833.037C103.623 832.594 104.565 832.362 105.522 832.361H332.901C333.86 832.361 334.806 832.592 335.657 833.035C336.508 833.478 337.239 834.119 337.789 834.905L356.578 861.834Z" fill="#2E3F57" stroke="#2E3F57" stroke-linecap="round" stroke-linejoin="round"/>
<path d="M125.161 811.143H105.643V837.258H125.161V811.143Z" fill="white" stroke="#2E3F57" stroke-linecap="round" stroke-linejoin="round"/>
<path d="M125.161 811.143H120.03V837.258H125.161V811.143Z" fill="white" stroke="#2E3F57" stroke-linecap="round" stroke-linejoin="round"/>
<path d="M128.385 802.922H102.42V816.352H128.385V802.922Z" fill="white" stroke="#2E3F57" stroke-linecap="round" stroke-linejoin="round"/>
<path d="M128.385 802.922H119.406V816.352H128.385V802.922Z" fill="white" stroke="#2E3F57" stroke-linecap="round" stroke-linejoin="round"/>
<path d="M162.133 870.279H130.066V920.104H162.133V870.279Z" fill="white" stroke="#2E3F57" stroke-linecap="round" stroke-linejoin="round"/>
<path d="M158.666 873.377H133.533V917.629H158.666V873.377Z" fill="#2E3F57" stroke="white" stroke-linecap="round" stroke-linejoin="round"/>
<path d="M158.666 873.377H133.533V897.606H158.666V873.377Z" fill="#2E3F57" stroke="white" stroke-linecap="round" stroke-linejoin="round"/>
<path d="M151.733 873.377H140.466V897.606H151.733V873.377Z" fill="#2E3F57" stroke="white" stroke-linecap="round" stroke-linejoin="round"/>
<path d="M167.333 966.33H124.866V1016.15H167.333V966.33Z" fill="white" stroke="#2E3F57" stroke-linecap="round" stroke-linejoin="round"/>
<path d="M162.739 969.427H129.459V1013.68H162.739V969.427Z" fill="#2E3F57" stroke="white" stroke-linecap="round" stroke-linejoin="round"/>
<path d="M162.739 969.427H129.459V993.656H162.739V969.427Z" fill="#2E3F57" stroke="white" stroke-linecap="round" stroke-linejoin="round"/>
<path d="M153.57 969.427H138.646V993.656H153.57V969.427Z" fill="#2E3F57" stroke="white" stroke-linecap="round" stroke-linejoin="round"/>
<path d="M312.933 966.33H270.466V1016.15H312.933V966.33Z" fill="white" stroke="#2E3F57" stroke-linecap="round" stroke-linejoin="round"/>
<path d="M308.339 969.427H275.059V1013.68H308.339V969.427Z" fill="#2E3F57" stroke="white" stroke-linecap="round" stroke-linejoin="round"/>
<path d="M308.339 969.427H275.059V993.656H308.339V969.427Z" fill="#2E3F57" stroke="white" stroke-linecap="round" stroke-linejoin="round"/>
<path d="M299.17 969.427H284.246V993.656H299.17V969.427Z" fill="#2E3F57" stroke="white" stroke-linecap="round" stroke-linejoin="round"/>
<path d="M309.466 870.279H277.399V920.104H309.466V870.279Z" fill="white" stroke="#2E3F57" stroke-linecap="round" stroke-linejoin="round"/>
<path d="M305.999 873.377H280.866V917.629H305.999V873.377Z" fill="#2E3F57" stroke="white" stroke-linecap="round" stroke-linejoin="round"/>
<path d="M305.999 873.377H280.866V897.606H305.999V873.377Z" fill="#2E3F57" stroke="white" stroke-linecap="round" stroke-linejoin="round"/>
<path d="M299.066 873.377H287.799V897.606H299.066V873.377Z" fill="#2E3F57" stroke="white" stroke-linecap="round" stroke-linejoin="round"/>
<path d="M228.866 877.703H206.35V912.68H228.866V877.703Z" fill="white" stroke="#2E3F57" stroke-linecap="round" stroke-linejoin="round"/>
<path d="M226.405 879.884H208.777V910.205H226.405V879.884Z" fill="#2E3F57" stroke="white" stroke-linecap="round" stroke-linejoin="round"/>
<path d="M226.405 879.884H208.777V896.879H226.405V879.884Z" fill="#2E3F57" stroke="white" stroke-linecap="round" stroke-linejoin="round"/>
<path d="M221.551 879.884H213.647V896.879H221.551V879.884Z" fill="#2E3F57" stroke="white" stroke-linecap="round" stroke-linejoin="round"/>
<path d="M249.666 952.121H188.757V1013.56H249.666V952.121Z" fill="#3AABB0" stroke="#2E3F57" stroke-linecap="round" stroke-linejoin="round"/>
<path d="M242.733 960.774H195.69V1013.56H242.733V960.774Z" fill="#2E3F57" stroke="#2E3F57" stroke-linecap="round" stroke-linejoin="round"/>
<path d="M210.666 960.774H204.357V1013.56H210.666V960.774Z" fill="white" stroke="#2E3F57" stroke-linecap="round" stroke-linejoin="round"/>
<path d="M231.466 960.774H225.157V1013.56H231.466V960.774Z" fill="white" stroke="#2E3F57" stroke-linecap="round" stroke-linejoin="round"/>
<path d="M198.533 948.937H191.218L219.211 924.708L247.222 948.937H240.133V952.969H261.245L220.217 917.509C219.939 917.265 219.581 917.131 219.211 917.131C218.841 917.131 218.484 917.265 218.206 917.509L177.195 952.969H198.533V948.937Z" fill="#3AABB0" stroke="#2E3F57" stroke-linecap="round" stroke-linejoin="round"/>
<path d="M249.961 1013.56H188.757V1018.94H249.961V1013.56Z" fill="#3AABB0" stroke="#2E3F57" stroke-linecap="round" stroke-linejoin="round"/>
<path d="M249.961 1018.79H188.757V1024.17H249.961V1018.79Z" fill="#3AABB0" stroke="#2E3F57" stroke-linecap="round" stroke-linejoin="round"/>
<path d="M249.961 1024.01H188.757V1029.39H249.961V1024.01Z" fill="#3AABB0" stroke="#2E3F57" stroke-linecap="round" stroke-linejoin="round"/>
<path d="M195.69 960.774H189.571" stroke="#2E3F57" stroke-linecap="round" stroke-linejoin="round"/>
<path d="M249.423 960.774H243.305" stroke="#2E3F57" stroke-linecap="round" stroke-linejoin="round"/>
<path d="M42.1808 996.978C42.1808 996.978 58.4915 998.588 66.7595 1008.68C69.7291 1005.08 73.4598 1002.19 77.6828 1000.21C81.9058 998.231 86.5162 997.209 91.1821 997.22C95.0122 992.603 97.45 986.994 98.2118 981.047C98.9736 975.099 98.028 969.058 95.4851 963.627C92.9422 958.195 88.9066 953.597 83.848 950.366C78.7894 947.135 72.9159 945.406 66.911 945.378C60.9061 945.35 55.0169 947.026 49.9287 950.21C44.8406 953.395 40.7628 957.956 38.17 963.364C35.5772 968.772 34.5761 974.804 35.2831 980.758C35.99 986.712 38.3761 992.343 42.1635 996.995L42.1808 996.978Z" fill="#EDF9FA"/>
<path opacity="0.5" d="M42.1808 996.978C42.1808 996.978 58.4915 998.588 66.7595 1008.68C69.7291 1005.08 73.4598 1002.19 77.6828 1000.21C81.9058 998.231 86.5162 997.209 91.1821 997.22C95.0122 992.603 97.45 986.994 98.2118 981.047C98.9736 975.099 98.028 969.058 95.4851 963.627C92.9422 958.195 88.9066 953.597 83.848 950.366C78.7894 947.135 72.9159 945.406 66.911 945.378C60.9061 945.35 55.0169 947.026 49.9287 950.21C44.8406 953.395 40.7628 957.956 38.17 963.364C35.5772 968.772 34.5761 974.804 35.2831 980.758C35.99 986.712 38.3761 992.343 42.1635 996.995L42.1808 996.978Z" fill="#EDF9FA"/>
<path d="M66.2223 947.586L65.6676 1029.25H68.4236L66.2223 947.586Z" fill="#273832"/>
<path d="M67.0371 1005.61C67.0371 1005.61 72.5491 995.715 82.4638 992.686C82.4638 992.686 72.0638 995.161 66.7771 1003.68L67.0371 1005.61Z" fill="#273832"/>
<path d="M67.0371 977.56C67.0371 977.56 72.5491 967.661 82.4638 964.632C82.4638 964.632 72.0638 967.107 66.7771 975.639L67.0371 977.56Z" fill="#273832"/>
<path d="M67.0371 991.579C67.0371 991.579 72.5491 981.68 82.4638 978.668C82.4638 978.668 72.0638 981.143 66.7771 989.658L67.0371 991.579Z" fill="#273832"/>
<path d="M66.2222 984.708C66.2222 984.708 60.9182 974.809 51.3502 971.78C51.3502 971.78 61.4383 974.255 66.4996 982.787L66.2222 984.708Z" fill="#273832"/>
<path d="M66.2222 998.449C66.2222 998.449 60.9182 988.567 51.3502 985.538C51.3502 985.538 61.4383 988.013 66.4996 996.528L66.2222 998.449Z" fill="#273832"/>
<path d="M344.301 996.978C344.301 996.978 360.612 998.588 368.897 1008.68C371.867 1005.08 375.597 1002.19 379.82 1000.21C384.043 998.231 388.654 997.209 393.32 997.22C397.15 992.603 399.587 986.994 400.349 981.047C401.111 975.099 400.165 969.058 397.623 963.627C395.08 958.195 391.044 953.597 385.985 950.366C380.927 947.135 375.053 945.406 369.048 945.378C363.044 945.35 357.154 947.026 352.066 950.21C346.978 953.395 342.9 957.956 340.308 963.364C337.715 968.772 336.714 974.804 337.421 980.758C338.127 986.712 340.514 992.343 344.301 996.995V996.978Z" fill="#EDF9FA"/>
<path opacity="0.5" d="M344.301 996.978C344.301 996.978 360.612 998.588 368.897 1008.68C371.867 1005.08 375.597 1002.19 379.82 1000.21C384.043 998.231 388.654 997.209 393.32 997.22C397.15 992.603 399.587 986.994 400.349 981.047C401.111 975.099 400.165 969.058 397.623 963.627C395.08 958.195 391.044 953.597 385.985 950.366C380.927 947.135 375.053 945.406 369.048 945.378C363.044 945.35 357.154 947.026 352.066 950.21C346.978 953.395 342.9 957.956 340.308 963.364C337.715 968.772 336.714 974.804 337.421 980.758C338.127 986.712 340.514 992.343 344.301 996.995V996.978Z" fill="#EDF9FA"/>
<path d="M368.342 947.586L367.805 1029.25H370.544L368.342 947.586Z" fill="#273832"/>
<path d="M369.226 1005.61C369.226 1005.61 374.738 995.715 384.653 992.686C384.653 992.686 374.253 995.161 368.949 1003.68L369.226 1005.61Z" fill="#273832"/>
<path d="M369.226 977.56C369.226 977.56 374.738 967.661 384.653 964.632C384.653 964.632 374.253 967.107 368.949 975.639L369.226 977.56Z" fill="#273832"/>
<path d="M369.226 991.579C369.226 991.579 374.738 981.68 384.653 978.668C384.653 978.668 374.253 981.143 368.949 989.658L369.226 991.579Z" fill="#273832"/>
<path d="M368.36 984.708C368.36 984.708 363.038 974.809 353.47 971.78C353.47 971.78 363.576 974.255 368.62 982.787L368.36 984.708Z" fill="#273832"/>
<path d="M368.36 998.449C368.36 998.449 363.038 988.567 353.47 985.538C353.47 985.538 363.576 988.013 368.62 996.528L368.36 998.449Z" fill="#273832"/>
<path d="M-45.4736 972.87C-45.4736 972.87 -16.9776 975.691 -2.53894 993.326C-2.53894 993.326 12.7144 972.905 40.1357 973.32C46.8587 965.247 51.1448 955.433 52.4945 945.021C53.8441 934.609 52.2016 924.028 47.7585 914.512C43.3154 904.997 36.2547 896.938 27.3997 891.276C18.5446 885.614 8.25997 882.582 -2.2552 882.533C-12.7704 882.484 -23.0828 885.42 -31.9903 891C-40.8978 896.579 -48.0333 904.572 -52.565 914.046C-57.0966 923.52 -58.8377 934.085 -57.5852 944.509C-56.3328 954.933 -52.1383 964.787 -45.4909 972.922L-45.4736 972.87Z" fill="#EDF9FA"/>
<path opacity="0.3" d="M-45.4736 972.87C-45.4736 972.87 -16.9776 975.691 -2.53894 993.326C-2.53894 993.326 12.7144 972.905 40.1357 973.32C46.8587 965.247 51.1448 955.433 52.4945 945.021C53.8441 934.609 52.2016 924.028 47.7585 914.512C43.3154 904.997 36.2547 896.938 27.3997 891.276C18.5446 885.614 8.25997 882.582 -2.2552 882.533C-12.7704 882.484 -23.0828 885.42 -31.9903 891C-40.8978 896.579 -48.0333 904.572 -52.565 914.046C-57.0966 923.52 -58.8377 934.085 -57.5852 944.509C-56.3328 954.933 -52.1383 964.787 -45.4909 972.922L-45.4736 972.87Z" fill="#EDF9FA"/>
<path d="M-3.47502 886.632L-4.44568 1029.25H0.372986L-3.47502 886.632Z" fill="#273832"/>
<path d="M-2.03658 987.961C-2.03658 987.961 7.58344 970.655 24.8994 965.376C24.8994 965.376 6.61275 969.703 -2.52191 984.586L-2.03658 987.961Z" fill="#273832"/>
<path d="M-2.03658 938.967C-2.03658 938.967 7.58344 921.66 24.8994 916.468C24.8994 916.468 6.61275 920.795 -2.52191 935.679L-2.03658 938.967Z" fill="#273832"/>
<path d="M-2.03658 963.49C-2.03658 963.49 7.58344 946.184 24.8994 940.992C24.8994 940.992 6.61275 945.319 -2.52191 960.202L-2.03658 963.49Z" fill="#273832"/>
<path d="M1598.48 829.656H1308.37V1029.25H1598.48V829.656Z" fill="#3AABB0" stroke="#2E3F57" stroke-linecap="round" stroke-linejoin="round"/>
<path d="M1484.95 932.335H1444.48V1029.25H1484.95V932.335Z" fill="white" stroke="#2E3F57" stroke-linecap="round" stroke-linejoin="round"/>
<path d="M1480.62 939.258H1448.81V1029.25H1480.62V939.258Z" fill="#2E3F57" stroke="#2E3F57" stroke-linecap="round" stroke-linejoin="round"/>
<path d="M1509.44 919.234H1500.84V1029.25H1509.44V919.234Z" fill="white" stroke="#2E3F57" stroke-linecap="round" stroke-linejoin="round"/>
<path d="M1510.95 990.623H1499.34V1029.25H1510.95V990.623Z" fill="white" stroke="#2E3F57" stroke-linecap="round" stroke-linejoin="round"/>
<path d="M1607.36 832.235H1337.79C1337.68 832.235 1337.58 832.199 1337.5 832.133C1337.42 832.067 1337.37 831.975 1337.35 831.873C1337.33 831.771 1337.34 831.665 1337.39 831.574C1337.44 831.482 1337.52 831.41 1337.62 831.37L1412.89 798.816C1414.26 798.224 1415.72 797.917 1417.21 797.916H1521.11C1522.48 797.915 1523.85 798.18 1525.13 798.695L1607.53 831.352C1607.64 831.379 1607.74 831.448 1607.81 831.546C1607.87 831.644 1607.89 831.763 1607.87 831.877C1607.85 831.992 1607.78 832.093 1607.69 832.16C1607.59 832.227 1607.47 832.254 1607.36 832.235Z" fill="#2E3F57" stroke="#2E3F57" stroke-linecap="round" stroke-linejoin="round"/>
<path d="M1519.32 927.715H1364.48L1376.06 894.261H1498.82L1519.32 927.715Z" fill="#2E3F57" stroke="#2E3F57" stroke-linecap="round" stroke-linejoin="round"/>
<path d="M1430.78 829.656H1298.16V1029.25H1430.78V829.656Z" fill="white" stroke="#2E3F57" stroke-linecap="round" stroke-linejoin="round"/>
<path d="M1430.78 994.638H1298.16V1029.25H1430.78V994.638Z" fill="#3AABB0" stroke="#2E3F57" stroke-linecap="round" stroke-linejoin="round"/>
<path d="M1362.54 796.428L1290.14 829.31C1290.04 829.351 1289.96 829.424 1289.91 829.518C1289.86 829.611 1289.85 829.719 1289.87 829.823C1289.89 829.926 1289.95 830.018 1290.04 830.082C1290.12 830.147 1290.22 830.18 1290.33 830.175H1438.63C1438.74 830.18 1438.84 830.147 1438.93 830.082C1439.01 830.018 1439.07 829.926 1439.09 829.823C1439.12 829.719 1439.1 829.611 1439.05 829.518C1439 829.424 1438.92 829.351 1438.82 829.31L1366.42 796.428C1365.82 796.146 1365.15 796 1364.48 796C1363.81 796 1363.15 796.146 1362.54 796.428Z" fill="#2E3F57" stroke="#2E3F57" stroke-linecap="round" stroke-linejoin="round"/>
<path d="M1464.7 957.43C1466.62 957.43 1468.17 955.88 1468.17 953.968C1468.17 952.057 1466.62 950.507 1464.7 950.507C1462.79 950.507 1461.24 952.057 1461.24 953.968C1461.24 955.88 1462.79 957.43 1464.7 957.43Z" fill="white"/>
<path d="M1589.82 940.989H1525.68V994.638H1589.82V940.989Z" fill="white" stroke="#2E3F57" stroke-linecap="round" stroke-linejoin="round"/>
<path d="M1565.55 945.869H1549.95V957.429H1565.55V945.869Z" fill="#2E3F57" stroke="#2E3F57" stroke-linecap="round" stroke-linejoin="round"/>
<path d="M1565.55 962.622H1549.95V989.758H1565.55V962.622Z" fill="#2E3F57" stroke="#2E3F57" stroke-linecap="round" stroke-linejoin="round"/>
<path d="M1545.62 945.869H1531.51V957.429H1545.62V945.869Z" fill="#2E3F57" stroke="#2E3F57" stroke-linecap="round" stroke-linejoin="round"/>
<path d="M1583.99 945.869H1569.88V957.429H1583.99V945.869Z" fill="#2E3F57" stroke="#2E3F57" stroke-linecap="round" stroke-linejoin="round"/>
<path d="M1583.99 962.622H1569.88V989.758H1583.99V962.622Z" fill="#2E3F57" stroke="#2E3F57" stroke-linecap="round" stroke-linejoin="round"/>
<path d="M1545.62 962.622H1531.51V989.758H1545.62V962.622Z" fill="#2E3F57" stroke="#2E3F57" stroke-linecap="round" stroke-linejoin="round"/>
<path d="M1405.22 940.989H1323.75V994.638H1405.22V940.989Z" fill="white" stroke="#2E3F57" stroke-linecap="round" stroke-linejoin="round"/>
<path d="M1363.62 945.869H1348.02V957.429H1363.62V945.869Z" fill="#2E3F57" stroke="#2E3F57" stroke-linecap="round" stroke-linejoin="round"/>
<path d="M1363.62 962.622H1348.02V989.758H1363.62V962.622Z" fill="#2E3F57" stroke="#2E3F57" stroke-linecap="round" stroke-linejoin="round"/>
<path d="M1343.68 945.869H1329.57V957.429H1343.68V945.869Z" fill="#2E3F57" stroke="#2E3F57" stroke-linecap="round" stroke-linejoin="round"/>
<path d="M1382.06 945.869H1367.95V957.429H1382.06V945.869Z" fill="#2E3F57" stroke="#2E3F57" stroke-linecap="round" stroke-linejoin="round"/>
<path d="M1382.06 962.622H1367.95V989.758H1382.06V962.622Z" fill="#2E3F57" stroke="#2E3F57" stroke-linecap="round" stroke-linejoin="round"/>
<path d="M1400.26 945.869H1386.15V957.429H1400.26V945.869Z" fill="#2E3F57" stroke="#2E3F57" stroke-linecap="round" stroke-linejoin="round"/>
<path d="M1400.26 962.622H1386.15V989.758H1400.26V962.622Z" fill="#2E3F57" stroke="#2E3F57" stroke-linecap="round" stroke-linejoin="round"/>
<path d="M1343.68 962.622H1329.57V989.758H1343.68V962.622Z" fill="#2E3F57" stroke="#2E3F57" stroke-linecap="round" stroke-linejoin="round"/>
<path d="M1405.22 838.015H1323.75V891.665H1405.22V838.015Z" fill="white" stroke="#2E3F57" stroke-linecap="round" stroke-linejoin="round"/>
<path d="M1363.62 842.896H1348.02V854.456H1363.62V842.896Z" fill="#2E3F57" stroke="#2E3F57" stroke-linecap="round" stroke-linejoin="round"/>
<path d="M1363.62 859.648H1348.02V886.785H1363.62V859.648Z" fill="#2E3F57" stroke="#2E3F57" stroke-linecap="round" stroke-linejoin="round"/>
<path d="M1343.68 842.896H1329.57V854.456H1343.68V842.896Z" fill="#2E3F57" stroke="#2E3F57" stroke-linecap="round" stroke-linejoin="round"/>
<path d="M1382.06 842.896H1367.95V854.456H1382.06V842.896Z" fill="#2E3F57" stroke="#2E3F57" stroke-linecap="round" stroke-linejoin="round"/>
<path d="M1382.06 859.648H1367.95V886.785H1382.06V859.648Z" fill="#2E3F57" stroke="#2E3F57" stroke-linecap="round" stroke-linejoin="round"/>
<path d="M1400.26 842.896H1386.15V854.456H1400.26V842.896Z" fill="#2E3F57" stroke="#2E3F57" stroke-linecap="round" stroke-linejoin="round"/>
<path d="M1400.26 859.648H1386.15V886.785H1400.26V859.648Z" fill="#2E3F57" stroke="#2E3F57" stroke-linecap="round" stroke-linejoin="round"/>
<path d="M1343.68 859.648H1329.57V886.785H1343.68V859.648Z" fill="#2E3F57" stroke="#2E3F57" stroke-linecap="round" stroke-linejoin="round"/>
<path d="M1589.82 838.015H1525.68V891.665H1589.82V838.015Z" fill="white" stroke="#2E3F57" stroke-linecap="round" stroke-linejoin="round"/>
<path d="M1565.55 842.896H1549.95V854.456H1565.55V842.896Z" fill="#2E3F57" stroke="#2E3F57" stroke-linecap="round" stroke-linejoin="round"/>
<path d="M1565.55 859.648H1549.95V886.785H1565.55V859.648Z" fill="#2E3F57" stroke="#2E3F57" stroke-linecap="round" stroke-linejoin="round"/>
<path d="M1545.62 842.896H1531.51V854.456H1545.62V842.896Z" fill="#2E3F57" stroke="#2E3F57" stroke-linecap="round" stroke-linejoin="round"/>
<path d="M1583.99 842.896H1569.88V854.456H1583.99V842.896Z" fill="#2E3F57" stroke="#2E3F57" stroke-linecap="round" stroke-linejoin="round"/>
<path d="M1583.99 859.648H1569.88V886.785H1583.99V859.648Z" fill="#2E3F57" stroke="#2E3F57" stroke-linecap="round" stroke-linejoin="round"/>
<path d="M1545.62 859.648H1531.51V886.785H1545.62V859.648Z" fill="#2E3F57" stroke="#2E3F57" stroke-linecap="round" stroke-linejoin="round"/>
<path d="M1488.42 838.015H1443.35V891.665H1488.42V838.015Z" fill="white" stroke="#2E3F57" stroke-linecap="round" stroke-linejoin="round"/>
<path d="M1483.22 842.896H1467.62V854.456H1483.22V842.896Z" fill="#2E3F57" stroke="#2E3F57" stroke-linecap="round" stroke-linejoin="round"/>
<path d="M1483.22 859.648H1467.62V886.785H1483.22V859.648Z" fill="#2E3F57" stroke="#2E3F57" stroke-linecap="round" stroke-linejoin="round"/>
<path d="M1463.28 842.896H1449.17V854.456H1463.28V842.896Z" fill="#2E3F57" stroke="#2E3F57" stroke-linecap="round" stroke-linejoin="round"/>
<path d="M1463.28 859.648H1449.17V886.785H1463.28V859.648Z" fill="#2E3F57" stroke="#2E3F57" stroke-linecap="round" stroke-linejoin="round"/>
<path d="M1572.92 994.638H1542.58V1003.29H1572.92V994.638Z" fill="#3AABB0" stroke="#2E3F57" stroke-linecap="round" stroke-linejoin="round"/>
<path d="M1381.09 994.638H1350.75V1003.29H1381.09V994.638Z" fill="#3AABB0" stroke="#2E3F57" stroke-linecap="round" stroke-linejoin="round"/>
<path d="M1904.35 856.936H1669.29V1030H1904.35V856.936Z" fill="white" stroke="#2E3F57" stroke-linecap="round" stroke-linejoin="round"/>
<path d="M1924.14 861.816H1649.5L1670.02 869.275H1903.6L1924.14 861.816Z" fill="#3AABB0" stroke="#2E3F57" stroke-linecap="round" stroke-linejoin="round"/>
<path d="M1924.18 861.834H1649.48L1668.25 834.905C1668.8 834.121 1669.53 833.48 1670.37 833.037C1671.22 832.594 1672.16 832.362 1673.12 832.361H1900.5C1901.46 832.361 1902.41 832.592 1903.26 833.035C1904.11 833.478 1904.84 834.119 1905.39 834.905L1924.18 861.834Z" fill="#2E3F57" stroke="#2E3F57" stroke-linecap="round" stroke-linejoin="round"/>
<path d="M1692.76 811.143H1673.24V837.258H1692.76V811.143Z" fill="white" stroke="#2E3F57" stroke-linecap="round" stroke-linejoin="round"/>
<path d="M1692.76 811.143H1687.63V837.258H1692.76V811.143Z" fill="white" stroke="#2E3F57" stroke-linecap="round" stroke-linejoin="round"/>
<path d="M1695.98 802.922H1670.02V816.352H1695.98V802.922Z" fill="white" stroke="#2E3F57" stroke-linecap="round" stroke-linejoin="round"/>
<path d="M1695.98 802.922H1687.01V816.352H1695.98V802.922Z" fill="white" stroke="#2E3F57" stroke-linecap="round" stroke-linejoin="round"/>
<path d="M1729.73 870.279H1697.67V920.104H1729.73V870.279Z" fill="white" stroke="#2E3F57" stroke-linecap="round" stroke-linejoin="round"/>
<path d="M1726.27 873.377H1701.13V917.629H1726.27V873.377Z" fill="#2E3F57" stroke="white" stroke-linecap="round" stroke-linejoin="round"/>
<path d="M1726.27 873.377H1701.13V897.606H1726.27V873.377Z" fill="#2E3F57" stroke="white" stroke-linecap="round" stroke-linejoin="round"/>
<path d="M1719.33 873.377H1708.07V897.606H1719.33V873.377Z" fill="#2E3F57" stroke="white" stroke-linecap="round" stroke-linejoin="round"/>
<path d="M1734.93 966.33H1692.47V1016.15H1734.93V966.33Z" fill="white" stroke="#2E3F57" stroke-linecap="round" stroke-linejoin="round"/>
<path d="M1730.34 969.427H1697.06V1013.68H1730.34V969.427Z" fill="#2E3F57" stroke="white" stroke-linecap="round" stroke-linejoin="round"/>
<path d="M1730.34 969.427H1697.06V993.656H1730.34V969.427Z" fill="#2E3F57" stroke="white" stroke-linecap="round" stroke-linejoin="round"/>
<path d="M1721.17 969.427H1706.25V993.656H1721.17V969.427Z" fill="#2E3F57" stroke="white" stroke-linecap="round" stroke-linejoin="round"/>
<path d="M1610.18 996.978C1610.18 996.978 1626.49 998.588 1634.76 1008.68C1637.73 1005.08 1641.46 1002.19 1645.68 1000.21C1649.91 998.231 1654.52 997.209 1659.18 997.22C1663.01 992.603 1665.45 986.994 1666.21 981.047C1666.97 975.099 1666.03 969.058 1663.49 963.627C1660.94 958.195 1656.91 953.597 1651.85 950.366C1646.79 947.135 1640.92 945.406 1634.91 945.378C1628.91 945.35 1623.02 947.026 1617.93 950.21C1612.84 953.395 1608.76 957.956 1606.17 963.364C1603.58 968.772 1602.58 974.804 1603.28 980.758C1603.99 986.712 1606.38 992.343 1610.16 996.995L1610.18 996.978Z" fill="#EDF9FA"/>
<path opacity="0.5" d="M1610.18 996.978C1610.18 996.978 1626.49 998.588 1634.76 1008.68C1637.73 1005.08 1641.46 1002.19 1645.68 1000.21C1649.91 998.231 1654.52 997.209 1659.18 997.22C1663.01 992.603 1665.45 986.994 1666.21 981.047C1666.97 975.099 1666.03 969.058 1663.49 963.627C1660.94 958.195 1656.91 953.597 1651.85 950.366C1646.79 947.135 1640.92 945.406 1634.91 945.378C1628.91 945.35 1623.02 947.026 1617.93 950.21C1612.84 953.395 1608.76 957.956 1606.17 963.364C1603.58 968.772 1602.58 974.804 1603.28 980.758C1603.99 986.712 1606.38 992.343 1610.16 996.995L1610.18 996.978Z" fill="#EDF9FA"/>
<path d="M1634.22 947.586L1633.67 1029.25H1636.42L1634.22 947.586Z" fill="#273832"/>
<path d="M1635.04 1005.61C1635.04 1005.61 1640.55 995.715 1650.46 992.686C1650.46 992.686 1640.06 995.161 1634.78 1003.68L1635.04 1005.61Z" fill="#273832"/>
<path d="M1635.04 977.56C1635.04 977.56 1640.55 967.661 1650.46 964.632C1650.46 964.632 1640.06 967.107 1634.78 975.639L1635.04 977.56Z" fill="#273832"/>
<path d="M1635.04 991.579C1635.04 991.579 1640.55 981.68 1650.46 978.668C1650.46 978.668 1640.06 981.143 1634.78 989.658L1635.04 991.579Z" fill="#273832"/>
<path d="M1634.22 984.708C1634.22 984.708 1628.92 974.809 1619.35 971.78C1619.35 971.78 1629.44 974.255 1634.5 982.787L1634.22 984.708Z" fill="#273832"/>
<path d="M1634.22 998.449C1634.22 998.449 1628.92 988.567 1619.35 985.538C1619.35 985.538 1629.44 988.013 1634.5 996.528L1634.22 998.449Z" fill="#273832"/>
<path d="M1257.1 996.978C1257.1 996.978 1273.41 998.588 1281.7 1008.68C1284.67 1005.08 1288.4 1002.19 1292.62 1000.21C1296.84 998.231 1301.45 997.209 1306.12 997.22C1309.95 992.603 1312.39 986.994 1313.15 981.047C1313.91 975.099 1312.97 969.058 1310.42 963.627C1307.88 958.195 1303.84 953.597 1298.79 950.366C1293.73 947.135 1287.85 945.406 1281.85 945.378C1275.84 945.35 1269.95 947.026 1264.87 950.21C1259.78 953.395 1255.7 957.956 1253.11 963.364C1250.51 968.772 1249.51 974.804 1250.22 980.758C1250.93 986.712 1253.31 992.343 1257.1 996.995V996.978Z" fill="#EDF9FA"/>
<path opacity="0.5" d="M1257.1 996.978C1257.1 996.978 1273.41 998.588 1281.7 1008.68C1284.67 1005.08 1288.4 1002.19 1292.62 1000.21C1296.84 998.231 1301.45 997.209 1306.12 997.22C1309.95 992.603 1312.39 986.994 1313.15 981.047C1313.91 975.099 1312.97 969.058 1310.42 963.627C1307.88 958.195 1303.84 953.597 1298.79 950.366C1293.73 947.135 1287.85 945.406 1281.85 945.378C1275.84 945.35 1269.95 947.026 1264.87 950.21C1259.78 953.395 1255.7 957.956 1253.11 963.364C1250.51 968.772 1249.51 974.804 1250.22 980.758C1250.93 986.712 1253.31 992.343 1257.1 996.995V996.978Z" fill="#EDF9FA"/>
<path d="M1281.14 947.586L1280.61 1029.25H1283.36L1281.14 947.586Z" fill="#273832"/>
<path d="M1282.03 1005.61C1282.03 1005.61 1287.54 995.715 1297.45 992.686C1297.45 992.686 1287.05 995.161 1281.75 1003.68L1282.03 1005.61Z" fill="#273832"/>
<path d="M1282.03 977.56C1282.03 977.56 1287.54 967.661 1297.45 964.632C1297.45 964.632 1287.05 967.107 1281.75 975.639L1282.03 977.56Z" fill="#273832"/>
<path d="M1282.03 991.579C1282.03 991.579 1287.54 981.68 1297.45 978.668C1297.45 978.668 1287.05 981.143 1281.75 989.658L1282.03 991.579Z" fill="#273832"/>
<path d="M1281.16 984.708C1281.16 984.708 1275.84 974.809 1266.27 971.78C1266.27 971.78 1276.38 974.255 1281.42 982.787L1281.16 984.708Z" fill="#273832"/>
<path d="M1281.16 998.449C1281.16 998.449 1275.84 988.567 1266.27 985.538C1266.27 985.538 1276.38 988.013 1281.42 996.528L1281.16 998.449Z" fill="#273832"/>
<path d="M1522.53 972.87C1522.53 972.87 1551.02 975.691 1565.46 993.326C1565.46 993.326 1580.71 972.905 1608.14 973.32C1614.86 965.247 1619.14 955.433 1620.49 945.021C1621.84 934.609 1620.2 924.028 1615.76 914.512C1611.32 904.997 1604.25 896.938 1595.4 891.276C1586.54 885.614 1576.26 882.582 1565.74 882.533C1555.23 882.484 1544.92 885.42 1536.01 891C1527.1 896.579 1519.97 904.572 1515.44 914.046C1510.9 923.52 1509.16 934.085 1510.41 944.509C1511.67 954.933 1515.86 964.787 1522.51 972.922L1522.53 972.87Z" fill="#EDF9FA"/>
<path opacity="0.3" d="M1522.53 972.87C1522.53 972.87 1551.02 975.691 1565.46 993.326C1565.46 993.326 1580.71 972.905 1608.14 973.32C1614.86 965.247 1619.14 955.433 1620.49 945.021C1621.84 934.609 1620.2 924.028 1615.76 914.512C1611.32 904.997 1604.25 896.938 1595.4 891.276C1586.54 885.614 1576.26 882.582 1565.74 882.533C1555.23 882.484 1544.92 885.42 1536.01 891C1527.1 896.579 1519.97 904.572 1515.44 914.046C1510.9 923.52 1509.16 934.085 1510.41 944.509C1511.67 954.933 1515.86 964.787 1522.51 972.922L1522.53 972.87Z" fill="#EDF9FA"/>
<path d="M1564.53 886.632L1563.55 1029.25H1568.37L1564.53 886.632Z" fill="#273832"/>
<path d="M1565.96 987.961C1565.96 987.961 1575.58 970.655 1592.9 965.376C1592.9 965.376 1574.61 969.703 1565.48 984.586L1565.96 987.961Z" fill="#273832"/>
<path d="M1565.96 938.967C1565.96 938.967 1575.58 921.66 1592.9 916.468C1592.9 916.468 1574.61 920.795 1565.48 935.679L1565.96 938.967Z" fill="#273832"/>
<path d="M1565.96 963.49C1565.96 963.49 1575.58 946.184 1592.9 940.992C1592.9 940.992 1574.61 945.319 1565.48 960.202L1565.96 963.49Z" fill="#273832"/>
<path d="M1564.56 951.462C1564.56 951.462 1555.27 934.155 1538.56 928.964C1538.56 928.964 1556.21 933.273 1565.01 948.156L1564.56 951.462Z" fill="#273832"/>
<path d="M1564.56 975.466C1564.56 975.466 1555.27 958.16 1538.56 952.968C1538.56 952.968 1556.21 957.294 1565.01 972.178L1564.56 975.466Z" fill="#273832"/>
</g>
<defs>
<clipPath id="clip0_106_4176">
<rect width="1728" height="1030" fill="white"/>
</clipPath>
</defs>
</svg>
