<svg width="1728" height="646" viewBox="0 0 1728 646" fill="none" xmlns="http://www.w3.org/2000/svg">
<path opacity="0.6" d="M1808.85 630.076C1795.45 623.686 1789.37 629.017 1784.49 623.686C1779.62 618.354 1797.93 604.585 1761.31 590.815C1761.31 590.815 1758.88 561.086 1708.87 560.027C1658.86 558.967 1672.33 589.755 1658.86 597.17C1645.38 604.584 1641.77 592.933 1628.37 600.348C1614.98 607.762 1621.02 622.627 1610.06 624.745C1599.1 626.863 1584.45 615.212 1571.01 622.627C1557.58 630.041 1557.54 636.467 1551.45 636.467C1545.36 636.467 1533.18 632.23 1525.83 636.467C1518.48 640.704 1510 646 1510 646H1818.51C1818.51 646 1822.29 636.467 1808.85 630.076Z" fill="#EDF9FA"/>
<path d="M1599.62 376.372C1587.3 370.536 1581.68 375.396 1577.22 370.536C1572.75 365.675 1589.54 352.978 1555.91 340.303C1555.91 340.303 1553.66 313.001 1507.7 312.025C1461.74 311.048 1474.09 339.327 1461.74 346.164C1449.38 353.001 1446.07 342.257 1433.71 349.07C1421.36 355.884 1427 369.559 1416.92 371.512C1406.84 373.466 1393.37 362.721 1381.04 369.559C1368.72 376.396 1368.72 382.233 1363.1 382.233C1357.49 382.233 1346.28 378.326 1339.57 382.233C1332.86 386.14 1325 391 1325 391H1608.58C1608.58 391 1611.95 382.233 1599.62 376.372Z" fill="#EDF9FA"/>
<path opacity="0.6" d="M1573 86.373C1587.45 78.5413 1594.03 85.0624 1599.27 78.5413C1604.5 72.0203 1584.81 54.9825 1624.25 37.9766C1624.25 37.9766 1626.89 1.34374 1680.78 0.0331419C1734.67 -1.27746 1720.19 36.666 1734.67 45.8402C1749.16 55.0145 1753.04 40.5979 1767.53 49.7401C1782.01 58.8823 1775.4 77.2307 1787.22 79.8519C1799.03 82.4731 1814.84 68.0565 1829.29 77.2307C1843.74 86.4049 1843.74 94.2366 1850.33 94.2366C1856.91 94.2366 1870.05 88.9942 1877.91 94.2366C1885.78 99.479 1895 106 1895 106H1562.49C1562.49 106 1558.54 94.2366 1573 86.373Z" fill="#EDF9FA"/>
<path opacity="0.6" d="M109.53 591.356C123.374 584.657 129.719 590.239 134.738 584.657C139.756 579.075 120.894 564.663 158.734 550.252C158.734 550.252 161.272 519.145 213.071 518.028C264.871 516.912 250.912 549.135 264.986 556.899C279.061 564.663 282.695 552.484 296.597 560.249C310.498 568.013 304.153 583.591 315.517 585.621C326.88 587.651 342.051 575.472 355.895 583.439C369.739 591.406 369.739 597.851 376.084 597.851C382.429 597.851 395.004 593.436 402.618 597.851C410.232 602.266 419 608 419 608H99.4935C99.4935 608 95.6287 598.003 109.53 591.356Z" fill="#EDF9FA"/>
<path d="M-110.226 110.854C-97.3793 103.614 -91.5268 109.643 -86.8734 103.614C-82.2201 97.5848 -99.7202 81.8329 -64.6628 66.1105C-64.6628 66.1105 -62.3218 32.2423 -14.4176 31.0306C33.4865 29.819 20.6112 64.8988 33.4865 73.3806C46.3618 81.8624 49.8162 68.5339 62.6915 76.9861C75.5668 85.4384 69.6859 102.402 80.1917 104.825C90.6975 107.249 104.743 93.9202 117.59 102.402C130.437 110.884 130.437 118.124 136.289 118.124C142.142 118.124 153.818 113.278 160.812 118.124C167.807 122.971 176 129 176 129H-119.561C-119.561 129 -123.073 118.124 -110.226 110.854Z" fill="#EDF9FA"/>
</svg>
