<svg width="1728" height="235" viewBox="0 0 1728 235" fill="none" xmlns="http://www.w3.org/2000/svg">
<path d="M1728 231H2V235H1728V231Z" fill="#2E3F57"/>
<path d="M30.4816 34.6564H-259.626V234.251H30.4816V34.6564Z" fill="#3AABB0" stroke="#2E3F57" stroke-linecap="round" stroke-linejoin="round"/>
<path d="M39.3566 37.235H-230.211C-230.316 37.235 -230.417 37.199 -230.497 37.133C-230.578 37.0671 -230.633 36.9753 -230.653 36.8733C-230.674 36.7713 -230.658 36.6654 -230.609 36.5735C-230.56 36.4817 -230.481 36.4097 -230.385 36.3697L-155.106 3.81633C-153.745 3.22365 -152.275 2.9173 -150.79 2.91639H-46.8941C-45.5159 2.91529 -44.1505 3.17971 -42.8727 3.69517L39.53 36.3524C39.6439 36.3786 39.7431 36.4481 39.8067 36.546C39.8703 36.644 39.8933 36.7628 39.8708 36.8774C39.8483 36.992 39.7821 37.0933 39.6862 37.16C39.5902 37.2267 39.472 37.2536 39.3566 37.235Z" fill="#2E3F57" stroke="#2E3F57" stroke-linecap="round" stroke-linejoin="round"/>
<path d="M21.8151 145.989H-42.3182V199.638H21.8151V145.989Z" fill="white" stroke="#2E3F57" stroke-linecap="round" stroke-linejoin="round"/>
<path d="M15.9911 150.869H1.88177V162.429H15.9911V150.869Z" fill="#2E3F57" stroke="#2E3F57" stroke-linecap="round" stroke-linejoin="round"/>
<path d="M15.9911 167.622H1.88177V194.758H15.9911V167.622Z" fill="#2E3F57" stroke="#2E3F57" stroke-linecap="round" stroke-linejoin="round"/>
<path d="M21.8151 43.0154H-42.3182V96.6653H21.8151V43.0154Z" fill="white" stroke="#2E3F57" stroke-linecap="round" stroke-linejoin="round"/>
<path d="M15.9911 47.8956H1.88177V59.4563H15.9911V47.8956Z" fill="#2E3F57" stroke="#2E3F57" stroke-linecap="round" stroke-linejoin="round"/>
<path d="M15.9911 64.6483H1.88177V91.7848H15.9911V64.6483Z" fill="#2E3F57" stroke="#2E3F57" stroke-linecap="round" stroke-linejoin="round"/>
<path d="M4.91511 199.638H-25.4182V208.292H4.91511V199.638Z" fill="#3AABB0" stroke="#2E3F57" stroke-linecap="round" stroke-linejoin="round"/>
<path d="M336.749 61.9358H101.691V235H336.749V61.9358Z" fill="white" stroke="#2E3F57" stroke-linecap="round" stroke-linejoin="round"/>
<path d="M356.543 66.8163H81.8967L102.419 74.2753H336.003L356.543 66.8163Z" fill="#3AABB0" stroke="#2E3F57" stroke-linecap="round" stroke-linejoin="round"/>
<path d="M356.578 66.8337H81.8794L100.651 39.9049C101.198 39.1207 101.927 38.48 102.775 38.0371C103.623 37.5942 104.565 37.3622 105.522 37.3608H332.901C333.86 37.3609 334.806 37.5922 335.657 38.0351C336.508 38.478 337.239 39.1194 337.789 39.9049L356.578 66.8337Z" fill="#2E3F57" stroke="#2E3F57" stroke-linecap="round" stroke-linejoin="round"/>
<path d="M125.161 16.1431H105.643V42.2584H125.161V16.1431Z" fill="white" stroke="#2E3F57" stroke-linecap="round" stroke-linejoin="round"/>
<path d="M125.161 16.1431H120.03V42.2584H125.161V16.1431Z" fill="white" stroke="#2E3F57" stroke-linecap="round" stroke-linejoin="round"/>
<path d="M128.385 7.92249H102.42V21.3523H128.385V7.92249Z" fill="white" stroke="#2E3F57" stroke-linecap="round" stroke-linejoin="round"/>
<path d="M128.385 7.92249H119.406V21.3523H128.385V7.92249Z" fill="white" stroke="#2E3F57" stroke-linecap="round" stroke-linejoin="round"/>
<path d="M162.133 75.2792H130.066V125.104H162.133V75.2792Z" fill="white" stroke="#2E3F57" stroke-linecap="round" stroke-linejoin="round"/>
<path d="M158.666 78.3768H133.533V122.629H158.666V78.3768Z" fill="#2E3F57" stroke="white" stroke-linecap="round" stroke-linejoin="round"/>
<path d="M158.666 78.3768H133.533V102.606H158.666V78.3768Z" fill="#2E3F57" stroke="white" stroke-linecap="round" stroke-linejoin="round"/>
<path d="M151.733 78.3768H140.466V102.606H151.733V78.3768Z" fill="#2E3F57" stroke="white" stroke-linecap="round" stroke-linejoin="round"/>
<path d="M167.333 171.33H124.866V221.155H167.333V171.33Z" fill="white" stroke="#2E3F57" stroke-linecap="round" stroke-linejoin="round"/>
<path d="M162.739 174.427H129.459V218.68H162.739V174.427Z" fill="#2E3F57" stroke="white" stroke-linecap="round" stroke-linejoin="round"/>
<path d="M162.739 174.427H129.459V198.656H162.739V174.427Z" fill="#2E3F57" stroke="white" stroke-linecap="round" stroke-linejoin="round"/>
<path d="M153.57 174.427H138.646V198.656H153.57V174.427Z" fill="#2E3F57" stroke="white" stroke-linecap="round" stroke-linejoin="round"/>
<path d="M312.933 171.33H270.466V221.155H312.933V171.33Z" fill="white" stroke="#2E3F57" stroke-linecap="round" stroke-linejoin="round"/>
<path d="M308.339 174.427H275.059V218.68H308.339V174.427Z" fill="#2E3F57" stroke="white" stroke-linecap="round" stroke-linejoin="round"/>
<path d="M308.339 174.427H275.059V198.656H308.339V174.427Z" fill="#2E3F57" stroke="white" stroke-linecap="round" stroke-linejoin="round"/>
<path d="M299.17 174.427H284.246V198.656H299.17V174.427Z" fill="#2E3F57" stroke="white" stroke-linecap="round" stroke-linejoin="round"/>
<path d="M309.466 75.2792H277.399V125.104H309.466V75.2792Z" fill="white" stroke="#2E3F57" stroke-linecap="round" stroke-linejoin="round"/>
<path d="M305.999 78.3768H280.866V122.629H305.999V78.3768Z" fill="#2E3F57" stroke="white" stroke-linecap="round" stroke-linejoin="round"/>
<path d="M305.999 78.3768H280.866V102.606H305.999V78.3768Z" fill="#2E3F57" stroke="white" stroke-linecap="round" stroke-linejoin="round"/>
<path d="M299.066 78.3768H287.799V102.606H299.066V78.3768Z" fill="#2E3F57" stroke="white" stroke-linecap="round" stroke-linejoin="round"/>
<path d="M228.866 82.7034H206.35V117.68H228.866V82.7034Z" fill="white" stroke="#2E3F57" stroke-linecap="round" stroke-linejoin="round"/>
<path d="M226.405 84.884H208.777V115.205H226.405V84.884Z" fill="#2E3F57" stroke="white" stroke-linecap="round" stroke-linejoin="round"/>
<path d="M226.405 84.884H208.777V101.879H226.405V84.884Z" fill="#2E3F57" stroke="white" stroke-linecap="round" stroke-linejoin="round"/>
<path d="M221.551 84.884H213.647V101.879H221.551V84.884Z" fill="#2E3F57" stroke="white" stroke-linecap="round" stroke-linejoin="round"/>
<path d="M249.666 157.121H188.757V218.559H249.666V157.121Z" fill="#3AABB0" stroke="#2E3F57" stroke-linecap="round" stroke-linejoin="round"/>
<path d="M242.733 165.774H195.69V218.559H242.733V165.774Z" fill="#2E3F57" stroke="#2E3F57" stroke-linecap="round" stroke-linejoin="round"/>
<path d="M210.666 165.774H204.357V218.559H210.666V165.774Z" fill="white" stroke="#2E3F57" stroke-linecap="round" stroke-linejoin="round"/>
<path d="M231.466 165.774H225.157V218.559H231.466V165.774Z" fill="white" stroke="#2E3F57" stroke-linecap="round" stroke-linejoin="round"/>
<path d="M198.533 153.937H191.218L219.211 129.708L247.222 153.937H240.133V157.969H261.245L220.217 122.509C219.939 122.265 219.581 122.131 219.211 122.131C218.841 122.131 218.484 122.265 218.206 122.509L177.195 157.969H198.533V153.937Z" fill="#3AABB0" stroke="#2E3F57" stroke-linecap="round" stroke-linejoin="round"/>
<path d="M249.961 218.559H188.757V223.941H249.961V218.559Z" fill="#3AABB0" stroke="#2E3F57" stroke-linecap="round" stroke-linejoin="round"/>
<path d="M249.961 223.785H188.757V229.168H249.961V223.785Z" fill="#3AABB0" stroke="#2E3F57" stroke-linecap="round" stroke-linejoin="round"/>
<path d="M249.961 229.012H188.757V234.394H249.961V229.012Z" fill="#3AABB0" stroke="#2E3F57" stroke-linecap="round" stroke-linejoin="round"/>
<path d="M195.69 165.774H189.571" stroke="#2E3F57" stroke-linecap="round" stroke-linejoin="round"/>
<path d="M249.423 165.774H243.305" stroke="#2E3F57" stroke-linecap="round" stroke-linejoin="round"/>
<path d="M42.1808 201.978C42.1808 201.978 58.4915 203.588 66.7595 213.677C69.7291 210.084 73.4598 207.193 77.6828 205.212C81.9058 203.231 86.5162 202.209 91.1821 202.22C95.0122 197.603 97.45 191.994 98.2118 186.047C98.9736 180.099 98.028 174.058 95.4851 168.627C92.9422 163.195 88.9066 158.597 83.848 155.366C78.7894 152.135 72.9159 150.406 66.911 150.378C60.9061 150.35 55.0169 152.026 49.9287 155.21C44.8406 158.395 40.7628 162.956 38.17 168.364C35.5772 173.772 34.5761 179.804 35.2831 185.758C35.99 191.712 38.3761 197.343 42.1635 201.995L42.1808 201.978Z" fill="#EDF9FA"/>
<path opacity="0.5" d="M42.1808 201.978C42.1808 201.978 58.4915 203.588 66.7595 213.677C69.7291 210.084 73.4598 207.193 77.6828 205.212C81.9058 203.231 86.5162 202.209 91.1821 202.22C95.0122 197.603 97.45 191.994 98.2118 186.047C98.9736 180.099 98.028 174.058 95.4851 168.627C92.9422 163.195 88.9066 158.597 83.848 155.366C78.7894 152.135 72.9159 150.406 66.911 150.378C60.9061 150.35 55.0169 152.026 49.9287 155.21C44.8406 158.395 40.7628 162.956 38.17 168.364C35.5772 173.772 34.5761 179.804 35.2831 185.758C35.99 191.712 38.3761 197.343 42.1635 201.995L42.1808 201.978Z" fill="#EDF9FA"/>
<path d="M66.2223 152.586L65.6676 234.255H68.4236L66.2223 152.586Z" fill="#273832"/>
<path d="M67.0371 210.614C67.0371 210.614 72.5491 200.715 82.4638 197.686C82.4638 197.686 72.0638 200.161 66.7771 208.675L67.0371 210.614Z" fill="#273832"/>
<path d="M67.0371 182.56C67.0371 182.56 72.5491 172.661 82.4638 169.632C82.4638 169.632 72.0638 172.107 66.7771 180.639L67.0371 182.56Z" fill="#273832"/>
<path d="M67.0371 196.579C67.0371 196.579 72.5491 186.68 82.4638 183.668C82.4638 183.668 72.0638 186.143 66.7771 194.658L67.0371 196.579Z" fill="#273832"/>
<path d="M66.2222 189.708C66.2222 189.708 60.9182 179.809 51.3502 176.78C51.3502 176.78 61.4383 179.255 66.4996 187.787L66.2222 189.708Z" fill="#273832"/>
<path d="M66.2222 203.449C66.2222 203.449 60.9182 193.567 51.3502 190.538C51.3502 190.538 61.4383 193.013 66.4996 201.528L66.2222 203.449Z" fill="#273832"/>
<path d="M344.301 201.978C344.301 201.978 360.612 203.588 368.897 213.677C371.867 210.084 375.597 207.193 379.82 205.212C384.043 203.231 388.654 202.209 393.32 202.22C397.15 197.603 399.587 191.994 400.349 186.047C401.111 180.099 400.165 174.058 397.623 168.627C395.08 163.195 391.044 158.597 385.985 155.366C380.927 152.135 375.053 150.406 369.048 150.378C363.044 150.35 357.154 152.026 352.066 155.21C346.978 158.395 342.9 162.956 340.308 168.364C337.715 173.772 336.714 179.804 337.421 185.758C338.127 191.712 340.514 197.343 344.301 201.995V201.978Z" fill="#EDF9FA"/>
<path opacity="0.5" d="M344.301 201.978C344.301 201.978 360.612 203.588 368.897 213.677C371.867 210.084 375.597 207.193 379.82 205.212C384.043 203.231 388.654 202.209 393.32 202.22C397.15 197.603 399.587 191.994 400.349 186.047C401.111 180.099 400.165 174.058 397.623 168.627C395.08 163.195 391.044 158.597 385.985 155.366C380.927 152.135 375.053 150.406 369.048 150.378C363.044 150.35 357.154 152.026 352.066 155.21C346.978 158.395 342.9 162.956 340.308 168.364C337.715 173.772 336.714 179.804 337.421 185.758C338.127 191.712 340.514 197.343 344.301 201.995V201.978Z" fill="#EDF9FA"/>
<path d="M368.342 152.586L367.805 234.255H370.544L368.342 152.586Z" fill="#273832"/>
<path d="M369.226 210.614C369.226 210.614 374.738 200.715 384.653 197.686C384.653 197.686 374.253 200.161 368.949 208.675L369.226 210.614Z" fill="#273832"/>
<path d="M369.226 182.56C369.226 182.56 374.738 172.661 384.653 169.632C384.653 169.632 374.253 172.107 368.949 180.639L369.226 182.56Z" fill="#273832"/>
<path d="M369.226 196.579C369.226 196.579 374.738 186.68 384.653 183.668C384.653 183.668 374.253 186.143 368.949 194.658L369.226 196.579Z" fill="#273832"/>
<path d="M368.36 189.708C368.36 189.708 363.038 179.809 353.47 176.78C353.47 176.78 363.576 179.255 368.62 187.787L368.36 189.708Z" fill="#273832"/>
<path d="M368.36 203.449C368.36 203.449 363.038 193.567 353.47 190.538C353.47 190.538 363.576 193.013 368.62 201.528L368.36 203.449Z" fill="#273832"/>
<path d="M-45.4736 177.87C-45.4736 177.87 -16.9776 180.691 -2.53894 198.326C-2.53894 198.326 12.7144 177.905 40.1357 178.32C46.8587 170.247 51.1448 160.433 52.4945 150.021C53.8441 139.609 52.2016 129.028 47.7585 119.512C43.3154 109.997 36.2547 101.938 27.3997 96.2759C18.5446 90.6138 8.25997 87.5816 -2.2552 87.5327C-12.7704 87.4838 -23.0828 90.4203 -31.9903 95.9998C-40.8978 101.579 -48.0333 109.572 -52.565 119.046C-57.0966 128.52 -58.8377 139.085 -57.5852 149.509C-56.3328 159.933 -52.1383 169.787 -45.4909 177.922L-45.4736 177.87Z" fill="#EDF9FA"/>
<path opacity="0.3" d="M-45.4736 177.87C-45.4736 177.87 -16.9776 180.691 -2.53894 198.326C-2.53894 198.326 12.7144 177.905 40.1357 178.32C46.8587 170.247 51.1448 160.433 52.4945 150.021C53.8441 139.609 52.2016 129.028 47.7585 119.512C43.3154 109.997 36.2547 101.938 27.3997 96.2759C18.5446 90.6138 8.25997 87.5816 -2.2552 87.5327C-12.7704 87.4838 -23.0828 90.4203 -31.9903 95.9998C-40.8978 101.579 -48.0333 109.572 -52.565 119.046C-57.0966 128.52 -58.8377 139.085 -57.5852 149.509C-56.3328 159.933 -52.1383 169.787 -45.4909 177.922L-45.4736 177.87Z" fill="#EDF9FA"/>
<path d="M-3.47502 91.6323L-4.44568 234.254H0.372986L-3.47502 91.6323Z" fill="#273832"/>
<path d="M-2.03658 192.961C-2.03658 192.961 7.58344 175.655 24.8994 170.376C24.8994 170.376 6.61275 174.703 -2.52191 189.586L-2.03658 192.961Z" fill="#273832"/>
<path d="M-2.03658 143.967C-2.03658 143.967 7.58344 126.66 24.8994 121.468C24.8994 121.468 6.61275 125.795 -2.52191 140.679L-2.03658 143.967Z" fill="#273832"/>
<path d="M-2.03658 168.49C-2.03658 168.49 7.58344 151.184 24.8994 145.992C24.8994 145.992 6.61275 150.319 -2.52191 165.202L-2.03658 168.49Z" fill="#273832"/>
<path d="M1598.48 34.6564H1308.37V234.251H1598.48V34.6564Z" fill="#3AABB0" stroke="#2E3F57" stroke-linecap="round" stroke-linejoin="round"/>
<path d="M1484.95 137.335H1444.48V234.251H1484.95V137.335Z" fill="white" stroke="#2E3F57" stroke-linecap="round" stroke-linejoin="round"/>
<path d="M1480.62 144.258H1448.81V234.251H1480.62V144.258Z" fill="#2E3F57" stroke="#2E3F57" stroke-linecap="round" stroke-linejoin="round"/>
<path d="M1509.44 124.234H1500.84V234.251H1509.44V124.234Z" fill="white" stroke="#2E3F57" stroke-linecap="round" stroke-linejoin="round"/>
<path d="M1510.95 195.623H1499.34V234.251H1510.95V195.623Z" fill="white" stroke="#2E3F57" stroke-linecap="round" stroke-linejoin="round"/>
<path d="M1607.36 37.235H1337.79C1337.68 37.235 1337.58 37.199 1337.5 37.133C1337.42 37.0671 1337.37 36.9753 1337.35 36.8733C1337.33 36.7713 1337.34 36.6654 1337.39 36.5735C1337.44 36.4817 1337.52 36.4097 1337.62 36.3697L1412.89 3.81633C1414.26 3.22365 1415.72 2.9173 1417.21 2.91639H1521.11C1522.48 2.91529 1523.85 3.17971 1525.13 3.69517L1607.53 36.3524C1607.64 36.3786 1607.74 36.4481 1607.81 36.546C1607.87 36.644 1607.89 36.7628 1607.87 36.8774C1607.85 36.992 1607.78 37.0933 1607.69 37.16C1607.59 37.2267 1607.47 37.2536 1607.36 37.235Z" fill="#2E3F57" stroke="#2E3F57" stroke-linecap="round" stroke-linejoin="round"/>
<path d="M1519.32 132.715H1364.48L1376.06 99.2614H1498.82L1519.32 132.715Z" fill="#2E3F57" stroke="#2E3F57" stroke-linecap="round" stroke-linejoin="round"/>
<path d="M1430.78 34.6564H1298.16V234.251H1430.78V34.6564Z" fill="white" stroke="#2E3F57" stroke-linecap="round" stroke-linejoin="round"/>
<path d="M1430.78 199.638H1298.16V234.251H1430.78V199.638Z" fill="#3AABB0" stroke="#2E3F57" stroke-linecap="round" stroke-linejoin="round"/>
<path d="M1362.54 1.42796L1290.14 34.3101C1290.04 34.3506 1289.96 34.4241 1289.91 34.5178C1289.86 34.6114 1289.85 34.7194 1289.87 34.8226C1289.89 34.9258 1289.95 35.0177 1290.04 35.0822C1290.12 35.1467 1290.22 35.1797 1290.33 35.1755H1438.63C1438.74 35.1797 1438.84 35.1467 1438.93 35.0822C1439.01 35.0177 1439.07 34.9258 1439.09 34.8226C1439.12 34.7194 1439.1 34.6114 1439.05 34.5178C1439 34.4241 1438.92 34.3506 1438.82 34.3101L1366.42 1.42796C1365.82 1.14605 1365.15 1 1364.48 1C1363.81 1 1363.15 1.14605 1362.54 1.42796Z" fill="#2E3F57" stroke="#2E3F57" stroke-linecap="round" stroke-linejoin="round"/>
<path d="M1464.7 162.43C1466.62 162.43 1468.17 160.88 1468.17 158.968C1468.17 157.057 1466.62 155.507 1464.7 155.507C1462.79 155.507 1461.24 157.057 1461.24 158.968C1461.24 160.88 1462.79 162.43 1464.7 162.43Z" fill="white"/>
<path d="M1589.82 145.989H1525.68V199.638H1589.82V145.989Z" fill="white" stroke="#2E3F57" stroke-linecap="round" stroke-linejoin="round"/>
<path d="M1565.55 150.869H1549.95V162.429H1565.55V150.869Z" fill="#2E3F57" stroke="#2E3F57" stroke-linecap="round" stroke-linejoin="round"/>
<path d="M1565.55 167.622H1549.95V194.758H1565.55V167.622Z" fill="#2E3F57" stroke="#2E3F57" stroke-linecap="round" stroke-linejoin="round"/>
<path d="M1545.62 150.869H1531.51V162.429H1545.62V150.869Z" fill="#2E3F57" stroke="#2E3F57" stroke-linecap="round" stroke-linejoin="round"/>
<path d="M1583.99 150.869H1569.88V162.429H1583.99V150.869Z" fill="#2E3F57" stroke="#2E3F57" stroke-linecap="round" stroke-linejoin="round"/>
<path d="M1583.99 167.622H1569.88V194.758H1583.99V167.622Z" fill="#2E3F57" stroke="#2E3F57" stroke-linecap="round" stroke-linejoin="round"/>
<path d="M1545.62 167.622H1531.51V194.758H1545.62V167.622Z" fill="#2E3F57" stroke="#2E3F57" stroke-linecap="round" stroke-linejoin="round"/>
<path d="M1405.22 145.989H1323.75V199.638H1405.22V145.989Z" fill="white" stroke="#2E3F57" stroke-linecap="round" stroke-linejoin="round"/>
<path d="M1363.62 150.869H1348.02V162.429H1363.62V150.869Z" fill="#2E3F57" stroke="#2E3F57" stroke-linecap="round" stroke-linejoin="round"/>
<path d="M1363.62 167.622H1348.02V194.758H1363.62V167.622Z" fill="#2E3F57" stroke="#2E3F57" stroke-linecap="round" stroke-linejoin="round"/>
<path d="M1343.68 150.869H1329.57V162.429H1343.68V150.869Z" fill="#2E3F57" stroke="#2E3F57" stroke-linecap="round" stroke-linejoin="round"/>
<path d="M1382.06 150.869H1367.95V162.429H1382.06V150.869Z" fill="#2E3F57" stroke="#2E3F57" stroke-linecap="round" stroke-linejoin="round"/>
<path d="M1382.06 167.622H1367.95V194.758H1382.06V167.622Z" fill="#2E3F57" stroke="#2E3F57" stroke-linecap="round" stroke-linejoin="round"/>
<path d="M1400.26 150.869H1386.15V162.429H1400.26V150.869Z" fill="#2E3F57" stroke="#2E3F57" stroke-linecap="round" stroke-linejoin="round"/>
<path d="M1400.26 167.622H1386.15V194.758H1400.26V167.622Z" fill="#2E3F57" stroke="#2E3F57" stroke-linecap="round" stroke-linejoin="round"/>
<path d="M1343.68 167.622H1329.57V194.758H1343.68V167.622Z" fill="#2E3F57" stroke="#2E3F57" stroke-linecap="round" stroke-linejoin="round"/>
<path d="M1405.22 43.0154H1323.75V96.6653H1405.22V43.0154Z" fill="white" stroke="#2E3F57" stroke-linecap="round" stroke-linejoin="round"/>
<path d="M1363.62 47.8956H1348.02V59.4563H1363.62V47.8956Z" fill="#2E3F57" stroke="#2E3F57" stroke-linecap="round" stroke-linejoin="round"/>
<path d="M1363.62 64.6483H1348.02V91.7848H1363.62V64.6483Z" fill="#2E3F57" stroke="#2E3F57" stroke-linecap="round" stroke-linejoin="round"/>
<path d="M1343.68 47.8956H1329.57V59.4563H1343.68V47.8956Z" fill="#2E3F57" stroke="#2E3F57" stroke-linecap="round" stroke-linejoin="round"/>
<path d="M1382.06 47.8956H1367.95V59.4563H1382.06V47.8956Z" fill="#2E3F57" stroke="#2E3F57" stroke-linecap="round" stroke-linejoin="round"/>
<path d="M1382.06 64.6483H1367.95V91.7848H1382.06V64.6483Z" fill="#2E3F57" stroke="#2E3F57" stroke-linecap="round" stroke-linejoin="round"/>
<path d="M1400.26 47.8956H1386.15V59.4563H1400.26V47.8956Z" fill="#2E3F57" stroke="#2E3F57" stroke-linecap="round" stroke-linejoin="round"/>
<path d="M1400.26 64.6483H1386.15V91.7848H1400.26V64.6483Z" fill="#2E3F57" stroke="#2E3F57" stroke-linecap="round" stroke-linejoin="round"/>
<path d="M1343.68 64.6483H1329.57V91.7848H1343.68V64.6483Z" fill="#2E3F57" stroke="#2E3F57" stroke-linecap="round" stroke-linejoin="round"/>
<path d="M1589.82 43.0154H1525.68V96.6653H1589.82V43.0154Z" fill="white" stroke="#2E3F57" stroke-linecap="round" stroke-linejoin="round"/>
<path d="M1565.55 47.8956H1549.95V59.4563H1565.55V47.8956Z" fill="#2E3F57" stroke="#2E3F57" stroke-linecap="round" stroke-linejoin="round"/>
<path d="M1565.55 64.6483H1549.95V91.7848H1565.55V64.6483Z" fill="#2E3F57" stroke="#2E3F57" stroke-linecap="round" stroke-linejoin="round"/>
<path d="M1545.62 47.8956H1531.51V59.4563H1545.62V47.8956Z" fill="#2E3F57" stroke="#2E3F57" stroke-linecap="round" stroke-linejoin="round"/>
<path d="M1583.99 47.8956H1569.88V59.4563H1583.99V47.8956Z" fill="#2E3F57" stroke="#2E3F57" stroke-linecap="round" stroke-linejoin="round"/>
<path d="M1583.99 64.6483H1569.88V91.7848H1583.99V64.6483Z" fill="#2E3F57" stroke="#2E3F57" stroke-linecap="round" stroke-linejoin="round"/>
<path d="M1545.62 64.6483H1531.51V91.7848H1545.62V64.6483Z" fill="#2E3F57" stroke="#2E3F57" stroke-linecap="round" stroke-linejoin="round"/>
<path d="M1488.42 43.0154H1443.35V96.6653H1488.42V43.0154Z" fill="white" stroke="#2E3F57" stroke-linecap="round" stroke-linejoin="round"/>
<path d="M1483.22 47.8956H1467.62V59.4563H1483.22V47.8956Z" fill="#2E3F57" stroke="#2E3F57" stroke-linecap="round" stroke-linejoin="round"/>
<path d="M1483.22 64.6483H1467.62V91.7848H1483.22V64.6483Z" fill="#2E3F57" stroke="#2E3F57" stroke-linecap="round" stroke-linejoin="round"/>
<path d="M1463.28 47.8956H1449.17V59.4563H1463.28V47.8956Z" fill="#2E3F57" stroke="#2E3F57" stroke-linecap="round" stroke-linejoin="round"/>
<path d="M1463.28 64.6483H1449.17V91.7848H1463.28V64.6483Z" fill="#2E3F57" stroke="#2E3F57" stroke-linecap="round" stroke-linejoin="round"/>
<path d="M1572.92 199.638H1542.58V208.292H1572.92V199.638Z" fill="#3AABB0" stroke="#2E3F57" stroke-linecap="round" stroke-linejoin="round"/>
<path d="M1381.09 199.638H1350.75V208.292H1381.09V199.638Z" fill="#3AABB0" stroke="#2E3F57" stroke-linecap="round" stroke-linejoin="round"/>
<path d="M1904.35 61.9358H1669.29V235H1904.35V61.9358Z" fill="white" stroke="#2E3F57" stroke-linecap="round" stroke-linejoin="round"/>
<path d="M1924.14 66.8163H1649.5L1670.02 74.2753H1903.6L1924.14 66.8163Z" fill="#3AABB0" stroke="#2E3F57" stroke-linecap="round" stroke-linejoin="round"/>
<path d="M1924.18 66.8337H1649.48L1668.25 39.9049C1668.8 39.1207 1669.53 38.48 1670.37 38.0371C1671.22 37.5942 1672.16 37.3622 1673.12 37.3608H1900.5C1901.46 37.3609 1902.41 37.5922 1903.26 38.0351C1904.11 38.478 1904.84 39.1194 1905.39 39.9049L1924.18 66.8337Z" fill="#2E3F57" stroke="#2E3F57" stroke-linecap="round" stroke-linejoin="round"/>
<path d="M1692.76 16.1431H1673.24V42.2584H1692.76V16.1431Z" fill="white" stroke="#2E3F57" stroke-linecap="round" stroke-linejoin="round"/>
<path d="M1692.76 16.1431H1687.63V42.2584H1692.76V16.1431Z" fill="white" stroke="#2E3F57" stroke-linecap="round" stroke-linejoin="round"/>
<path d="M1695.98 7.92249H1670.02V21.3523H1695.98V7.92249Z" fill="white" stroke="#2E3F57" stroke-linecap="round" stroke-linejoin="round"/>
<path d="M1695.98 7.92249H1687.01V21.3523H1695.98V7.92249Z" fill="white" stroke="#2E3F57" stroke-linecap="round" stroke-linejoin="round"/>
<path d="M1729.73 75.2792H1697.67V125.104H1729.73V75.2792Z" fill="white" stroke="#2E3F57" stroke-linecap="round" stroke-linejoin="round"/>
<path d="M1726.27 78.3768H1701.13V122.629H1726.27V78.3768Z" fill="#2E3F57" stroke="white" stroke-linecap="round" stroke-linejoin="round"/>
<path d="M1726.27 78.3768H1701.13V102.606H1726.27V78.3768Z" fill="#2E3F57" stroke="white" stroke-linecap="round" stroke-linejoin="round"/>
<path d="M1719.33 78.3768H1708.07V102.606H1719.33V78.3768Z" fill="#2E3F57" stroke="white" stroke-linecap="round" stroke-linejoin="round"/>
<path d="M1734.93 171.33H1692.47V221.155H1734.93V171.33Z" fill="white" stroke="#2E3F57" stroke-linecap="round" stroke-linejoin="round"/>
<path d="M1730.34 174.427H1697.06V218.68H1730.34V174.427Z" fill="#2E3F57" stroke="white" stroke-linecap="round" stroke-linejoin="round"/>
<path d="M1730.34 174.427H1697.06V198.656H1730.34V174.427Z" fill="#2E3F57" stroke="white" stroke-linecap="round" stroke-linejoin="round"/>
<path d="M1721.17 174.427H1706.25V198.656H1721.17V174.427Z" fill="#2E3F57" stroke="white" stroke-linecap="round" stroke-linejoin="round"/>
<path d="M1610.18 201.978C1610.18 201.978 1626.49 203.588 1634.76 213.677C1637.73 210.084 1641.46 207.193 1645.68 205.212C1649.91 203.231 1654.52 202.209 1659.18 202.22C1663.01 197.603 1665.45 191.994 1666.21 186.047C1666.97 180.099 1666.03 174.058 1663.49 168.627C1660.94 163.195 1656.91 158.597 1651.85 155.366C1646.79 152.135 1640.92 150.406 1634.91 150.378C1628.91 150.35 1623.02 152.026 1617.93 155.21C1612.84 158.395 1608.76 162.956 1606.17 168.364C1603.58 173.772 1602.58 179.804 1603.28 185.758C1603.99 191.712 1606.38 197.343 1610.16 201.995L1610.18 201.978Z" fill="#EDF9FA"/>
<path opacity="0.5" d="M1610.18 201.978C1610.18 201.978 1626.49 203.588 1634.76 213.677C1637.73 210.084 1641.46 207.193 1645.68 205.212C1649.91 203.231 1654.52 202.209 1659.18 202.22C1663.01 197.603 1665.45 191.994 1666.21 186.047C1666.97 180.099 1666.03 174.058 1663.49 168.627C1660.94 163.195 1656.91 158.597 1651.85 155.366C1646.79 152.135 1640.92 150.406 1634.91 150.378C1628.91 150.35 1623.02 152.026 1617.93 155.21C1612.84 158.395 1608.76 162.956 1606.17 168.364C1603.58 173.772 1602.58 179.804 1603.28 185.758C1603.99 191.712 1606.38 197.343 1610.16 201.995L1610.18 201.978Z" fill="#EDF9FA"/>
<path d="M1634.22 152.586L1633.67 234.255H1636.42L1634.22 152.586Z" fill="#273832"/>
<path d="M1635.04 210.614C1635.04 210.614 1640.55 200.715 1650.46 197.686C1650.46 197.686 1640.06 200.161 1634.78 208.675L1635.04 210.614Z" fill="#273832"/>
<path d="M1635.04 182.56C1635.04 182.56 1640.55 172.661 1650.46 169.632C1650.46 169.632 1640.06 172.107 1634.78 180.639L1635.04 182.56Z" fill="#273832"/>
<path d="M1635.04 196.579C1635.04 196.579 1640.55 186.68 1650.46 183.668C1650.46 183.668 1640.06 186.143 1634.78 194.658L1635.04 196.579Z" fill="#273832"/>
<path d="M1634.22 189.708C1634.22 189.708 1628.92 179.809 1619.35 176.78C1619.35 176.78 1629.44 179.255 1634.5 187.787L1634.22 189.708Z" fill="#273832"/>
<path d="M1634.22 203.449C1634.22 203.449 1628.92 193.567 1619.35 190.538C1619.35 190.538 1629.44 193.013 1634.5 201.528L1634.22 203.449Z" fill="#273832"/>
<path d="M1257.1 201.978C1257.1 201.978 1273.41 203.588 1281.7 213.677C1284.67 210.084 1288.4 207.193 1292.62 205.212C1296.84 203.231 1301.45 202.209 1306.12 202.22C1309.95 197.603 1312.39 191.994 1313.15 186.047C1313.91 180.099 1312.97 174.058 1310.42 168.627C1307.88 163.195 1303.84 158.597 1298.79 155.366C1293.73 152.135 1287.85 150.406 1281.85 150.378C1275.84 150.35 1269.95 152.026 1264.87 155.21C1259.78 158.395 1255.7 162.956 1253.11 168.364C1250.51 173.772 1249.51 179.804 1250.22 185.758C1250.93 191.712 1253.31 197.343 1257.1 201.995V201.978Z" fill="#EDF9FA"/>
<path opacity="0.5" d="M1257.1 201.978C1257.1 201.978 1273.41 203.588 1281.7 213.677C1284.67 210.084 1288.4 207.193 1292.62 205.212C1296.84 203.231 1301.45 202.209 1306.12 202.22C1309.95 197.603 1312.39 191.994 1313.15 186.047C1313.91 180.099 1312.97 174.058 1310.42 168.627C1307.88 163.195 1303.84 158.597 1298.79 155.366C1293.73 152.135 1287.85 150.406 1281.85 150.378C1275.84 150.35 1269.95 152.026 1264.87 155.21C1259.78 158.395 1255.7 162.956 1253.11 168.364C1250.51 173.772 1249.51 179.804 1250.22 185.758C1250.93 191.712 1253.31 197.343 1257.1 201.995V201.978Z" fill="#EDF9FA"/>
<path d="M1281.14 152.586L1280.61 234.255H1283.36L1281.14 152.586Z" fill="#273832"/>
<path d="M1282.03 210.614C1282.03 210.614 1287.54 200.715 1297.45 197.686C1297.45 197.686 1287.05 200.161 1281.75 208.675L1282.03 210.614Z" fill="#273832"/>
<path d="M1282.03 182.56C1282.03 182.56 1287.54 172.661 1297.45 169.632C1297.45 169.632 1287.05 172.107 1281.75 180.639L1282.03 182.56Z" fill="#273832"/>
<path d="M1282.03 196.579C1282.03 196.579 1287.54 186.68 1297.45 183.668C1297.45 183.668 1287.05 186.143 1281.75 194.658L1282.03 196.579Z" fill="#273832"/>
<path d="M1281.16 189.708C1281.16 189.708 1275.84 179.809 1266.27 176.78C1266.27 176.78 1276.38 179.255 1281.42 187.787L1281.16 189.708Z" fill="#273832"/>
<path d="M1281.16 203.449C1281.16 203.449 1275.84 193.567 1266.27 190.538C1266.27 190.538 1276.38 193.013 1281.42 201.528L1281.16 203.449Z" fill="#273832"/>
<path d="M1522.53 177.87C1522.53 177.87 1551.02 180.691 1565.46 198.326C1565.46 198.326 1580.71 177.905 1608.14 178.32C1614.86 170.247 1619.14 160.433 1620.49 150.021C1621.84 139.609 1620.2 129.028 1615.76 119.512C1611.32 109.997 1604.25 101.938 1595.4 96.2759C1586.54 90.6138 1576.26 87.5816 1565.74 87.5327C1555.23 87.4838 1544.92 90.4203 1536.01 95.9998C1527.1 101.579 1519.97 109.572 1515.44 119.046C1510.9 128.52 1509.16 139.085 1510.41 149.509C1511.67 159.933 1515.86 169.787 1522.51 177.922L1522.53 177.87Z" fill="#EDF9FA"/>
<path opacity="0.3" d="M1522.53 177.87C1522.53 177.87 1551.02 180.691 1565.46 198.326C1565.46 198.326 1580.71 177.905 1608.14 178.32C1614.86 170.247 1619.14 160.433 1620.49 150.021C1621.84 139.609 1620.2 129.028 1615.76 119.512C1611.32 109.997 1604.25 101.938 1595.4 96.2759C1586.54 90.6138 1576.26 87.5816 1565.74 87.5327C1555.23 87.4838 1544.92 90.4203 1536.01 95.9998C1527.1 101.579 1519.97 109.572 1515.44 119.046C1510.9 128.52 1509.16 139.085 1510.41 149.509C1511.67 159.933 1515.86 169.787 1522.51 177.922L1522.53 177.87Z" fill="#EDF9FA"/>
<path d="M1564.53 91.6323L1563.55 234.254H1568.37L1564.53 91.6323Z" fill="#273832"/>
<path d="M1565.96 192.961C1565.96 192.961 1575.58 175.655 1592.9 170.376C1592.9 170.376 1574.61 174.703 1565.48 189.586L1565.96 192.961Z" fill="#273832"/>
<path d="M1565.96 143.967C1565.96 143.967 1575.58 126.66 1592.9 121.468C1592.9 121.468 1574.61 125.795 1565.48 140.679L1565.96 143.967Z" fill="#273832"/>
<path d="M1565.96 168.49C1565.96 168.49 1575.58 151.184 1592.9 145.992C1592.9 145.992 1574.61 150.319 1565.48 165.202L1565.96 168.49Z" fill="#273832"/>
<path d="M1564.56 156.462C1564.56 156.462 1555.27 139.155 1538.56 133.964C1538.56 133.964 1556.21 138.273 1565.01 153.156L1564.56 156.462Z" fill="#273832"/>
<path d="M1564.56 180.466C1564.56 180.466 1555.27 163.16 1538.56 157.968C1538.56 157.968 1556.21 162.294 1565.01 177.178L1564.56 180.466Z" fill="#273832"/>
</svg>
