<svg width="60" height="60" viewBox="0 0 60 60" fill="none" xmlns="http://www.w3.org/2000/svg">
<path d="M3.75 11.8777V23.1402C3.75 31.778 10.7523 38.7803 19.3902 38.7803C20.8954 38.7803 22.3509 38.5676 23.7283 38.1709C24.3455 39.7061 25.1819 41.1296 26.1988 42.4027L19.5055 49.101C18.7735 49.8337 18.774 51.0206 19.5065 51.7526C20.239 52.4846 21.4262 52.4842 22.1581 51.7519L28.8489 45.0559C31.7354 47.3674 35.3981 48.75 39.3836 48.75C48.6986 48.75 56.25 41.1986 56.25 31.8837V19.6181C56.25 17.0772 54.1901 15.0174 51.6495 15.0174H39.3836C37.2655 15.0174 35.2384 15.4079 33.3706 16.1208C30.7984 11.0079 25.504 7.5 19.3902 7.5H8.12775C5.71001 7.5 3.75 9.45997 3.75 11.8777ZM31.5204 42.3825L40.7126 33.1832C41.4446 32.4507 41.4442 31.2635 40.7119 30.5316C39.9791 29.7996 38.7922 29.8 38.0602 30.5326L28.8711 39.7286C27.2358 37.5405 26.2675 34.8252 26.2675 31.8837C26.2675 24.6397 32.1398 18.7674 39.3836 18.7674H51.6495C52.119 18.7674 52.5 19.1482 52.5 19.6181V31.8837C52.5 39.1275 46.6275 45 39.3836 45C36.4339 45 33.7114 44.0261 31.5204 42.3825ZM19.3902 11.25C24.0531 11.25 28.0891 13.9341 30.0375 17.8416C27.3852 19.6105 25.2624 22.1108 23.9574 25.0543L18.2005 19.299C17.4681 18.5668 16.2809 18.567 15.5488 19.2994C14.8167 20.0317 14.8168 21.2189 15.5492 21.951L22.7396 29.1394C22.5935 30.0325 22.5175 30.9492 22.5175 31.8837C22.5175 32.7929 22.5894 33.6853 22.7279 34.5555C21.669 34.8647 20.549 35.0304 19.3902 35.0304C12.8234 35.0304 7.5 29.707 7.5 23.1402V11.8777C7.5 11.5311 7.78106 11.25 8.12775 11.25H19.3902Z" fill="#2E3F57"/>
</svg>
