<svg width="64" height="64" viewBox="0 0 64 64" fill="none" xmlns="http://www.w3.org/2000/svg">
<path d="M9.59991 40.651C9.59991 34.4884 9.59991 28.3258 9.59991 22.1632C9.70238 10.7625 18.6166 1.00503 29.9899 0.0806419C43.7198 -1.04917 54.9907 9.83806 54.3759 23.6012C53.8636 34.5911 45.2568 43.6296 34.3958 44.6567C30.8096 44.9648 27.3259 44.6567 24.0471 43.3214C22.1003 42.6025 21.1781 40.9591 21.3831 39.213C21.6905 36.5426 24.0471 35.1047 26.7111 36.029C29.785 37.1589 32.8588 37.467 36.1376 36.5426C42.7977 34.6938 47.4085 28.1204 46.7937 21.3416C46.1789 14.2546 40.8509 8.60555 33.9859 7.78387C25.0717 6.75677 17.4895 13.4329 17.4895 22.4714C17.4895 34.7965 17.4895 47.2244 17.4895 59.5496C17.4895 61.6038 16.4649 63.1444 14.8255 63.7607C12.2639 64.6851 9.70235 62.8363 9.70235 59.8577C9.59989 53.4897 9.59991 47.019 9.59991 40.651Z" fill="#2E3F57"/>
</svg>
