<svg width="452" height="404" viewBox="0 0 452 404" fill="none" xmlns="http://www.w3.org/2000/svg">
<path d="M373.286 91.3511C354.682 81.1777 335.302 77.094 314.152 79.709C288.1 82.921 267.523 86.7062 242.595 77.0105C221.637 68.867 202.495 56.7115 182.505 46.6336C141.615 25.9167 101.025 19.5047 70.3698 60.3653C54.0619 82.1091 41.6755 107.077 33.127 133.418C19.3059 175.914 7.94774 222.972 14.1768 267.355C22.0558 323.619 70.3698 350.032 128.165 329.649C151.539 321.41 174.1 309.35 199.028 305.899C251.192 298.663 294.185 346.497 356.739 334.867C464.558 314.855 456.595 136.904 373.286 91.3511Z" fill="#EDF9FA"/>
<path d="M389.607 45.5112C382.014 41.3678 378.571 44.8186 375.809 41.3678C373.048 37.9169 383.401 28.9615 362.658 20.0061C362.658 20.0061 361.283 0.710119 332.983 0.0175658C304.683 -0.674987 312.311 19.3135 304.719 24.1375C297.127 28.9615 295.059 21.427 287.467 26.2032C279.875 30.9795 283.33 40.6752 277.125 42.0484C270.92 43.4216 262.622 35.8512 255.03 40.6752C247.438 45.4992 247.438 49.6307 243.995 49.6307C240.552 49.6307 233.641 46.8724 229.504 49.6307C225.368 52.3889 220.525 55.8398 220.525 55.8398H395.082C395.082 55.8398 397.199 49.6426 389.607 45.5112Z" fill="#3AABB0"/>
<path opacity="0.5" d="M389.607 45.5112C382.014 41.3678 378.571 44.8186 375.809 41.3678C373.048 37.9169 383.401 28.9615 362.658 20.0061C362.658 20.0061 361.283 0.710119 332.983 0.0175658C304.683 -0.674987 312.311 19.3135 304.719 24.1375C297.127 28.9615 295.059 21.427 287.467 26.2032C279.875 30.9795 283.33 40.6752 277.125 42.0484C270.92 43.4216 262.622 35.8512 255.03 40.6752C247.438 45.4992 247.438 49.6307 243.995 49.6307C240.552 49.6307 233.641 46.8724 229.504 49.6307C225.368 52.3889 220.525 55.8398 220.525 55.8398H395.082C395.082 55.8398 397.199 49.6426 389.607 45.5112Z" fill="white"/>
<path d="M191.652 200.416C186.319 197.515 183.892 199.927 181.955 197.515C180.018 195.103 187.288 188.798 172.749 182.505C172.749 182.505 171.781 168.953 151.898 168.463C132.015 167.974 137.36 182.016 132.027 185.407C126.695 188.798 125.248 183.472 119.916 186.864C114.583 190.255 116.999 197.025 112.647 197.992C108.295 198.959 102.46 193.634 97.1039 197.025C91.7476 200.416 91.7715 203.318 89.3564 203.318C86.9413 203.318 82.0752 201.383 79.1699 203.318C76.2646 205.252 72.8691 207.676 72.8691 207.676H195.525C195.525 207.676 196.984 203.318 191.652 200.416Z" fill="white"/>
<path opacity="0.5" d="M191.652 200.416C186.319 197.515 183.892 199.927 181.955 197.515C180.018 195.103 187.288 188.798 172.749 182.505C172.749 182.505 171.781 168.953 151.898 168.463C132.015 167.974 137.36 182.016 132.027 185.407C126.695 188.798 125.248 183.472 119.916 186.864C114.583 190.255 116.999 197.025 112.647 197.992C108.295 198.959 102.46 193.634 97.1039 197.025C91.7476 200.416 91.7715 203.318 89.3564 203.318C86.9413 203.318 82.0752 201.383 79.1699 203.318C76.2646 205.252 72.8691 207.676 72.8691 207.676H195.525C195.525 207.676 196.984 203.318 191.652 200.416Z" fill="white"/>
<path d="M343.241 402.176H418.802C417.356 392.946 411.414 394.57 410.625 380.265C410.23 373.101 416.913 364.145 416.328 354.688C415.849 346.891 408.162 338.903 407.564 329.983C407.026 321.935 413.542 313.004 412.956 304.335C412.346 296.144 404.587 288.275 403.858 279.749C403.188 271.391 409.62 262.424 408.855 254.017C408.09 245.611 400.163 237.886 399.29 229.599C398.418 221.085 404.647 211.915 403.69 203.771C402.686 195.115 394.508 187.64 393.396 179.663C392.2 170.792 397.951 161.311 396.6 153.645C394.938 144.26 386.187 137.465 384.345 130.54C380.914 117.632 381.344 105.202 377.291 104.39C372.975 103.53 371.983 115.722 368.707 129.346C367.057 136.188 358.509 143.125 357.098 152.523C355.962 160.129 362.012 169.383 361.019 178.219C360.135 186.135 352.16 193.741 351.383 202.351C350.654 210.446 357.122 219.366 356.488 227.832C355.866 236.059 348.119 243.904 347.605 252.262C347.091 260.621 353.738 269.361 353.284 277.612C352.818 286.066 345.226 294.054 344.831 302.186C344.424 310.795 351.227 319.476 350.893 327.452C350.522 336.3 343.038 344.396 342.763 352.133C342.428 361.518 349.326 370.175 349.111 377.328C348.657 392.85 341.543 389.615 341.292 402.104L343.241 402.176Z" fill="#3AABB0"/>
<path d="M375.678 129.191V398.689" stroke="#273832" stroke-miterlimit="10"/>
<path d="M387.478 157.442L375.175 168.057L365.108 154.648" stroke="#273832" stroke-miterlimit="10"/>
<path d="M387.478 204.357L375.175 214.96L365.108 201.562" stroke="#273832" stroke-miterlimit="10"/>
<path d="M387.478 248.465L375.175 259.08L365.108 245.671" stroke="#273832" stroke-miterlimit="10"/>
<path d="M387.478 300.968L375.175 311.571L365.108 298.174" stroke="#273832" stroke-miterlimit="10"/>
<path d="M387.478 354.02L375.175 364.623L365.108 351.226" stroke="#273832" stroke-miterlimit="10"/>
<path d="M291.77 402.176H350.103C348.98 395.012 344.4 396.301 343.791 385.268C343.48 379.704 348.633 372.826 348.191 365.518C347.82 359.548 341.89 353.327 341.423 346.413C341.005 340.204 346.074 333.279 345.584 326.616C345.118 320.287 339.104 314.222 338.566 307.642C338.028 301.063 343.014 294.257 342.428 287.773C341.842 281.29 335.709 275.319 335.063 268.931C334.393 262.352 339.2 255.283 338.458 248.978C337.681 242.304 331.369 236.536 330.52 230.387C329.563 223.533 334.035 216.213 332.983 210.303C331.703 203.055 324.948 197.801 323.537 192.464C320.883 182.505 321.218 172.893 318.085 172.272C314.75 171.603 313.985 181.013 311.462 191.544C310.195 196.822 303.583 202.183 302.495 209.455C301.622 215.33 306.285 222.47 305.52 229.288C304.838 235.402 298.693 241.229 298.083 247.916C297.521 254.161 302.519 261.05 302.029 267.582C301.55 273.934 295.584 279.988 295.166 286.436C294.747 292.884 299.948 299.642 299.554 306.007C299.159 312.371 293.337 318.699 293.038 324.98C292.715 331.619 297.964 338.318 297.713 344.479C297.426 351.309 291.651 357.614 291.436 363.584C291.173 370.82 296.505 377.519 296.338 383.023C295.979 394.964 290.491 392.516 290.3 402.128L291.77 402.176Z" fill="#3AABB0"/>
<path d="M316.818 191.461V399.489" stroke="#273832" stroke-miterlimit="10"/>
<path d="M325.917 213.264L316.424 221.455L308.652 211.103" stroke="#273832" stroke-miterlimit="10"/>
<path d="M325.917 249.468L316.424 257.659L308.652 247.319" stroke="#273832" stroke-miterlimit="10"/>
<path d="M325.917 283.523L316.424 291.714L308.652 281.373" stroke="#273832" stroke-miterlimit="10"/>
<path d="M325.917 324.049L316.424 332.24L308.652 321.888" stroke="#273832" stroke-miterlimit="10"/>
<path d="M325.917 365.005L316.424 373.184L308.652 362.844" stroke="#273832" stroke-miterlimit="10"/>
<path d="M239.774 401.615V160.2H252.531V401.615" fill="#2E3F57"/>
<path d="M239.774 401.615V160.2H252.531V401.615" stroke="#2E3F57" stroke-linecap="round" stroke-linejoin="round"/>
<path d="M233.401 401.615V160.2H246.158V401.615" fill="#3AABB0"/>
<path d="M233.401 401.615V160.2H246.158V401.615" stroke="#2E3F57" stroke-linecap="round" stroke-linejoin="round"/>
<g style="mix-blend-mode:multiply" opacity="0.3">
<path d="M246.158 160.2H233.401V188.858H246.158V160.2Z" fill="#2E3F57"/>
</g>
<path d="M287.837 65.9534H193.313L234.514 167.018H329.049V107.101C329.049 101.696 327.983 96.3445 325.912 91.3515C323.841 86.3585 320.805 81.8219 316.978 78.0009C313.151 74.1799 308.608 71.1492 303.608 69.0821C298.608 67.015 293.249 65.9518 287.837 65.9534Z" fill="#3AABB0" stroke="#2E3F57" stroke-linecap="round" stroke-linejoin="round"/>
<g style="mix-blend-mode:multiply" opacity="0.3">
<path d="M227.304 149.323L234.477 167.018H329.049V107.101C329.049 106.193 329.049 105.286 328.953 104.39H227.328L227.304 149.323Z" fill="#273832"/>
</g>
<path d="M287.144 104.39H277.196" stroke="#2E3F57" stroke-linecap="round" stroke-linejoin="round"/>
<path d="M328.954 104.39H298.849" stroke="#2E3F57" stroke-linecap="round" stroke-linejoin="round"/>
<path d="M193.314 65.9534C204.244 65.9534 214.726 70.2898 222.455 78.0086C230.184 85.7275 234.526 96.1964 234.526 107.113V167.03H152.102V107.101C152.105 96.1866 156.448 85.7206 164.177 78.0044C171.905 70.2881 182.386 65.9534 193.314 65.9534Z" fill="#2E3F57" stroke="#2E3F57" stroke-linecap="round" stroke-linejoin="round"/>
<path d="M234.513 160.2H163.495V167.018H234.513V160.2Z" fill="#3AABB0" stroke="#2E3F57" stroke-linecap="round" stroke-linejoin="round"/>
<path d="M234.514 160.2H87.5391V167.018H234.514V160.2Z" fill="#3AABB0" stroke="#2E3F57" stroke-linecap="round" stroke-linejoin="round"/>
<path opacity="0.3" d="M234.513 160.2H163.495V167.018H234.513V160.2Z" fill="#273832"/>
<path d="M293.983 41.5947H264.487V62.2877H293.983V41.5947Z" fill="#2E3F57" stroke="#2E3F57" stroke-linecap="round" stroke-linejoin="round"/>
<path d="M266.878 41.5947H260.506V106.074H266.878V41.5947Z" fill="white" stroke="#2E3F57" stroke-linecap="round" stroke-linejoin="round"/>
<path d="M263.686 114.826C267.648 114.826 270.86 111.619 270.86 107.662C270.86 103.705 267.648 100.498 263.686 100.498C259.724 100.498 256.513 103.705 256.513 107.662C256.513 111.619 259.724 114.826 263.686 114.826Z" fill="#2E3F57" stroke="#2E3F57" stroke-linecap="round" stroke-linejoin="round"/>
<path d="M158.485 82.5029C175.128 90.9449 204.061 104.474 230.747 111.28" stroke="white" stroke-linecap="round" stroke-linejoin="round" stroke-dasharray="2 4"/>
<path d="M144.521 75.1594C144.521 75.1594 149.854 78.1685 158.486 82.5506" stroke="#2E3F57" stroke-linecap="round" stroke-linejoin="round" stroke-dasharray="2 4"/>
<path d="M138.531 74.7177L150.499 46.323L63.7109 25.1763L138.531 74.7177Z" fill="white" stroke="#2E3F57" stroke-width="1.2629" stroke-linecap="round" stroke-linejoin="round"/>
<path d="M144.366 49.7619L138.531 74.7177L63.7109 25.1763L144.366 49.7619Z" fill="#3AABB0" stroke="#2E3F57" stroke-width="1.2629" stroke-linecap="round" stroke-linejoin="round"/>
<path d="M144.366 49.7619L130.748 61.4159L63.7109 25.1763L144.366 49.7619Z" fill="white" stroke="#2E3F57" stroke-width="1.2629" stroke-linecap="round" stroke-linejoin="round"/>
<path d="M150.499 46.323L162.623 41.4035L63.7109 25.1763L150.499 46.323Z" fill="white" stroke="#2E3F57" stroke-width="1.2629" stroke-linecap="round" stroke-linejoin="round"/>
<path d="M121.673 70.2998L124.482 72.0193" stroke="#2E3F57" stroke-linecap="round" stroke-linejoin="round"/>
<path d="M106.346 60.9143L115.755 66.6697" stroke="#2E3F57" stroke-linecap="round" stroke-linejoin="round"/>
<path d="M95.7764 129.071V98.2764L183.987 112.438L95.7764 129.071Z" fill="white" stroke="#2E3F57" stroke-width="1.2629" stroke-linecap="round" stroke-linejoin="round"/>
<path d="M100.092 103.817L95.7764 129.071L183.987 112.438L100.092 103.817Z" fill="#3AABB0" stroke="#2E3F57" stroke-width="1.2629" stroke-linecap="round" stroke-linejoin="round"/>
<path d="M100.093 103.817L108.115 119.829L183.988 112.438L100.093 103.817Z" fill="white" stroke="#2E3F57" stroke-width="1.2629" stroke-linecap="round" stroke-linejoin="round"/>
<path d="M95.7764 98.2764L86.5225 89.0344L183.987 112.438L95.7764 98.2764Z" fill="white" stroke="#2E3F57" stroke-width="1.2629" stroke-linecap="round" stroke-linejoin="round"/>
<path d="M127.364 128.498L135.016 126.946" stroke="#2E3F57" stroke-linecap="round" stroke-linejoin="round"/>
<path d="M100.487 133.955L119.724 130.05" stroke="#2E3F57" stroke-linecap="round" stroke-linejoin="round"/>
<path d="M85.1477 127.173C85.1477 127.173 15.8032 139.113 2.65165 201.204C-10.4999 263.295 58.8446 266.877 70.8006 237.026C82.7566 207.174 30.1504 195.234 18.1944 223.891C6.23844 252.549 42.1063 301.505 91.1257 303.893C131.86 305.875 246.063 258.388 317.093 246.387C317.093 246.387 369.699 231.844 451 235.032" stroke="#2E3F57" stroke-linecap="round" stroke-linejoin="round" stroke-dasharray="2 4"/>
<path d="M427.482 321.804H447.413" stroke="#2E3F57" stroke-linecap="round" stroke-linejoin="round"/>
<path d="M427.482 351.25H447.413" stroke="#2E3F57" stroke-linecap="round" stroke-linejoin="round"/>
<path d="M7.82812 350.462H425.091V322.592H7.82812" fill="white"/>
<path d="M7.82812 350.462H425.091V322.592H7.82812" stroke="#2E3F57" stroke-linecap="round" stroke-linejoin="round"/>
<path d="M36.833 401.806V261.6C36.8332 261.256 36.9033 260.916 37.0389 260.599C37.1745 260.283 37.3729 259.998 37.6221 259.761L48.5259 249.504C49.017 249.045 49.6696 248.799 50.3415 248.82C51.0134 248.84 51.6501 249.124 52.1127 249.611L61.6775 259.773C62.1114 260.246 62.3542 260.863 62.359 261.504V401.806" fill="#2E3F57"/>
<path d="M36.833 401.806V261.6C36.8332 261.256 36.9033 260.916 37.0389 260.599C37.1745 260.283 37.3729 259.998 37.6221 259.761L48.5259 249.504C49.017 249.045 49.6696 248.799 50.3415 248.82C51.0134 248.84 51.6501 249.124 52.1127 249.611L61.6775 259.773C62.1114 260.246 62.3542 260.863 62.359 261.504V401.806" stroke="#2E3F57" stroke-linecap="round" stroke-linejoin="round"/>
<path d="M33.7363 403V261.6C33.736 261.255 33.8069 260.913 33.9448 260.597C34.0826 260.28 34.2844 259.996 34.5374 259.761L45.4412 249.504C45.6836 249.275 45.9688 249.097 46.2803 248.979C46.5919 248.86 46.9238 248.805 47.2569 248.815C47.5901 248.825 47.918 248.9 48.2219 249.037C48.5258 249.174 48.7997 249.369 49.028 249.611L58.5928 259.773C59.0317 260.243 59.2754 260.862 59.2743 261.504V403" fill="white"/>
<path d="M33.7363 403V261.6C33.736 261.255 33.8069 260.913 33.9448 260.597C34.0826 260.28 34.2844 259.996 34.5374 259.761L45.4412 249.504C45.6836 249.275 45.9688 249.097 46.2803 248.979C46.5919 248.86 46.9238 248.805 47.2569 248.815C47.5901 248.825 47.918 248.9 48.2219 249.037C48.5258 249.174 48.7997 249.369 49.028 249.611L58.5928 259.773C59.0317 260.243 59.2754 260.862 59.2743 261.504V403" stroke="#2E3F57" stroke-linecap="round" stroke-linejoin="round"/>
<path d="M128.774 401.806V261.6C128.775 261.256 128.845 260.916 128.98 260.6C129.116 260.283 129.314 259.998 129.563 259.761L140.479 249.504C140.722 249.275 141.007 249.097 141.318 248.979C141.63 248.86 141.962 248.805 142.295 248.815C142.628 248.825 142.956 248.9 143.26 249.037C143.564 249.174 143.838 249.369 144.066 249.611L153.631 259.773C154.07 260.243 154.313 260.862 154.312 261.504V401.806" fill="#2E3F57"/>
<path d="M128.774 401.806V261.6C128.775 261.256 128.845 260.916 128.98 260.6C129.116 260.283 129.314 259.998 129.563 259.761L140.479 249.504C140.722 249.275 141.007 249.097 141.318 248.979C141.63 248.86 141.962 248.805 142.295 248.815C142.628 248.825 142.956 248.9 143.26 249.037C143.564 249.174 143.838 249.369 144.066 249.611L153.631 259.773C154.07 260.243 154.313 260.862 154.312 261.504V401.806" stroke="#2E3F57" stroke-linecap="round" stroke-linejoin="round"/>
<path d="M126.192 403V261.6C126.192 261.255 126.263 260.913 126.401 260.597C126.539 260.28 126.74 259.996 126.993 259.761L137.897 249.504C138.388 249.045 139.041 248.799 139.713 248.82C140.385 248.84 141.021 249.124 141.484 249.611L151.049 259.773C151.491 260.241 151.739 260.86 151.742 261.504V403" fill="white"/>
<path d="M126.192 403V261.6C126.192 261.255 126.263 260.913 126.401 260.597C126.539 260.28 126.74 259.996 126.993 259.761L137.897 249.504C138.388 249.045 139.041 248.799 139.713 248.82C140.385 248.84 141.021 249.124 141.484 249.611L151.049 259.773C151.491 260.241 151.739 260.86 151.742 261.504V403" stroke="#2E3F57" stroke-linecap="round" stroke-linejoin="round"/>
<path d="M221.23 401.806V261.6C221.23 261.255 221.301 260.913 221.439 260.597C221.577 260.28 221.778 259.996 222.032 259.761L232.935 249.504C233.426 249.045 234.079 248.799 234.751 248.82C235.423 248.84 236.059 249.124 236.522 249.611L246.087 259.773C246.529 260.241 246.777 260.86 246.78 261.504V403" fill="#2E3F57"/>
<path d="M221.23 401.806V261.6C221.23 261.255 221.301 260.913 221.439 260.597C221.577 260.28 221.778 259.996 222.032 259.761L232.935 249.504C233.426 249.045 234.079 248.799 234.751 248.82C235.423 248.84 236.059 249.124 236.522 249.611L246.087 259.773C246.529 260.241 246.777 260.86 246.78 261.504V403" stroke="#2E3F57" stroke-linecap="round" stroke-linejoin="round"/>
<path d="M218.659 403V261.6C218.659 261.256 218.729 260.916 218.865 260.6C219.001 260.283 219.199 259.998 219.448 259.761L230.364 249.504C230.606 249.275 230.892 249.097 231.203 248.979C231.515 248.86 231.847 248.805 232.18 248.815C232.513 248.825 232.841 248.9 233.145 249.037C233.449 249.174 233.723 249.369 233.951 249.611L243.516 259.773C243.955 260.243 244.198 260.862 244.197 261.504V403" fill="white"/>
<path d="M218.659 403V261.6C218.659 261.256 218.729 260.916 218.865 260.6C219.001 260.283 219.199 259.998 219.448 259.761L230.364 249.504C230.606 249.275 230.892 249.097 231.203 248.979C231.515 248.86 231.847 248.805 232.18 248.815C232.513 248.825 232.841 248.9 233.145 249.037C233.449 249.174 233.723 249.369 233.951 249.611L243.516 259.773C243.955 260.243 244.198 260.862 244.197 261.504V403" stroke="#2E3F57" stroke-linecap="round" stroke-linejoin="round"/>
<path d="M313.697 401.806V261.6C313.697 261.256 313.768 260.916 313.903 260.599C314.039 260.283 314.237 259.998 314.486 259.761L325.39 249.504C325.881 249.045 326.534 248.799 327.206 248.82C327.878 248.84 328.514 249.124 328.977 249.611L338.542 259.773C338.976 260.246 339.219 260.863 339.223 261.504V401.806" fill="#2E3F57"/>
<path d="M313.697 401.806V261.6C313.697 261.256 313.768 260.916 313.903 260.599C314.039 260.283 314.237 259.998 314.486 259.761L325.39 249.504C325.881 249.045 326.534 248.799 327.206 248.82C327.878 248.84 328.514 249.124 328.977 249.611L338.542 259.773C338.976 260.246 339.219 260.863 339.223 261.504V401.806" stroke="#2E3F57" stroke-linecap="round" stroke-linejoin="round"/>
<path d="M311.115 403V261.6C311.115 261.255 311.186 260.913 311.324 260.597C311.462 260.28 311.663 259.996 311.916 259.761L322.82 249.504C323.063 249.275 323.348 249.097 323.659 248.979C323.971 248.86 324.303 248.805 324.636 248.815C324.969 248.825 325.297 248.9 325.601 249.037C325.905 249.174 326.179 249.369 326.407 249.611L335.972 259.773C336.411 260.243 336.654 260.862 336.653 261.504V403" fill="white"/>
<path d="M311.115 403V261.6C311.115 261.255 311.186 260.913 311.324 260.597C311.462 260.28 311.663 259.996 311.916 259.761L322.82 249.504C323.063 249.275 323.348 249.097 323.659 248.979C323.971 248.86 324.303 248.805 324.636 248.815C324.969 248.825 325.297 248.9 325.601 249.037C325.905 249.174 326.179 249.369 326.407 249.611L335.972 259.773C336.411 260.243 336.654 260.862 336.653 261.504V403" stroke="#2E3F57" stroke-linecap="round" stroke-linejoin="round"/>
<path d="M406.152 401.806V261.6C406.153 261.256 406.223 260.916 406.358 260.6C406.494 260.283 406.692 259.998 406.941 259.761L417.857 249.504C418.1 249.275 418.385 249.097 418.696 248.979C419.008 248.86 419.34 248.805 419.673 248.815C420.006 248.825 420.334 248.9 420.638 249.037C420.942 249.174 421.216 249.369 421.444 249.611L431.009 259.773C431.448 260.243 431.691 260.862 431.69 261.504V401.806" fill="#2E3F57"/>
<path d="M406.152 401.806V261.6C406.153 261.256 406.223 260.916 406.358 260.6C406.494 260.283 406.692 259.998 406.941 259.761L417.857 249.504C418.1 249.275 418.385 249.097 418.696 248.979C419.008 248.86 419.34 248.805 419.673 248.815C420.006 248.825 420.334 248.9 420.638 249.037C420.942 249.174 421.216 249.369 421.444 249.611L431.009 259.773C431.448 260.243 431.691 260.862 431.69 261.504V401.806" stroke="#2E3F57" stroke-linecap="round" stroke-linejoin="round"/>
<path d="M403.57 403V261.6C403.57 261.255 403.641 260.913 403.779 260.597C403.917 260.28 404.118 259.996 404.371 259.761L415.275 249.504C415.766 249.045 416.419 248.799 417.091 248.82C417.763 248.84 418.399 249.124 418.862 249.611L428.427 259.773C428.869 260.241 429.117 260.86 429.12 261.504V403" fill="white"/>
<path d="M403.57 403V261.6C403.57 261.255 403.641 260.913 403.779 260.597C403.917 260.28 404.118 259.996 404.371 259.761L415.275 249.504C415.766 249.045 416.419 248.799 417.091 248.82C417.763 248.84 418.399 249.124 418.862 249.611L428.427 259.773C428.869 260.241 429.117 260.86 429.12 261.504V403" stroke="#2E3F57" stroke-linecap="round" stroke-linejoin="round"/>
<path d="M49.0166 249.611V259.832" stroke="#2E3F57" stroke-linecap="round" stroke-linejoin="round"/>
<path d="M53.1172 254.889V279.081" stroke="#2E3F57" stroke-linecap="round" stroke-linejoin="round"/>
<path d="M131.226 256.871V287.475" stroke="#2E3F57" stroke-linecap="round" stroke-linejoin="round"/>
<path d="M135.183 252.919V266.245" stroke="#2E3F57" stroke-linecap="round" stroke-linejoin="round"/>
<path d="M230.364 249.504V279.582" stroke="#2E3F57" stroke-linecap="round" stroke-linejoin="round"/>
<path d="M236.043 251.928V296.371" stroke="#2E3F57" stroke-linecap="round" stroke-linejoin="round"/>
<path d="M315.634 256.871V290.436" stroke="#2E3F57" stroke-linecap="round" stroke-linejoin="round"/>
<path d="M328.487 252.919V261.313" stroke="#2E3F57" stroke-linecap="round" stroke-linejoin="round"/>
<path d="M412.035 252.417V270.197" stroke="#2E3F57" stroke-linecap="round" stroke-linejoin="round"/>
<path d="M422.915 254.399V305.744" stroke="#2E3F57" stroke-linecap="round" stroke-linejoin="round"/>
<path d="M403.14 329.446H392.26" stroke="#2E3F57" stroke-linecap="round" stroke-linejoin="round"/>
<path d="M403.14 337.84H365.072" stroke="#2E3F57" stroke-linecap="round" stroke-linejoin="round"/>
<path d="M261.247 337.84H243.946" stroke="#2E3F57" stroke-linecap="round" stroke-linejoin="round"/>
<path d="M170.286 337.84H152.985" stroke="#2E3F57" stroke-linecap="round" stroke-linejoin="round"/>
<path d="M33.3423 333.398H16.042" stroke="#2E3F57" stroke-linecap="round" stroke-linejoin="round"/>
<path d="M33.3424 341.291H26.4199" stroke="#2E3F57" stroke-linecap="round" stroke-linejoin="round"/>
<path d="M252.351 333.398H243.946" stroke="#2E3F57" stroke-linecap="round" stroke-linejoin="round"/>
<path d="M160.398 342.771H151.993" stroke="#2E3F57" stroke-linecap="round" stroke-linejoin="round"/>
<path d="M125.296 342.771H116.891" stroke="#2E3F57" stroke-linecap="round" stroke-linejoin="round"/>
<path d="M436.748 337.84H429.335" stroke="#2E3F57" stroke-linecap="round" stroke-linejoin="round"/>
<path d="M446.636 337.84H442.188" stroke="#2E3F57" stroke-linecap="round" stroke-linejoin="round"/>
<path d="M58.8442 286.508C58.8442 286.508 55.8553 312.168 52.2685 338.425C48.6817 364.683 55.2575 391.549 57.0509 393.937" stroke="#2E3F57" stroke-linecap="round" stroke-linejoin="round"/>
<path d="M47.0195 338.449C47.5934 333.327 48.0717 330.091 48.0717 330.091" stroke="#2E3F57" stroke-linecap="round" stroke-linejoin="round"/>
<path d="M55.8434 390.952C55.8434 390.952 45.083 388.564 45.083 369.459C45.083 361.614 45.5852 353.578 46.183 346.772" stroke="#2E3F57" stroke-linecap="round" stroke-linejoin="round"/>
<path d="M146.123 256.059C146.123 256.059 148.514 257.85 144.329 278.149C140.145 298.448 140.742 328.3 146.123 345.017" stroke="#2E3F57" stroke-linecap="round" stroke-linejoin="round"/>
<path d="M152.1 293.672C152.1 293.672 146.122 311.583 150.307 336.658" stroke="#2E3F57" stroke-linecap="round" stroke-linejoin="round"/>
<path d="M220.249 305.004C220.249 305.004 223.238 322.318 226.227 340.216C229.216 358.115 226.825 383.202 224.434 389.758C222.043 396.313 219.651 401.698 219.651 401.698" stroke="#2E3F57" stroke-linecap="round" stroke-linejoin="round"/>
<path d="M231.512 392.922C228.846 401.089 225.534 391.549 225.534 391.549" stroke="#2E3F57" stroke-linecap="round" stroke-linejoin="round"/>
<path d="M231.404 331.882C231.404 331.882 237.036 360.909 233.855 382.761" stroke="#2E3F57" stroke-linecap="round" stroke-linejoin="round"/>
<path d="M219.054 341.435C219.054 341.435 225.032 353.972 219.652 365.913" stroke="#2E3F57" stroke-linecap="round" stroke-linejoin="round"/>
<path d="M330.604 343.202C331.404 346.852 332.454 350.442 333.748 353.948" stroke="#2E3F57" stroke-linecap="round" stroke-linejoin="round"/>
<path d="M335.541 281.135C331.747 293.16 329.341 305.579 328.367 318.15C328.01 324.511 328.367 330.891 329.432 337.172" stroke="#2E3F57" stroke-linecap="round" stroke-linejoin="round"/>
<path d="M324.183 336.037C324.183 336.037 329.563 356.336 332.552 363.5C335.541 370.665 334.345 387.967 330.758 396.325" stroke="#2E3F57" stroke-linecap="round" stroke-linejoin="round"/>
<path d="M404.861 290.09C404.861 290.09 416.817 311.583 405.459 346.796" stroke="#2E3F57" stroke-linecap="round" stroke-linejoin="round"/>
<path d="M415.849 326.795C415.921 333.506 415.323 342.008 412.633 349.172C407.253 363.501 404.861 368.277 404.861 368.277" stroke="#2E3F57" stroke-linecap="round" stroke-linejoin="round"/>
<path d="M415.024 315.165C415.024 315.165 415.419 317.732 415.658 321.685" stroke="#2E3F57" stroke-linecap="round" stroke-linejoin="round"/>
</svg>
