<svg width="24" height="24" viewBox="0 0 24 24" fill="none" xmlns="http://www.w3.org/2000/svg">
<path d="M16.9957 9.62198C17.1392 9.62198 17.2695 9.68462 17.3724 9.79046C17.4683 9.9035 17.5166 10.0439 17.5026 10.1922C17.5026 10.2412 17.1189 15.0939 16.8997 17.1365C16.7625 18.3901 15.9544 19.1511 14.7423 19.172C13.8103 19.1928 12.8993 19.2 12.0023 19.2C11.0499 19.2 10.1186 19.1928 9.21462 19.172C8.04312 19.1439 7.23434 18.3692 7.1041 17.1365C6.87862 15.0867 6.50189 10.2412 6.49489 10.1922C6.48789 10.0439 6.53551 9.9035 6.63214 9.79046C6.72737 9.68462 6.86462 9.62198 7.00887 9.62198H16.9957ZM13.4861 4.80005C14.1227 4.80005 14.6912 5.24428 14.8558 5.87788L14.9734 6.40347C15.0687 6.83187 15.4398 7.13499 15.8669 7.13499H17.9663C18.2464 7.13499 18.4795 7.36754 18.4795 7.66346V7.93706C18.4795 8.22577 18.2464 8.46553 17.9663 8.46553H6.03351C5.75271 8.46553 5.51953 8.22577 5.51953 7.93706V7.66346C5.51953 7.36754 5.75271 7.13499 6.03351 7.13499H8.13282C8.55926 7.13499 8.93039 6.83187 9.02632 6.40419L9.13626 5.91316C9.30712 5.24428 9.86941 4.80005 10.5129 4.80005H13.4861Z" fill="#6C6C6C"/>
</svg>
