<svg width="24" height="24" viewBox="0 0 24 24" fill="none" xmlns="http://www.w3.org/2000/svg">
<path d="M16.9597 5.39393C16.1694 4.60209 14.8948 4.60209 14.1045 5.39393L13.2505 6.2624C13.1231 6.39011 13.1231 6.60723 13.2505 6.73495C13.2505 6.73495 13.2755 6.75986 13.3201 6.80422L13.6336 7.11665C13.815 7.29745 14.0413 7.52324 14.2686 7.75029L15.0394 8.52224C15.2002 8.68412 15.3069 8.7926 15.3154 8.80395C15.4556 8.95721 15.5448 9.16156 15.5448 9.39145C15.5448 9.85122 15.1752 10.2344 14.7036 10.2344C14.4869 10.2344 14.283 10.145 14.1428 10.0045L12.0141 7.88439C11.9122 7.78222 11.7337 7.78222 11.6318 7.88439L5.55183 13.9765C5.1312 14.3979 4.88903 14.9599 4.87628 15.5601L4.7998 18.587C4.7998 18.753 4.85079 18.9063 4.9655 19.0212C5.08022 19.1362 5.23317 19.2 5.39887 19.2H8.39423C9.00604 19.2 9.59237 18.9574 10.0385 18.5232L18.6167 9.90231C19.3942 9.11047 19.3942 7.83331 18.6167 7.05424L16.9597 5.39393Z" fill="#3AABB0"/>
</svg>
