<svg width="20" height="20" viewBox="0 0 20 20" fill="none" xmlns="http://www.w3.org/2000/svg">
<g clip-path="url(#clip0_106_2432)">
<path d="M9.99999 5C9.34072 5 8.69626 5.1955 8.14809 5.56177C7.59993 5.92804 7.17269 6.44863 6.92039 7.05772C6.6681 7.66681 6.60209 8.33703 6.73071 8.98363C6.85932 9.63024 7.17679 10.2242 7.64297 10.6904C8.10914 11.1565 8.70309 11.474 9.34969 11.6026C9.99629 11.7312 10.6665 11.6652 11.2756 11.4129C11.8847 11.1606 12.4053 10.7334 12.7716 10.1852C13.1378 9.63707 13.3333 8.9926 13.3333 8.33333C13.3333 7.44928 12.9821 6.60143 12.357 5.97631C11.7319 5.35119 10.884 5 9.99999 5ZM9.99999 10C9.67036 10 9.34812 9.90225 9.07404 9.71912C8.79996 9.53598 8.58634 9.27568 8.46019 8.97114C8.33405 8.6666 8.30104 8.33149 8.36535 8.00818C8.42966 7.68488 8.58839 7.38791 8.82148 7.15482C9.05457 6.92174 9.35154 6.763 9.67484 6.69869C9.99814 6.63438 10.3333 6.66739 10.6378 6.79353C10.9423 6.91968 11.2026 7.1333 11.3858 7.40738C11.5689 7.68147 11.6667 8.0037 11.6667 8.33333C11.6667 8.77536 11.4911 9.19928 11.1785 9.51184C10.8659 9.82441 10.442 10 9.99999 10Z" fill="#2E3F57"/>
<path d="M9.99999 20C9.29827 20.0036 8.60591 19.839 7.98087 19.52C7.35584 19.201 6.81632 18.737 6.40749 18.1666C3.23165 13.7858 1.62082 10.4925 1.62082 8.37746C1.62082 6.15517 2.50362 4.02389 4.07502 2.45249C5.64642 0.881094 7.77769 -0.00170898 9.99999 -0.00170898C12.2223 -0.00170898 14.3536 0.881094 15.925 2.45249C17.4964 4.02389 18.3792 6.15517 18.3792 8.37746C18.3792 10.4925 16.7683 13.7858 13.5925 18.1666C13.1837 18.737 12.6441 19.201 12.0191 19.52C11.3941 19.839 10.7017 20.0036 9.99999 20ZM9.99999 1.81746C8.26033 1.81944 6.5925 2.5114 5.36238 3.74152C4.13226 4.97164 3.4403 6.63947 3.43832 8.37912C3.43832 10.0541 5.01582 13.1516 7.87915 17.1008C8.12223 17.4356 8.44113 17.7081 8.80975 17.896C9.17837 18.0839 9.58624 18.1819 9.99999 18.1819C10.4137 18.1819 10.8216 18.0839 11.1902 17.896C11.5588 17.7081 11.8777 17.4356 12.1208 17.1008C14.9842 13.1516 16.5617 10.0541 16.5617 8.37912C16.5597 6.63947 15.8677 4.97164 14.6376 3.74152C13.4075 2.5114 11.7396 1.81944 9.99999 1.81746Z" fill="#2E3F57"/>
</g>
<defs>
<clipPath id="clip0_106_2432">
<rect width="20" height="20" fill="white"/>
</clipPath>
</defs>
</svg>
