<svg width="20" height="20" viewBox="0 0 20 20" fill="none" xmlns="http://www.w3.org/2000/svg">
<g clip-path="url(#clip0_106_1257)">
<path d="M13.6362 12.7273H8.92712C9.03296 12.4357 9.0883 12.1283 9.09076 11.8182V10.9091H11.3635C11.6046 10.9091 11.8358 10.8133 12.0063 10.6428C12.1768 10.4723 12.2726 10.2411 12.2726 10C12.2726 9.75889 12.1768 9.52766 12.0063 9.35717C11.8358 9.18669 11.6046 9.09091 11.3635 9.09091H9.09076V8.18182C9.08875 7.79215 9.21519 7.41268 9.45053 7.10209C9.68586 6.79151 10.017 6.56712 10.3926 6.46362C10.7683 6.36013 11.1676 6.38331 11.5288 6.52956C11.89 6.67582 12.1929 6.937 12.3908 7.27273C12.5113 7.48249 12.7103 7.63577 12.9438 7.69885C13.1774 7.76193 13.4265 7.72964 13.6362 7.60909C13.846 7.48854 13.9993 7.28959 14.0623 7.05603C14.1254 6.82246 14.0931 6.5734 13.9726 6.36364C13.5559 5.71005 12.9412 5.20672 12.2183 4.92706C11.4954 4.64741 10.7021 4.60607 9.95401 4.80907C9.20595 5.01207 8.54233 5.44879 8.05996 6.05552C7.57759 6.66226 7.30171 7.40725 7.27258 8.18182V9.09091H6.36349C6.12238 9.09091 5.89115 9.18669 5.72066 9.35717C5.55018 9.52766 5.4544 9.75889 5.4544 10C5.4544 10.2411 5.55018 10.4723 5.72066 10.6428C5.89115 10.8133 6.12238 10.9091 6.36349 10.9091H7.27258V11.8182C7.27258 12.0593 7.1768 12.2905 7.00631 12.461C6.83582 12.6315 6.60459 12.7273 6.36349 12.7273C6.12238 12.7273 5.89115 12.823 5.72066 12.9935C5.55018 13.164 5.4544 13.3953 5.4544 13.6364C5.4544 13.8775 5.55018 14.1087 5.72066 14.2792C5.89115 14.4497 6.12238 14.5455 6.36349 14.5455H13.6362C13.8773 14.5455 14.1086 14.4497 14.279 14.2792C14.4495 14.1087 14.5453 13.8775 14.5453 13.6364C14.5453 13.3953 14.4495 13.164 14.279 12.9935C14.1086 12.823 13.8773 12.7273 13.6362 12.7273ZM9.99985 0C8.02204 0 6.08864 0.58649 4.44415 1.6853C2.79966 2.78412 1.51793 4.3459 0.761056 6.17316C0.00418029 8.00043 -0.193853 10.0111 0.191999 11.9509C0.577851 13.8907 1.53026 15.6725 2.92878 17.0711C4.32731 18.4696 6.10914 19.422 8.04895 19.8078C9.98876 20.1937 11.9994 19.9957 13.8267 19.2388C15.6539 18.4819 17.2157 17.2002 18.3145 15.5557C19.4134 13.9112 19.9998 11.9778 19.9998 10C19.9998 7.34783 18.9463 4.8043 17.0709 2.92893C15.1956 1.05357 12.652 0 9.99985 0ZM9.99985 18.1818C8.38164 18.1818 6.79977 17.702 5.45428 16.8029C4.10878 15.9039 3.0601 14.6261 2.44084 13.131C1.82157 11.636 1.65955 9.99092 1.97524 8.40381C2.29094 6.81669 3.07018 5.35883 4.21443 4.21458C5.35868 3.07033 6.81654 2.29109 8.40366 1.97539C9.99077 1.6597 11.6359 1.82172 13.1309 2.44099C14.6259 3.06025 15.9038 4.10893 16.8028 5.45442C17.7018 6.79992 18.1817 8.38179 18.1817 10C18.1817 12.17 17.3197 14.251 15.7853 15.7854C14.2509 17.3198 12.1698 18.1818 9.99985 18.1818Z" fill="#2E3F57"/>
</g>
<defs>
<clipPath id="clip0_106_1257">
<rect width="20" height="20" fill="white"/>
</clipPath>
</defs>
</svg>
