<svg width="20" height="20" viewBox="0 0 20 20" fill="none" xmlns="http://www.w3.org/2000/svg">
<g clip-path="url(#clip0_106_1263)">
<path d="M19.0858 5.44827C18.5225 5.16661 17.8583 5.22577 17.355 5.60494C17.3225 5.62911 17.2917 5.65661 17.2633 5.68494L15.7992 7.16244C15.6233 5.02494 13.8483 3.33411 11.6667 3.33411H4.16667C1.86917 3.33327 0 5.20244 0 7.49994V12.4999C0 14.7974 1.86917 16.6666 4.16667 16.6666H11.6667C13.8575 16.6666 15.64 14.9608 15.8017 12.8108L17.265 14.2724C17.2933 14.2999 17.3225 14.3249 17.3542 14.3491C17.6475 14.5691 17.9942 14.6808 18.3442 14.6808C18.5967 14.6808 18.8492 14.6233 19.0858 14.5049C19.65 14.2233 20 13.6558 20 13.0266V6.92827C20 6.29744 19.65 5.73077 19.0858 5.44911V5.44827ZM11.6667 14.9999H4.16667C2.78833 14.9999 1.66667 13.8783 1.66667 12.4999V7.49994C1.66667 6.12161 2.78833 4.99994 4.16667 4.99994H11.6667C13.045 4.99994 14.1667 6.12161 14.1667 7.49994V12.4999C14.1667 13.8783 13.045 14.9999 11.6667 14.9999ZM15.8333 10.4858V9.49494L18.3333 6.97161L18.3542 13.0033L15.8333 10.4849V10.4858Z" fill="#2E3F57"/>
</g>
<defs>
<clipPath id="clip0_106_1263">
<rect width="20" height="20" fill="white"/>
</clipPath>
</defs>
</svg>
