<svg width="130" height="40" viewBox="0 0 130 40" fill="none" xmlns="http://www.w3.org/2000/svg">
<rect width="130" height="40" rx="8" fill="white"/>
<path d="M11.8126 16.3532C9.70568 20.0465 11.0441 25.6475 13.3756 29.0447C14.5413 30.7433 15.7156 32.2676 17.3304 32.2676C17.3649 32.2676 17.3908 32.2676 17.4254 32.2676C18.1853 32.2415 18.7293 31.9976 19.2646 31.7711C19.8604 31.5185 20.4735 31.2485 21.4406 31.2485C22.356 31.2485 22.9431 31.5011 23.5131 31.7537C24.0743 31.9976 24.6442 32.2502 25.4991 32.2328C27.3211 32.1979 28.435 30.5516 29.4194 29.1056C30.447 27.59 30.9651 26.1179 31.1378 25.5604L31.1464 25.5343C31.1809 25.4385 31.1291 25.3252 31.0341 25.2817C31.0341 25.2817 31.0255 25.273 31.0169 25.273C30.6974 25.1423 27.891 23.888 27.8565 20.456C27.8306 17.6685 29.9634 16.1964 30.3951 15.9351L30.4124 15.9264C30.4556 15.9003 30.4901 15.848 30.4988 15.7957C30.5074 15.7435 30.4988 15.6825 30.4642 15.6389C28.9876 13.4613 26.7339 13.139 25.8272 13.0954C25.6977 13.078 25.5595 13.078 25.4214 13.078C24.3506 13.078 23.3317 13.4874 22.5114 13.8097C21.9415 14.0362 21.4579 14.2278 21.1125 14.2278C20.7326 14.2278 20.2404 14.0275 19.6705 13.801C18.9106 13.4961 18.0385 13.1477 17.1231 13.1477C17.0972 13.1477 17.08 13.1477 17.0627 13.1477C14.9385 13.1825 12.9265 14.4107 11.8126 16.3532Z" fill="#2E3F57"/>
<path d="M25.8272 7.10254C24.5406 7.1548 22.995 7.95619 22.071 9.04502C21.2852 9.95964 20.5167 11.4927 20.724 13.0345C20.7326 13.1303 20.8189 13.2087 20.9139 13.2174C21.0003 13.2261 21.0866 13.2261 21.1816 13.2261C22.4423 13.2261 23.798 12.5206 24.7306 11.3882C25.7064 10.1948 26.1986 8.65304 26.0518 7.28546C26.0345 7.18093 25.9395 7.10254 25.8272 7.10254Z" fill="#2E3F57"/>
<path d="M40.6622 9.1583H43.1059C43.7449 9.1583 44.3148 9.28896 44.8157 9.55899C45.3165 9.82902 45.6964 10.1949 45.9728 10.6653C46.2491 11.1356 46.3872 11.6757 46.3872 12.268C46.3872 12.8691 46.2491 13.4004 45.9728 13.8708C45.6964 14.3412 45.3079 14.7157 44.8157 14.977C44.3148 15.2471 43.7449 15.3777 43.1059 15.3777H40.6622V9.1583ZM43.0714 14.9857C43.6413 14.9857 44.1421 14.8725 44.5825 14.646C45.0143 14.4196 45.351 14.0973 45.5928 13.6879C45.826 13.2785 45.9469 12.8081 45.9469 12.2854C45.9469 11.7541 45.826 11.2924 45.5928 10.883C45.3597 10.4736 45.0229 10.1513 44.5825 9.92485C44.1508 9.69837 43.6413 9.58513 43.0714 9.58513H41.1112V14.9945H43.0714V14.9857Z" fill="#2E3F57"/>
<path fill-rule="evenodd" clip-rule="evenodd" d="M40.4122 8.9083H43.1059C43.7798 8.9083 44.3917 9.04638 44.9343 9.33894C45.4744 9.63013 45.8883 10.0279 46.1883 10.5386C46.4894 11.0512 46.6372 11.6358 46.6372 12.268C46.6372 12.9093 46.4893 13.4851 46.1883 13.9974C45.8887 14.5074 45.4664 14.9145 44.9336 15.1975C44.3912 15.4898 43.7796 15.6277 43.1059 15.6277H40.4122V8.9083ZM42.8214 14.7445V14.7357H43.0714C43.6068 14.7357 44.0672 14.6297 44.4673 14.4242C44.8569 14.2196 45.1587 13.9307 45.3765 13.5624C45.5858 13.1942 45.6969 12.7676 45.6969 12.2854C45.6969 11.7942 45.5857 11.3757 45.3756 11.0067C45.1671 10.6407 44.8667 10.3521 44.4682 10.1472L44.4664 10.1462C44.0766 9.94177 43.6084 9.83513 43.0714 9.83513H41.3612V14.7445H42.8214Z" fill="#2E3F57"/>
<path d="M48.4337 15.1251C48.0797 14.9248 47.812 14.6461 47.6047 14.2802C47.4061 13.9231 47.3025 13.5137 47.3025 13.0607C47.3025 12.6078 47.4061 12.2071 47.6047 11.8412C47.8033 11.4841 48.0797 11.2053 48.4337 10.9963C48.7877 10.7959 49.1763 10.6914 49.6081 10.6914C50.0398 10.6914 50.437 10.7959 50.7824 10.9963C51.1365 11.1966 51.4041 11.4754 51.6114 11.8412C51.81 12.1984 51.9136 12.6078 51.9136 13.0607C51.9136 13.5137 51.81 13.9144 51.6114 14.2802C51.4128 14.6373 51.1365 14.9161 50.7824 15.1251C50.4284 15.3255 50.0398 15.43 49.6081 15.43C49.1763 15.43 48.7877 15.3255 48.4337 15.1251ZM50.5665 14.7767C50.8429 14.6112 51.0674 14.376 51.2314 14.0799C51.3955 13.7837 51.4732 13.444 51.4732 13.0607C51.4732 12.6774 51.3955 12.3464 51.2314 12.0416C51.0674 11.7454 50.8515 11.5102 50.5665 11.3447C50.2902 11.1792 49.9707 11.0921 49.6167 11.0921C49.2627 11.0921 48.9432 11.1792 48.6668 11.3447C48.3905 11.5102 48.166 11.7454 48.002 12.0416C47.8379 12.3377 47.7602 12.6774 47.7602 13.0607C47.7602 13.444 47.8379 13.775 48.002 14.0799C48.166 14.376 48.3819 14.6112 48.6668 14.7767C48.9432 14.9422 49.2627 15.0293 49.6167 15.0293C49.9707 15.0293 50.2816 14.9422 50.5665 14.7767Z" fill="#2E3F57"/>
<path fill-rule="evenodd" clip-rule="evenodd" d="M48.3106 10.7787C48.7026 10.5569 49.1336 10.4414 49.6081 10.4414C50.0806 10.4414 50.5211 10.556 50.9067 10.7794C51.3032 11.004 51.6017 11.3169 51.8289 11.718L51.8299 11.7197C52.0507 12.1168 52.1636 12.5686 52.1636 13.0607C52.1636 13.5542 52.0501 13.9961 51.8311 14.3995L51.8299 14.4017C51.6089 14.7991 51.3004 15.1096 50.9095 15.3404L50.9056 15.3428C50.5136 15.5646 50.0825 15.68 49.6081 15.68C49.1336 15.68 48.7026 15.5645 48.3106 15.3427C47.9135 15.118 47.6146 14.8049 47.3872 14.4034L47.3862 14.4017C47.1654 14.0046 47.0525 13.5528 47.0525 13.0607C47.0525 12.5672 47.166 12.1254 47.385 11.7219L47.3862 11.7197C47.6072 11.3224 47.9157 11.0118 48.3066 10.781L48.3106 10.7787ZM49.6167 11.3421C49.305 11.3421 49.0304 11.4184 48.7953 11.5592C48.5587 11.7009 48.3645 11.9031 48.2206 12.1627C48.0806 12.4154 48.0102 12.7119 48.0102 13.0607C48.0102 13.4072 48.0797 13.6962 48.2214 13.96C48.3666 14.2217 48.5522 14.421 48.7924 14.5605L48.7953 14.5622C49.0304 14.703 49.305 14.7793 49.6167 14.7793C49.926 14.7793 50.1931 14.7042 50.4395 14.5614C50.6755 14.4197 50.8692 14.2178 51.0128 13.9587C51.1528 13.706 51.2232 13.4095 51.2232 13.0607C51.2232 12.7143 51.1537 12.4252 51.012 12.1614C50.8668 11.8997 50.6812 11.7004 50.441 11.5609L50.4381 11.5592C50.203 11.4184 49.9284 11.3421 49.6167 11.3421Z" fill="#2E3F57"/>
<path d="M59.7369 10.7437L57.9926 15.3952H57.5782L56.0239 11.3621L54.4609 15.3952H54.0551L52.3108 10.7437H52.7339L54.271 14.8899L55.8425 10.7437H56.2225L57.7854 14.8812L59.3397 10.7437H59.7369Z" fill="#2E3F57"/>
<path fill-rule="evenodd" clip-rule="evenodd" d="M51.9501 10.4937H52.9079L54.2736 14.1777L55.6699 10.4937H56.3953L57.7847 14.1721L59.1666 10.4937H60.0977L58.1659 15.6452H57.4066L56.0232 12.0556L54.6322 15.6452H53.8818L51.9501 10.4937Z" fill="#2E3F57"/>
<path d="M64.3826 11.214C64.7193 11.5538 64.8834 12.0416 64.8834 12.6774V15.3952H64.443V12.7123C64.443 12.1896 64.3135 11.7889 64.0544 11.5189C63.7954 11.2489 63.4241 11.1095 62.9578 11.1095C62.4138 11.1095 61.9907 11.275 61.6798 11.5973C61.3689 11.9196 61.2135 12.3639 61.2135 12.9126V15.3865H60.7731V10.735H61.1962V11.7367C61.3517 11.4144 61.5934 11.1531 61.9043 10.9702C62.2152 10.7872 62.5951 10.6914 63.0182 10.6914C63.5881 10.7088 64.0458 10.8743 64.3826 11.214Z" fill="#2E3F57"/>
<path fill-rule="evenodd" clip-rule="evenodd" d="M61.4462 10.996C61.5473 10.9057 61.658 10.825 61.7775 10.7547C62.1326 10.5457 62.5578 10.4414 63.0182 10.4414H63.0259C63.6411 10.4602 64.1666 10.6411 64.5601 11.038C64.9578 11.4393 65.1334 11.9997 65.1334 12.6774V15.6452H64.193V12.7123C64.193 12.2276 64.0729 11.8993 63.874 11.692C63.6729 11.4823 63.3733 11.3595 62.9578 11.3595C62.4684 11.3595 62.115 11.5062 61.8597 11.7709C61.6042 12.0358 61.4635 12.4119 61.4635 12.9126V15.6365H60.5231V10.485H61.4462V10.996ZM61.0231 11.7543L61.2226 11.7998C61.1319 11.9642 61.0659 12.144 61.0231 12.3369V11.7543Z" fill="#2E3F57"/>
<path d="M66.6967 8.78374H67.1371V15.3864H66.6967V8.78374Z" fill="#2E3F57"/>
<path fill-rule="evenodd" clip-rule="evenodd" d="M66.4467 8.53374H67.3871V15.6364H66.4467V8.53374Z" fill="#2E3F57"/>
<path d="M69.624 15.1251C69.27 14.9248 69.0023 14.6461 68.7951 14.2802C68.5965 13.9231 68.4928 13.5137 68.4928 13.0607C68.4928 12.6078 68.5965 12.2071 68.7951 11.8412C68.9937 11.4841 69.27 11.2053 69.624 10.9963C69.9781 10.7959 70.3666 10.6914 70.7984 10.6914C71.2301 10.6914 71.6273 10.7959 71.9727 10.9963C72.3268 11.1966 72.5945 11.4754 72.8017 11.8412C73.0003 12.1984 73.1039 12.6078 73.1039 13.0607C73.1039 13.5137 73.0003 13.9144 72.8017 14.2802C72.6031 14.6373 72.3268 14.9161 71.9727 15.1251C71.6187 15.3255 71.2301 15.43 70.7984 15.43C70.3666 15.43 69.9781 15.3255 69.624 15.1251ZM71.7569 14.7767C72.0332 14.6112 72.2577 14.376 72.4218 14.0799C72.5858 13.7837 72.6635 13.444 72.6635 13.0607C72.6635 12.6774 72.5858 12.3464 72.4218 12.0416C72.2577 11.7454 72.0418 11.5102 71.7569 11.3447C71.4805 11.1792 71.1611 11.0921 70.807 11.0921C70.453 11.0921 70.1335 11.1792 69.8572 11.3447C69.5809 11.5102 69.3563 11.7454 69.1923 12.0416C69.0282 12.3377 68.9505 12.6774 68.9505 13.0607C68.9505 13.444 69.0282 13.775 69.1923 14.0799C69.3563 14.376 69.5722 14.6112 69.8572 14.7767C70.1335 14.9422 70.453 15.0293 70.807 15.0293C71.1611 15.0293 71.4719 14.9422 71.7569 14.7767Z" fill="#2E3F57"/>
<path fill-rule="evenodd" clip-rule="evenodd" d="M69.5009 10.7787C69.8929 10.5569 70.3239 10.4414 70.7984 10.4414C71.2709 10.4414 71.7115 10.556 72.097 10.7794C72.4936 11.004 72.792 11.3169 73.0192 11.718L73.0202 11.7197C73.241 12.1168 73.3539 12.5686 73.3539 13.0607C73.3539 13.5542 73.2404 13.9961 73.0214 14.3995L73.0202 14.4017C72.7992 14.7991 72.4907 15.1096 72.0999 15.3404L72.0959 15.3428C71.7039 15.5646 71.2728 15.68 70.7984 15.68C70.3239 15.68 69.8929 15.5645 69.5009 15.3427C69.1038 15.118 68.805 14.8049 68.5775 14.4034L68.5766 14.4017C68.3557 14.0046 68.2428 13.5528 68.2428 13.0607C68.2428 12.5672 68.3563 12.1254 68.5753 11.7219L68.5766 11.7197C68.7975 11.3224 69.106 11.0118 69.4969 10.781L69.5009 10.7787ZM70.807 11.3421C70.4953 11.3421 70.2207 11.4184 69.9856 11.5592C69.749 11.7009 69.5548 11.9031 69.411 12.1627C69.271 12.4154 69.2005 12.7119 69.2005 13.0607C69.2005 13.4072 69.27 13.6962 69.4117 13.96C69.5569 14.2217 69.7425 14.421 69.9827 14.5605L69.9856 14.5622C70.2207 14.703 70.4953 14.7793 70.807 14.7793C71.1163 14.7793 71.3834 14.7042 71.6298 14.5614C71.8658 14.4197 72.0595 14.2178 72.2031 13.9587C72.3431 13.706 72.4135 13.4095 72.4135 13.0607C72.4135 12.7143 72.344 12.4252 72.2023 12.1614C72.0571 11.8997 71.8716 11.7004 71.6313 11.5609L71.6284 11.5592C71.3933 11.4184 71.1187 11.3421 70.807 11.3421Z" fill="#2E3F57"/>
<path d="M77.3264 11.1444C77.6286 11.4405 77.7841 11.8673 77.7841 12.4423V15.3865H77.361V14.5589C77.2142 14.829 76.9983 15.0467 76.7133 15.1948C76.4284 15.3429 76.0916 15.4213 75.6944 15.4213C75.1849 15.4213 74.7791 15.2994 74.4769 15.0555C74.1833 14.8116 74.0278 14.4893 74.0278 14.0973C74.0278 13.714 74.166 13.4004 74.4423 13.1565C74.7186 12.9126 75.1504 12.7994 75.7548 12.7994H77.3351V12.4248C77.3351 11.9893 77.2228 11.6583 76.9897 11.4405C76.7565 11.214 76.4197 11.1008 75.9707 11.1008C75.6685 11.1008 75.3749 11.1531 75.0899 11.2576C74.8136 11.3621 74.5718 11.5102 74.3819 11.6844L74.1574 11.3621C74.3905 11.1531 74.6668 10.9963 74.9863 10.8743C75.3058 10.7611 75.6512 10.7001 76.0053 10.7001C76.5838 10.7088 77.0242 10.8569 77.3264 11.1444ZM76.7392 14.7941C77.0069 14.6199 77.2055 14.3586 77.3437 14.0189V13.1478H75.7721C75.3231 13.1478 74.995 13.2349 74.7877 13.4004C74.5805 13.5659 74.4855 13.7924 74.4855 14.0886C74.4855 14.3934 74.5977 14.6286 74.8223 14.8028C75.0468 14.9771 75.3576 15.0642 75.7635 15.0642C76.1434 15.0642 76.4715 14.9684 76.7392 14.7941Z" fill="#2E3F57"/>
<path fill-rule="evenodd" clip-rule="evenodd" d="M77.111 15.2356V15.6365H78.0341V12.4423C78.0341 11.8218 77.8651 11.3223 77.5014 10.9658L77.4987 10.9632C77.1359 10.6181 76.6259 10.4594 76.009 10.4501L76.0053 10.4501C75.6226 10.4501 75.249 10.516 74.9028 10.6387L74.8972 10.6408C74.5557 10.7711 74.2511 10.9423 73.9905 11.176L73.8258 11.3236L74.3401 12.0619L74.5508 11.8687C74.7152 11.7179 74.9287 11.586 75.1772 11.4919C75.4343 11.3977 75.6984 11.3508 75.9707 11.3508C76.3791 11.3508 76.644 11.4532 76.8155 11.6198L76.819 11.6232C76.9834 11.7768 77.0851 12.029 77.0851 12.4248V12.5494H75.7548C75.1289 12.5494 74.6217 12.6648 74.2769 12.9691C73.9444 13.2626 73.7778 13.6456 73.7778 14.0973C73.7778 14.5644 73.967 14.9569 74.3171 15.2478L74.3199 15.25C74.6787 15.5396 75.1457 15.6713 75.6944 15.6713C76.1252 15.6713 76.5026 15.5861 76.8286 15.4167C76.9302 15.3639 77.0243 15.3033 77.111 15.2356ZM77.5341 14.5394V14.2087C77.4872 14.3114 77.4344 14.4084 77.3751 14.499L77.5341 14.5394ZM75.7721 13.3978C75.3467 13.3978 75.0864 13.4819 74.9437 13.5958C74.8066 13.7053 74.7355 13.8535 74.7355 14.0886C74.7355 14.3213 74.816 14.4815 74.9755 14.6053C75.1413 14.734 75.3907 14.8142 75.7635 14.8142C76.1003 14.8142 76.38 14.7296 76.6029 14.5846C76.8086 14.4507 76.9722 14.2486 77.0937 13.9685V13.3978H75.7721Z" fill="#2E3F57"/>
<path d="M83.7077 15.3864H83.276V14.2889C83.0946 14.6547 82.8356 14.9335 82.5074 15.1251C82.1793 15.3167 81.808 15.4213 81.3849 15.4213C80.9531 15.4213 80.5646 15.3167 80.2192 15.1164C79.8738 14.9161 79.5974 14.6373 79.3988 14.2802C79.2002 13.923 79.1052 13.5136 79.1052 13.0607C79.1052 12.6077 79.2002 12.1983 79.3988 11.8325C79.5974 11.4753 79.8651 11.1966 80.2192 10.9962C80.5646 10.7959 80.9531 10.7001 81.3849 10.7001C81.7994 10.7001 82.162 10.7959 82.4902 10.9962C82.8183 11.1879 83.0773 11.4666 83.2587 11.8151V8.77502H83.7077V15.3864ZM82.3606 14.7767C82.637 14.6112 82.8615 14.376 83.0255 14.0798C83.1896 13.7837 83.2673 13.444 83.2673 13.0607C83.2673 12.6774 83.1896 12.3464 83.0255 12.0415C82.8615 11.7454 82.6456 11.5102 82.3606 11.3447C82.0843 11.1792 81.7648 11.0921 81.4108 11.0921C81.0568 11.0921 80.7373 11.1792 80.4609 11.3447C80.1846 11.5102 79.9601 11.7454 79.796 12.0415C79.632 12.3377 79.5543 12.6774 79.5543 13.0607C79.5543 13.444 79.632 13.775 79.796 14.0798C79.9601 14.376 80.176 14.6112 80.4609 14.7767C80.7373 14.9422 81.0568 15.0293 81.4108 15.0293C81.7648 15.0293 82.0843 14.9422 82.3606 14.7767Z" fill="#2E3F57"/>
<path fill-rule="evenodd" clip-rule="evenodd" d="M83.0087 8.52502H83.9577V15.6364H83.026V15.0477C82.9073 15.1597 82.7763 15.2576 82.6335 15.341C82.2665 15.5554 81.8515 15.6713 81.3849 15.6713C80.9109 15.6713 80.4788 15.556 80.0937 15.3327C79.7096 15.1098 79.401 14.7984 79.1803 14.4017C78.9579 14.0017 78.8552 13.5492 78.8552 13.0607C78.8552 12.5716 78.9581 12.1203 79.1791 11.7132L79.1803 11.711C79.3996 11.3167 79.6989 11.0037 80.0949 10.7793C80.4827 10.5547 80.9151 10.4501 81.3849 10.4501C81.8398 10.4501 82.2478 10.5559 82.6184 10.7816C82.7604 10.8648 82.8907 10.9623 83.0087 11.0727V8.52502ZM83.4577 14.2729V13.6322C83.4132 13.8329 83.3429 14.0229 83.2442 14.201C83.2406 14.2075 83.237 14.2139 83.2334 14.2204L83.4577 14.2729ZM83.2241 11.8847C83.2309 11.8965 83.2376 11.9084 83.2442 11.9204L83.2457 11.9231C83.3433 12.1044 83.4132 12.2932 83.4577 12.4923V11.8275L83.2241 11.8847ZM81.4108 11.3421C81.0991 11.3421 80.8245 11.4184 80.5894 11.5591C80.3528 11.7009 80.1586 11.903 80.0147 12.1627C79.8747 12.4154 79.8043 12.7119 79.8043 13.0607C79.8043 13.4071 79.8738 13.6962 80.0155 13.96C80.1607 14.2217 80.3463 14.421 80.5865 14.5605L80.5894 14.5622C80.8245 14.703 81.0991 14.7793 81.4108 14.7793C81.7225 14.7793 81.9971 14.703 82.2322 14.5622C82.4688 14.4205 82.663 14.2183 82.8069 13.9587C82.9469 13.7059 83.0173 13.4095 83.0173 13.0607C83.0173 12.7142 82.9478 12.4252 82.8061 12.1613C82.6609 11.8997 82.4753 11.7004 82.2351 11.5609L82.2322 11.5592C81.9971 11.4184 81.7225 11.3421 81.4108 11.3421Z" fill="#2E3F57"/>
<path d="M88.4569 15.1251C88.1029 14.9248 87.8352 14.6461 87.628 14.2802C87.4294 13.9231 87.3258 13.5137 87.3258 13.0607C87.3258 12.6078 87.4294 12.2071 87.628 11.8412C87.8266 11.4841 88.1029 11.2053 88.4569 10.9963C88.811 10.7959 89.1995 10.6914 89.6313 10.6914C90.063 10.6914 90.4603 10.7959 90.8057 10.9963C91.1597 11.1966 91.4274 11.4754 91.6346 11.8412C91.8332 12.1984 91.9368 12.6078 91.9368 13.0607C91.9368 13.5137 91.8332 13.9144 91.6346 14.2802C91.436 14.6373 91.1597 14.9161 90.8057 15.1251C90.4516 15.3255 90.063 15.43 89.6313 15.43C89.1995 15.43 88.811 15.3255 88.4569 15.1251ZM90.5898 14.7767C90.8661 14.6112 91.0906 14.376 91.2547 14.0799C91.4188 13.7837 91.4965 13.444 91.4965 13.0607C91.4965 12.6774 91.4188 12.3464 91.2547 12.0416C91.0906 11.7454 90.8747 11.5102 90.5898 11.3447C90.3135 11.1792 89.994 11.0921 89.6399 11.0921C89.2859 11.0921 88.9664 11.1792 88.6901 11.3447C88.4138 11.5102 88.1893 11.7454 88.0252 12.0416C87.8611 12.3377 87.7834 12.6774 87.7834 13.0607C87.7834 13.444 87.8611 13.775 88.0252 14.0799C88.1893 14.376 88.4051 14.6112 88.6901 14.7767C88.9664 14.9422 89.2859 15.0293 89.6399 15.0293C89.994 15.0293 90.3048 14.9422 90.5898 14.7767Z" fill="#2E3F57"/>
<path fill-rule="evenodd" clip-rule="evenodd" d="M88.3338 10.7787C88.7258 10.5569 89.1568 10.4414 89.6313 10.4414C90.1038 10.4414 90.5444 10.556 90.9299 10.7794C91.3265 11.004 91.6249 11.3169 91.8521 11.718L91.8531 11.7197C92.074 12.1168 92.1868 12.5686 92.1868 13.0607C92.1868 13.5542 92.0733 13.9961 91.8543 14.3995L91.8531 14.4017C91.6321 14.7991 91.3236 15.1096 90.9328 15.3404L90.9288 15.3428C90.5368 15.5646 90.1058 15.68 89.6313 15.68C89.1568 15.68 88.7258 15.5645 88.3338 15.3427C87.9367 15.118 87.6379 14.8049 87.4105 14.4034L87.4095 14.4017C87.1886 14.0046 87.0758 13.5528 87.0758 13.0607C87.0758 12.5672 87.1893 12.1254 87.4083 11.7219L87.4095 11.7197C87.6304 11.3224 87.9389 11.0118 88.3298 10.781L88.3338 10.7787ZM89.6399 11.3421C89.3282 11.3421 89.0536 11.4184 88.8185 11.5592C88.5819 11.7009 88.3877 11.9031 88.2439 12.1627C88.1039 12.4154 88.0334 12.7119 88.0334 13.0607C88.0334 13.4072 88.1029 13.6962 88.2446 13.9601C88.3898 14.2217 88.5754 14.421 88.8156 14.5605L88.8186 14.5622C89.0536 14.703 89.3282 14.7793 89.6399 14.7793C89.9492 14.7793 90.2163 14.7042 90.4628 14.5614C90.6988 14.4197 90.8925 14.2178 91.036 13.9587C91.176 13.706 91.2465 13.4095 91.2465 13.0607C91.2465 12.7143 91.177 12.4252 91.0353 12.1614C90.8901 11.8997 90.7045 11.7004 90.4642 11.5609L90.4613 11.5592C90.2262 11.4184 89.9516 11.3421 89.6399 11.3421Z" fill="#2E3F57"/>
<path d="M96.9279 11.214C97.2647 11.5538 97.4287 12.0416 97.4287 12.6774V15.3952H96.9883V12.7123C96.9883 12.1896 96.8588 11.7889 96.5998 11.5189C96.3407 11.2489 95.9694 11.1095 95.5031 11.1095C94.9591 11.1095 94.536 11.275 94.2251 11.5973C93.9143 11.9196 93.7588 12.3639 93.7588 12.9126V15.3865H93.3185V10.735H93.7416V11.7367C93.897 11.4144 94.1388 11.1531 94.4496 10.9702C94.7605 10.7872 95.1404 10.6914 95.5636 10.6914C96.1335 10.7088 96.5911 10.8743 96.9279 11.214Z" fill="#2E3F57"/>
<path fill-rule="evenodd" clip-rule="evenodd" d="M93.9916 10.996C94.0926 10.9057 94.2034 10.825 94.3229 10.7547C94.678 10.5457 95.1031 10.4414 95.5636 10.4414H95.5712C96.1865 10.4602 96.712 10.6411 97.1054 11.038C97.5032 11.4393 97.6787 11.9997 97.6787 12.6774V15.6452H96.7383V12.7123C96.7383 12.2276 96.6183 11.8993 96.4194 11.692C96.2182 11.4823 95.9186 11.3595 95.5031 11.3595C95.0138 11.3595 94.6604 11.5062 94.4051 11.7709C94.1495 12.0358 94.0088 12.4119 94.0088 12.9126V15.6365H93.0685V10.485H93.9916V10.996ZM93.5685 11.7543L93.7679 11.7998C93.6773 11.9642 93.6112 12.144 93.5685 12.3369V11.7543Z" fill="#2E3F57"/>
<path d="M103.801 15.099C103.689 15.2035 103.551 15.2906 103.378 15.3429C103.214 15.3951 103.033 15.43 102.851 15.43C102.454 15.43 102.143 15.3167 101.928 15.099C101.712 14.8725 101.599 14.5676 101.599 14.1669V11.1269H100.753V10.7436H101.599V9.72448H102.04V10.7436H103.508V11.1269H102.04V14.1147C102.04 14.4195 102.109 14.646 102.256 14.8028C102.402 14.9596 102.61 15.038 102.895 15.038C103.18 15.038 103.421 14.9509 103.611 14.7767L103.801 15.099Z" fill="#2E3F57"/>
<path fill-rule="evenodd" clip-rule="evenodd" d="M101.349 9.47448H102.29V10.4936H103.758V11.3769H102.29V14.1147C102.29 14.3852 102.351 14.5391 102.438 14.6319C102.525 14.7248 102.658 14.788 102.895 14.788C103.125 14.788 103.304 14.7191 103.442 14.5924L103.67 14.3837L104.119 15.1451L103.972 15.2819C103.835 15.4095 103.664 15.5172 103.452 15.5816C103.27 15.6396 103.063 15.68 102.851 15.68C102.407 15.68 102.025 15.552 101.75 15.275L101.747 15.2715C101.477 14.989 101.349 14.6173 101.349 14.1669V11.3769H100.503V10.4936H101.349V9.47448Z" fill="#2E3F57"/>
<path d="M108.646 11.214C108.982 11.5537 109.146 12.0415 109.146 12.6774V15.3951H108.706V12.7123C108.706 12.1896 108.576 11.7889 108.317 11.5189C108.058 11.2489 107.687 11.1095 107.221 11.1095C106.677 11.1095 106.254 11.275 105.943 11.5973C105.632 11.9196 105.477 12.3638 105.477 12.9126V15.3864H105.036V8.78374H105.477V11.7105C105.632 11.3882 105.874 11.1443 106.185 10.9701C106.495 10.7959 106.867 10.7088 107.29 10.7088C107.86 10.7088 108.317 10.8743 108.646 11.214Z" fill="#2E3F57"/>
<path fill-rule="evenodd" clip-rule="evenodd" d="M104.786 8.53374H105.727V10.985C105.829 10.8973 105.942 10.8197 106.062 10.752C106.417 10.5531 106.832 10.4588 107.29 10.4588C107.909 10.4588 108.438 10.6399 108.824 11.0392C109.221 11.4403 109.396 12.0003 109.396 12.6774V15.6451H108.456V12.7123C108.456 12.2276 108.336 11.8993 108.137 11.692C107.936 11.4823 107.636 11.3595 107.221 11.3595C106.731 11.3595 106.378 11.5061 106.123 11.7708C105.867 12.0358 105.727 12.4119 105.727 12.9126V15.6364H104.786V8.53374ZM105.286 11.7241V12.3369C105.331 12.1335 105.402 11.9447 105.501 11.7732L105.286 11.7241Z" fill="#2E3F57"/>
<path d="M114.871 13.1739H110.908C110.917 13.5398 111.012 13.8621 111.184 14.1408C111.357 14.4196 111.59 14.6373 111.875 14.7941C112.169 14.9509 112.497 15.0293 112.859 15.0293C113.162 15.0293 113.438 14.9771 113.697 14.8638C113.956 14.7506 114.163 14.5938 114.336 14.376L114.595 14.6722C114.396 14.9161 114.146 15.099 113.844 15.2297C113.542 15.3603 113.213 15.4213 112.859 15.4213C112.402 15.4213 111.987 15.3168 111.633 15.1164C111.271 14.9161 110.994 14.6373 110.787 14.2802C110.58 13.9231 110.485 13.5137 110.485 13.0607C110.485 12.6078 110.58 12.2071 110.77 11.8412C110.96 11.4841 111.227 11.2053 111.556 10.9963C111.892 10.7959 112.264 10.6914 112.687 10.6914C113.101 10.6914 113.481 10.7872 113.809 10.9876C114.137 11.1879 114.405 11.4667 114.595 11.8238C114.785 12.1809 114.88 12.5816 114.88 13.0346L114.871 13.1739ZM111.806 11.3186C111.547 11.4667 111.34 11.667 111.184 11.937C111.029 12.1984 110.942 12.5032 110.917 12.8342H114.448C114.431 12.5032 114.345 12.2071 114.181 11.9457C114.025 11.6844 113.809 11.4841 113.55 11.3273C113.291 11.1792 112.998 11.1008 112.678 11.1008C112.359 11.1008 112.065 11.1705 111.806 11.3186Z" fill="#2E3F57"/>
<path fill-rule="evenodd" clip-rule="evenodd" d="M111.428 10.7814C111.804 10.5577 112.219 10.4414 112.687 10.4414C113.14 10.4414 113.567 10.5466 113.94 10.7742C114.306 10.9976 114.605 11.3093 114.816 11.7064C115.027 12.1035 115.13 12.5452 115.13 13.0346V13.0423L115.106 13.4239H111.181C111.216 13.6417 111.289 13.836 111.397 14.0092C111.546 14.2499 111.746 14.4377 111.994 14.5744C112.248 14.7096 112.535 14.7793 112.859 14.7793C113.132 14.7793 113.373 14.7325 113.597 14.6347C113.82 14.5372 113.994 14.405 114.14 14.2207L114.327 13.9855L114.922 14.6664L114.789 14.83C114.563 15.108 114.279 15.3141 113.943 15.4591C113.605 15.6052 113.243 15.6713 112.859 15.6713C112.364 15.6713 111.906 15.558 111.511 15.3346C111.107 15.1112 110.799 14.7995 110.571 14.4057C110.338 14.0037 110.235 13.5492 110.235 13.0607C110.235 12.5708 110.338 12.1302 110.548 11.726L110.549 11.7238C110.76 11.3265 111.059 11.0164 111.421 10.7854L111.428 10.7814ZM112.678 11.3508C112.396 11.3508 112.146 11.4121 111.93 11.5356C111.708 11.6625 111.533 11.8316 111.401 12.0618L111.399 12.0648C111.308 12.2182 111.243 12.3924 111.203 12.5842H114.167C114.13 12.3984 114.064 12.2307 113.969 12.0787L113.966 12.0736C113.835 11.8541 113.652 11.6818 113.424 11.5428C113.204 11.418 112.954 11.3508 112.678 11.3508Z" fill="#2E3F57"/>
<path d="M47.199 29.1668H41.923L40.8781 31.6319H38.8575L43.6068 20.9788H45.541L50.3076 31.6319H48.2524L47.199 29.1668ZM46.5513 27.6163L44.5567 22.9648L42.5792 27.6163H46.5513Z" fill="#2E3F57"/>
<path d="M58.0358 23.9316C58.6576 24.28 59.1411 24.7591 59.4952 25.395C59.8492 26.0221 60.0219 26.7451 60.0219 27.5726C60.0219 28.3914 59.8492 29.1231 59.4952 29.759C59.1411 30.3949 58.6576 30.8827 58.0358 31.2311C57.4141 31.5796 56.7147 31.7451 55.9289 31.7451C54.8409 31.7451 53.986 31.3792 53.347 30.6475V34.5847H51.4646V23.5048H53.2607V24.5675C53.5715 24.1842 53.9601 23.8967 54.4178 23.6964C54.8754 23.5048 55.3763 23.4089 55.9375 23.4089C56.7147 23.4176 57.4141 23.5919 58.0358 23.9316ZM57.4314 29.4106C57.8804 28.9402 58.1049 28.3305 58.1049 27.5726C58.1049 26.8148 57.8804 26.1964 57.4314 25.7347C56.9824 25.2643 56.4125 25.0378 55.7217 25.0378C55.2726 25.0378 54.8582 25.1424 54.5041 25.3514C54.1415 25.5605 53.8565 25.8566 53.6406 26.2399C53.4334 26.6232 53.3211 27.0674 53.3211 27.5814C53.3211 28.0866 53.4247 28.5308 53.6406 28.9228C53.8479 29.3061 54.1415 29.6022 54.5041 29.8113C54.8668 30.0203 55.2726 30.1249 55.7217 30.1249C56.4125 30.1162 56.9824 29.881 57.4314 29.4106Z" fill="#2E3F57"/>
<path d="M68.3806 23.9316C69.0023 24.28 69.4858 24.7591 69.8399 25.395C70.1939 26.0221 70.3666 26.7451 70.3666 27.5726C70.3666 28.3914 70.1939 29.1231 69.8399 29.759C69.4858 30.3949 69.0023 30.8827 68.3806 31.2311C67.7588 31.5796 67.0594 31.7451 66.2736 31.7451C65.1856 31.7451 64.3307 31.3792 63.6918 30.6475V34.5847H61.8093V23.5048H63.6054V24.5675C63.9163 24.1842 64.3048 23.8967 64.7625 23.6964C65.2202 23.5048 65.721 23.4089 66.2823 23.4089C67.0594 23.4176 67.7675 23.5919 68.3806 23.9316ZM67.7761 29.4106C68.2251 28.9402 68.4496 28.3305 68.4496 27.5726C68.4496 26.8148 68.2251 26.1964 67.7761 25.7347C67.3271 25.2643 66.7572 25.0378 66.0664 25.0378C65.6174 25.0378 65.2029 25.1424 64.8488 25.3514C64.4862 25.5605 64.2012 25.8566 63.9853 26.2399C63.7781 26.6232 63.6659 27.0674 63.6659 27.5814C63.6659 28.0866 63.7695 28.5308 63.9853 28.9228C64.1926 29.3061 64.4862 29.6022 64.8488 29.8113C65.2115 30.0203 65.6174 30.1249 66.0664 30.1249C66.7572 30.1162 67.3357 29.881 67.7761 29.4106Z" fill="#2E3F57"/>
<path d="M77.4129 31.4315C76.653 31.1964 76.0572 30.8915 75.6082 30.4995L76.2903 28.9664C76.7221 29.3148 77.2488 29.5936 77.8792 29.8114C78.5095 30.0291 79.1399 30.1424 79.7702 30.1424C80.556 30.1424 81.1432 30.0117 81.5231 29.7591C81.9117 29.5065 82.1017 29.1668 82.1017 28.7574C82.1017 28.4525 81.9894 28.1999 81.7736 28.0082C81.5577 27.8079 81.2814 27.6598 80.9532 27.5466C80.6251 27.4333 80.1674 27.3114 79.5975 27.1633C78.7945 26.9717 78.1382 26.78 77.646 26.5884C77.1452 26.3968 76.7221 26.0919 76.368 25.6825C76.014 25.2731 75.8327 24.7156 75.8327 24.0188C75.8327 23.4264 75.9881 22.8951 76.3076 22.416C76.6271 21.9369 77.102 21.5536 77.741 21.2662C78.38 20.9787 79.1571 20.8394 80.0897 20.8394C80.7373 20.8394 81.3677 20.9178 81.9894 21.0833C82.6111 21.2488 83.1465 21.4752 83.6042 21.7801L82.9825 23.3132C82.5162 23.0432 82.0412 22.8341 81.5318 22.686C81.0309 22.5467 80.5387 22.477 80.0725 22.477C79.2953 22.477 78.7254 22.6076 78.3455 22.8689C77.9655 23.1303 77.7842 23.4787 77.7842 23.9229C77.7842 24.2278 77.8878 24.4717 78.1123 24.6721C78.3282 24.8637 78.6045 25.0205 78.9326 25.125C79.2608 25.2383 79.7184 25.3602 80.2883 25.5083C81.0741 25.6912 81.7131 25.8828 82.2226 26.0745C82.7234 26.2748 83.1551 26.571 83.5092 26.9804C83.8632 27.3898 84.0446 27.9298 84.0446 28.6267C84.0446 29.219 83.8891 29.7504 83.5696 30.2208C83.2501 30.6998 82.7752 31.0744 82.1276 31.3619C81.48 31.6493 80.7028 31.7887 79.7789 31.7887C78.9585 31.7887 78.1728 31.6667 77.4129 31.4315Z" fill="#2E3F57"/>
<path d="M90.6503 31.1964C90.4258 31.3793 90.1581 31.5187 89.8473 31.6058C89.5278 31.6929 89.1996 31.7452 88.8456 31.7452C87.9648 31.7452 87.274 31.51 86.7905 31.0483C86.3069 30.5779 86.0651 29.8985 86.0651 29.01V25.0989H84.7354V23.5658H86.0651V21.7104H87.9476V23.5658H90.1063V25.0902H87.9476V28.9577C87.9476 29.3497 88.0426 29.6546 88.2325 29.8637C88.4225 30.0727 88.6988 30.1772 89.0615 30.1772C89.4846 30.1772 89.8386 30.064 90.115 29.8462L90.6503 31.1964Z" fill="#2E3F57"/>
<path d="M93.353 31.205C92.6967 30.8479 92.1873 30.3514 91.8246 29.7242C91.4533 29.0883 91.272 28.3741 91.272 27.5727C91.272 26.7713 91.4533 26.057 91.8246 25.4298C92.1873 24.8027 92.7054 24.3062 93.353 23.9577C94.0093 23.6006 94.7432 23.4264 95.5549 23.4264C96.3752 23.4264 97.1179 23.6006 97.7741 23.9577C98.4304 24.3149 98.9398 24.8027 99.3025 25.4298C99.6652 26.057 99.8552 26.7713 99.8552 27.5727C99.8552 28.3741 99.6738 29.0883 99.3025 29.7242C98.9312 30.3601 98.4217 30.8566 97.7741 31.205C97.1179 31.5622 96.3839 31.7364 95.5549 31.7364C94.7346 31.7364 94.0006 31.5622 93.353 31.205ZM97.2733 29.4106C97.7223 28.9402 97.9555 28.3305 97.9555 27.5727C97.9555 26.8148 97.7309 26.1964 97.2733 25.7347C96.8243 25.2643 96.2457 25.0379 95.5549 25.0379C94.8641 25.0379 94.2942 25.2731 93.8452 25.7347C93.3962 26.2051 93.1717 26.8148 93.1717 27.5727C93.1717 28.3305 93.3962 28.949 93.8452 29.4106C94.2942 29.881 94.8641 30.1075 95.5549 30.1075C96.2457 30.1162 96.8243 29.881 97.2733 29.4106Z" fill="#2E3F57"/>
<path d="M106.323 23.4177V25.2295C106.159 25.2034 106.012 25.186 105.882 25.186C105.148 25.186 104.579 25.4038 104.164 25.8306C103.75 26.2661 103.542 26.8846 103.542 27.6947V31.6319H101.66V23.5048H103.456V24.6895C104 23.8445 104.958 23.4177 106.323 23.4177Z" fill="#2E3F57"/>
<path d="M115.39 28.1824H109.069C109.181 28.7835 109.466 29.2538 109.932 29.6023C110.399 29.9507 110.977 30.1249 111.677 30.1249C112.557 30.1249 113.291 29.8287 113.861 29.2451L114.872 30.4124C114.509 30.8479 114.051 31.1789 113.499 31.4054C112.946 31.6318 112.324 31.7364 111.625 31.7364C110.744 31.7364 109.958 31.5622 109.285 31.205C108.611 30.8479 108.093 30.3514 107.722 29.7242C107.35 29.0883 107.169 28.3741 107.169 27.5727C107.169 26.78 107.35 26.0657 107.704 25.4386C108.058 24.8027 108.559 24.3062 109.19 23.9577C109.82 23.6006 110.537 23.4264 111.331 23.4264C112.117 23.4264 112.816 23.6006 113.438 23.949C114.06 24.2975 114.543 24.794 114.889 25.4211C115.234 26.057 115.407 26.7887 115.407 27.6162C115.416 27.7469 115.407 27.9385 115.39 28.1824ZM109.811 25.4821C109.397 25.8392 109.138 26.3183 109.052 26.9194H113.619C113.542 26.327 113.291 25.8567 112.877 25.4908C112.462 25.125 111.953 24.9421 111.34 24.9421C110.744 24.9421 110.234 25.1163 109.811 25.4821Z" fill="#2E3F57"/>
</svg>
