<svg width="162" height="50" viewBox="0 0 162 50" fill="none" xmlns="http://www.w3.org/2000/svg">
<rect width="162" height="50" rx="8" fill="black"/>
<path d="M14.7202 20.4417C12.0946 25.0583 13.7625 32.0595 16.6679 36.306C18.1205 38.4292 19.584 40.3347 21.5962 40.3347C21.6392 40.3347 21.6715 40.3347 21.7145 40.3347C22.6615 40.302 23.3394 39.9971 24.0065 39.714C24.749 39.3983 25.513 39.0607 26.7182 39.0607C27.8588 39.0607 28.5905 39.3765 29.3007 39.6923C30.0002 39.9971 30.7104 40.3129 31.7757 40.2911C34.0461 40.2476 35.4342 38.1897 36.6609 36.3822C37.9415 34.4876 38.5871 32.6475 38.8023 31.9507L38.8131 31.918C38.8561 31.7982 38.7915 31.6567 38.6732 31.6022C38.6732 31.6022 38.6624 31.5913 38.6516 31.5913C38.2535 31.428 34.7563 29.8601 34.7133 25.5701C34.681 22.0858 37.3389 20.2457 37.8769 19.919L37.8984 19.9082C37.9522 19.8755 37.9953 19.8102 38.006 19.7448C38.0168 19.6795 38.006 19.6033 37.963 19.5488C36.1229 16.8267 33.3144 16.4239 32.1846 16.3694C32.0231 16.3477 31.851 16.3477 31.6788 16.3477C30.3445 16.3477 29.0748 16.8594 28.0525 17.2623C27.3423 17.5454 26.7397 17.7849 26.3093 17.7849C25.8358 17.7849 25.2225 17.5345 24.5123 17.2514C23.5654 16.8703 22.4785 16.4348 21.3379 16.4348C21.3056 16.4348 21.2841 16.4348 21.2626 16.4348C18.6155 16.4783 16.1083 18.0136 14.7202 20.4417Z" fill="white"/>
<path d="M32.1844 8.87842C30.5811 8.94375 28.6549 9.94548 27.5036 11.3065C26.5244 12.4498 25.5667 14.3661 25.8249 16.2934C25.8357 16.4131 25.9433 16.5111 26.0617 16.522C26.1693 16.5329 26.2769 16.5329 26.3952 16.5329C27.9663 16.5329 29.6557 15.651 30.8178 14.2355C32.0338 12.7438 32.6471 10.8165 32.4642 9.10707C32.4427 8.97641 32.3243 8.87842 32.1844 8.87842Z" fill="white"/>
<path d="M50.6719 11.4478H53.7171C54.5134 11.4478 55.2236 11.6111 55.8477 11.9486C56.4718 12.2862 56.9453 12.7435 57.2896 13.3314C57.6339 13.9194 57.8061 14.5945 57.8061 15.3349C57.8061 16.0862 57.6339 16.7504 57.2896 17.3383C56.9453 17.9263 56.461 18.3945 55.8477 18.7212C55.2236 19.0587 54.5134 19.222 53.7171 19.222H50.6719V11.4478ZM53.6741 18.7321C54.3843 18.7321 55.0084 18.5905 55.5572 18.3074C56.0952 18.0243 56.5148 17.6214 56.8161 17.1097C57.1067 16.5979 57.2573 16.01 57.2573 15.3567C57.2573 14.6925 57.1067 14.1154 56.8161 13.6037C56.5256 13.0919 56.1059 12.689 55.5572 12.4059C55.0191 12.1228 54.3843 11.9813 53.6741 11.9813H51.2314V18.7429H53.6741V18.7321Z" fill="white"/>
<path d="M60.3559 18.9064C59.9147 18.656 59.5812 18.3076 59.3229 17.8503C59.0754 17.4038 58.9463 16.8921 58.9463 16.3259C58.9463 15.7597 59.0754 15.2588 59.3229 14.8015C59.5704 14.3551 59.9147 14.0067 60.3559 13.7453C60.7971 13.4949 61.2813 13.3643 61.8194 13.3643C62.3574 13.3643 62.8524 13.4949 63.2828 13.7453C63.724 13.9958 64.0575 14.3442 64.3158 14.8015C64.5633 15.2479 64.6924 15.7597 64.6924 16.3259C64.6924 16.8921 64.5633 17.393 64.3158 17.8503C64.0683 18.2967 63.724 18.6451 63.2828 18.9064C62.8416 19.1569 62.3574 19.2875 61.8194 19.2875C61.2813 19.2875 60.7971 19.1569 60.3559 18.9064ZM63.0138 18.4709C63.3581 18.264 63.6379 17.97 63.8423 17.5998C64.0468 17.2296 64.1436 16.805 64.1436 16.3259C64.1436 15.8468 64.0468 15.433 63.8423 15.052C63.6379 14.6817 63.3689 14.3878 63.0138 14.1809C62.6694 13.974 62.2713 13.8651 61.8301 13.8651C61.3889 13.8651 60.9908 13.974 60.6465 14.1809C60.3021 14.3878 60.0223 14.6817 59.8179 15.052C59.6134 15.4222 59.5166 15.8468 59.5166 16.3259C59.5166 16.805 59.6134 17.2187 59.8179 17.5998C60.0223 17.97 60.2914 18.264 60.6465 18.4709C60.9908 18.6778 61.3889 18.7867 61.8301 18.7867C62.2713 18.7867 62.6587 18.6778 63.0138 18.4709Z" fill="white"/>
<path d="M74.4416 13.4297L72.2679 19.2441H71.7514L69.8145 14.2028L67.8669 19.2441H67.3611L65.1875 13.4297H65.7148L67.6301 18.6125L69.5886 13.4297H70.062L72.0097 18.6017L73.9466 13.4297H74.4416Z" fill="white"/>
<path d="M80.2313 14.0176C80.651 14.4422 80.8554 15.052 80.8554 15.8468V19.244H80.3066V15.8904C80.3066 15.2371 80.1452 14.7362 79.8224 14.3987C79.4996 14.0611 79.0369 13.8869 78.4558 13.8869C77.7779 13.8869 77.2506 14.0938 76.8633 14.4966C76.4759 14.8995 76.2822 15.4548 76.2822 16.1408V19.2331H75.7334V13.4187H76.2607V14.6709C76.4543 14.268 76.7556 13.9413 77.143 13.7127C77.5304 13.484 78.0039 13.3643 78.5311 13.3643C79.2413 13.386 79.8116 13.5929 80.2313 14.0176Z" fill="white"/>
<path d="M83.1152 10.9795H83.664V19.2329H83.1152V10.9795Z" fill="white"/>
<path d="M86.7632 18.9064C86.322 18.656 85.9884 18.3076 85.7301 17.8503C85.4826 17.4038 85.3535 16.8921 85.3535 16.3259C85.3535 15.7597 85.4826 15.2588 85.7301 14.8015C85.9776 14.3551 86.322 14.0067 86.7632 13.7453C87.2043 13.4949 87.6886 13.3643 88.2266 13.3643C88.7646 13.3643 89.2596 13.4949 89.69 13.7453C90.1312 13.9958 90.4648 14.3442 90.723 14.8015C90.9705 15.2479 91.0996 15.7597 91.0996 16.3259C91.0996 16.8921 90.9705 17.393 90.723 17.8503C90.4755 18.2967 90.1312 18.6451 89.69 18.9064C89.2488 19.1569 88.7646 19.2875 88.2266 19.2875C87.6886 19.2875 87.2043 19.1569 86.7632 18.9064ZM89.421 18.4709C89.7653 18.264 90.0451 17.97 90.2496 17.5998C90.454 17.2296 90.5509 16.805 90.5509 16.3259C90.5509 15.8468 90.454 15.433 90.2496 15.052C90.0451 14.6817 89.7761 14.3878 89.421 14.1809C89.0767 13.974 88.6785 13.8651 88.2373 13.8651C87.7962 13.8651 87.398 13.974 87.0537 14.1809C86.7093 14.3878 86.4296 14.6817 86.2251 15.052C86.0207 15.4222 85.9238 15.8468 85.9238 16.3259C85.9238 16.805 86.0207 17.2187 86.2251 17.5998C86.4296 17.97 86.6986 18.264 87.0537 18.4709C87.398 18.6778 87.7962 18.7867 88.2373 18.7867C88.6785 18.7867 89.0659 18.6778 89.421 18.4709Z" fill="white"/>
<path d="M96.3615 13.9303C96.7381 14.3005 96.9318 14.834 96.9318 15.5527V19.2329H96.4046V18.1985C96.2216 18.5361 95.9526 18.8083 95.5975 18.9934C95.2424 19.1785 94.8228 19.2765 94.3278 19.2765C93.6929 19.2765 93.1871 19.124 92.8105 18.8192C92.4447 18.5143 92.251 18.1114 92.251 17.6215C92.251 17.1424 92.4231 16.7504 92.7675 16.4455C93.1118 16.1406 93.6499 15.9991 94.4031 15.9991H96.3723V15.5309C96.3723 14.9865 96.2324 14.5727 95.9419 14.3005C95.6513 14.0174 95.2317 13.8759 94.6721 13.8759C94.2955 13.8759 93.9296 13.9412 93.5745 14.0718C93.2302 14.2025 92.9289 14.3876 92.6922 14.6054L92.4124 14.2025C92.7029 13.9412 93.0473 13.7452 93.4454 13.5928C93.8435 13.4512 94.274 13.375 94.7151 13.375C95.4361 13.3859 95.9849 13.571 96.3615 13.9303ZM95.6298 18.4925C95.9634 18.2748 96.2109 17.9481 96.383 17.5235V16.4346H94.4246C93.8651 16.4346 93.4562 16.5435 93.1979 16.7504C92.9396 16.9573 92.8213 17.2404 92.8213 17.6106C92.8213 17.9916 92.9612 18.2856 93.2409 18.5034C93.5207 18.7212 93.9081 18.8301 94.4139 18.8301C94.8873 18.8301 95.2962 18.7103 95.6298 18.4925Z" fill="white"/>
<path d="M104.314 10.9796V19.233H103.775V17.8611C103.55 18.3184 103.227 18.6668 102.818 18.9064C102.409 19.1459 101.946 19.2766 101.419 19.2766C100.881 19.2766 100.397 19.1459 99.9662 18.8955C99.5358 18.645 99.1915 18.2966 98.944 17.8502C98.6965 17.4038 98.5781 16.892 98.5781 16.3258C98.5781 15.7596 98.6965 15.2479 98.944 14.7906C99.1915 14.3441 99.5251 13.9957 99.9662 13.7453C100.397 13.4948 100.881 13.3751 101.419 13.3751C101.935 13.3751 102.387 13.4948 102.796 13.7453C103.205 13.9848 103.528 14.3333 103.754 14.7688V10.9688H104.314V10.9796ZM102.635 18.4708C102.979 18.2639 103.259 17.97 103.463 17.5998C103.668 17.2296 103.765 16.8049 103.765 16.3258C103.765 15.8467 103.668 15.433 103.463 15.0519C103.259 14.6817 102.99 14.3877 102.635 14.1808C102.291 13.9739 101.892 13.8651 101.451 13.8651C101.01 13.8651 100.612 13.9739 100.268 14.1808C99.9232 14.3877 99.6434 14.6817 99.439 15.0519C99.2345 15.4221 99.1377 15.8467 99.1377 16.3258C99.1377 16.8049 99.2345 17.2187 99.439 17.5998C99.6434 17.97 99.9124 18.2639 100.268 18.4708C100.612 18.6777 101.01 18.7866 101.451 18.7866C101.892 18.7866 102.291 18.6777 102.635 18.4708Z" fill="white"/>
<path d="M110.232 18.9064C109.791 18.656 109.457 18.3076 109.199 17.8503C108.951 17.4038 108.822 16.8921 108.822 16.3259C108.822 15.7597 108.951 15.2588 109.199 14.8015C109.446 14.3551 109.791 14.0067 110.232 13.7453C110.673 13.4949 111.157 13.3643 111.695 13.3643C112.233 13.3643 112.728 13.4949 113.159 13.7453C113.6 13.9958 113.934 14.3442 114.192 14.8015C114.439 15.2479 114.568 15.7597 114.568 16.3259C114.568 16.8921 114.439 17.393 114.192 17.8503C113.944 18.2967 113.6 18.6451 113.159 18.9064C112.718 19.1569 112.233 19.2875 111.695 19.2875C111.157 19.2875 110.673 19.1569 110.232 18.9064ZM112.89 18.4709C113.234 18.264 113.514 17.97 113.718 17.5998C113.923 17.2296 114.02 16.805 114.02 16.3259C114.02 15.8468 113.923 15.433 113.718 15.052C113.514 14.6817 113.245 14.3878 112.89 14.1809C112.545 13.974 112.147 13.8651 111.706 13.8651C111.265 13.8651 110.867 13.974 110.522 14.1809C110.178 14.3878 109.898 14.6817 109.694 15.052C109.489 15.4222 109.393 15.8468 109.393 16.3259C109.393 16.805 109.489 17.2187 109.694 17.5998C109.898 17.97 110.167 18.264 110.522 18.4709C110.867 18.6778 111.265 18.7867 111.706 18.7867C112.147 18.7867 112.535 18.6778 112.89 18.4709Z" fill="white"/>
<path d="M120.788 14.0176C121.208 14.4422 121.412 15.052 121.412 15.8468V19.244H120.863V15.8904C120.863 15.2371 120.702 14.7362 120.379 14.3987C120.056 14.0611 119.594 13.8869 119.012 13.8869C118.335 13.8869 117.807 14.0938 117.42 14.4966C117.033 14.8995 116.839 15.4548 116.839 16.1408V19.2331H116.29V13.4187H116.817V14.6709C117.011 14.268 117.312 13.9413 117.7 13.7127C118.087 13.484 118.561 13.3643 119.088 13.3643C119.798 13.386 120.368 13.5929 120.788 14.0176Z" fill="white"/>
<path d="M129.353 18.8739C129.213 19.0045 129.041 19.1134 128.826 19.1787C128.621 19.2441 128.395 19.2876 128.17 19.2876C127.675 19.2876 127.287 19.1461 127.018 18.8739C126.749 18.5908 126.609 18.2097 126.609 17.7088V13.9088H125.555V13.4297H126.609V12.1558H127.158V13.4297H128.987V13.9088H127.158V17.6435C127.158 18.0246 127.244 18.3077 127.427 18.5037C127.61 18.6997 127.868 18.7977 128.223 18.7977C128.578 18.7977 128.88 18.6888 129.116 18.471L129.353 18.8739Z" fill="white"/>
<path d="M135.39 14.0173C135.809 14.442 136.014 15.0517 136.014 15.8466V19.2437H135.465V15.8901C135.465 15.2368 135.303 14.736 134.981 14.3984C134.658 14.0609 134.195 13.8867 133.614 13.8867C132.936 13.8867 132.409 14.0936 132.021 14.4964C131.634 14.8993 131.44 15.4546 131.44 16.1406V19.2329H130.892V10.9795H131.44V14.638C131.634 14.2351 131.935 13.9302 132.323 13.7125C132.71 13.4947 133.173 13.3858 133.7 13.3858C134.41 13.3858 134.981 13.5927 135.39 14.0173Z" fill="white"/>
<path d="M143.148 16.4674H138.209C138.22 16.9247 138.338 17.3276 138.553 17.676C138.768 18.0245 139.059 18.2967 139.414 18.4927C139.78 18.6887 140.189 18.7867 140.641 18.7867C141.017 18.7867 141.362 18.7213 141.685 18.5798C142.007 18.4382 142.266 18.2422 142.481 17.97L142.804 18.3402C142.556 18.6451 142.244 18.8738 141.867 19.0371C141.491 19.2004 141.082 19.2766 140.641 19.2766C140.07 19.2766 139.554 19.146 139.113 18.8955C138.661 18.6451 138.317 18.2967 138.058 17.8503C137.8 17.4038 137.682 16.8921 137.682 16.3259C137.682 15.7597 137.8 15.2588 138.037 14.8015C138.273 14.3551 138.607 14.0067 139.016 13.7453C139.436 13.4949 139.898 13.3643 140.426 13.3643C140.942 13.3643 141.416 13.484 141.824 13.7345C142.233 13.9849 142.567 14.3333 142.804 14.7797C143.04 15.2262 143.159 15.727 143.159 16.2932L143.148 16.4674ZM139.328 14.1482C139.005 14.3333 138.747 14.5838 138.553 14.9213C138.36 15.2479 138.252 15.629 138.22 16.0428H142.621C142.599 15.629 142.492 15.2588 142.287 14.9322C142.093 14.6055 141.824 14.3551 141.502 14.1591C141.179 13.974 140.813 13.876 140.415 13.876C140.017 13.876 139.651 13.9631 139.328 14.1482Z" fill="white"/>
<path d="M58.8175 36.4587H52.2428L50.9408 39.5401H48.4229L54.3412 26.2236H56.7515L62.6913 39.5401H60.1303L58.8175 36.4587ZM58.0105 34.5205L55.5248 28.7062L53.0606 34.5205H58.0105Z" fill="white"/>
<path d="M72.3216 29.9145C73.0964 30.3501 73.6989 30.9489 74.1401 31.7438C74.5813 32.5277 74.7965 33.4315 74.7965 34.4659C74.7965 35.4894 74.5813 36.404 74.1401 37.1988C73.6989 37.9937 73.0964 38.6034 72.3216 39.039C71.5468 39.4745 70.6752 39.6814 69.696 39.6814C68.3402 39.6814 67.2749 39.2241 66.4786 38.3095V43.231H64.1328V29.381H66.371V30.7094C66.7584 30.2303 67.2426 29.871 67.8129 29.6206C68.3832 29.381 69.0073 29.2612 69.7068 29.2612C70.6752 29.2721 71.5468 29.4899 72.3216 29.9145ZM71.5684 36.7633C72.1279 36.1753 72.4077 35.4132 72.4077 34.4659C72.4077 33.5186 72.1279 32.7455 71.5684 32.1684C71.0088 31.5805 70.2986 31.2974 69.4378 31.2974C68.8782 31.2974 68.3617 31.428 67.9205 31.6893C67.4686 31.9507 67.1135 32.3209 66.8445 32.7999C66.5862 33.279 66.4463 33.8343 66.4463 34.4768C66.4463 35.1083 66.5755 35.6636 66.8445 36.1536C67.1027 36.6326 67.4686 37.0028 67.9205 37.2642C68.3725 37.5255 68.8782 37.6562 69.4378 37.6562C70.2986 37.6453 71.0088 37.3513 71.5684 36.7633Z" fill="white"/>
<path d="M85.2132 29.9145C85.9879 30.3501 86.5905 30.9489 87.0317 31.7438C87.4729 32.5277 87.6881 33.4315 87.6881 34.4659C87.6881 35.4894 87.4729 36.404 87.0317 37.1988C86.5905 37.9937 85.9879 38.6034 85.2132 39.039C84.4384 39.4745 83.5668 39.6814 82.5876 39.6814C81.2318 39.6814 80.1665 39.2241 79.3702 38.3095V43.231H77.0244V29.381H79.2626V30.7094C79.65 30.2303 80.1342 29.871 80.7045 29.6206C81.2748 29.381 81.8989 29.2612 82.5984 29.2612C83.5668 29.2721 84.4492 29.4899 85.2132 29.9145ZM84.46 36.7633C85.0195 36.1753 85.2993 35.4132 85.2993 34.4659C85.2993 33.5186 85.0195 32.7455 84.46 32.1684C83.9004 31.5805 83.1902 31.2974 82.3294 31.2974C81.7698 31.2974 81.2533 31.428 80.8121 31.6893C80.3602 31.9507 80.0051 32.3209 79.7361 32.7999C79.4778 33.279 79.3379 33.8343 79.3379 34.4768C79.3379 35.1083 79.4671 35.6636 79.7361 36.1536C79.9943 36.6326 80.3602 37.0028 80.8121 37.2642C81.2641 37.5255 81.7698 37.6562 82.3294 37.6562C83.1902 37.6453 83.9112 37.3513 84.46 36.7633Z" fill="white"/>
<path d="M96.4687 39.2896C95.5218 38.9956 94.7793 38.6145 94.2197 38.1245L95.0698 36.2081C95.6078 36.6437 96.2642 36.9921 97.0498 37.2643C97.8353 37.5365 98.6208 37.6781 99.4063 37.6781C100.386 37.6781 101.117 37.5147 101.591 37.199C102.075 36.8832 102.312 36.4586 102.312 35.9468C102.312 35.5657 102.172 35.25 101.903 35.0104C101.634 34.76 101.289 34.5749 100.881 34.4333C100.472 34.2918 99.9013 34.1394 99.1911 33.9543C98.1904 33.7147 97.3726 33.4752 96.7592 33.2356C96.1351 32.9961 95.6078 32.615 95.1667 32.1032C94.7255 31.5915 94.4995 30.8946 94.4995 30.0236C94.4995 29.2832 94.6932 28.619 95.0913 28.0201C95.4895 27.4213 96.0813 26.9422 96.8776 26.5828C97.6739 26.2235 98.6423 26.0493 99.8045 26.0493C100.611 26.0493 101.397 26.1473 102.172 26.3542C102.947 26.5611 103.614 26.8442 104.184 27.2253L103.409 29.1416C102.828 28.8041 102.236 28.5428 101.601 28.3577C100.977 28.1834 100.364 28.0963 99.7829 28.0963C98.8145 28.0963 98.1043 28.2597 97.6308 28.5863C97.1574 28.913 96.9314 29.3485 96.9314 29.9038C96.9314 30.2849 97.0605 30.5898 97.3403 30.8402C97.6093 31.0797 97.9536 31.2757 98.3625 31.4064C98.7714 31.5479 99.3418 31.7004 100.052 31.8855C101.031 32.1141 101.827 32.3537 102.462 32.5932C103.086 32.8437 103.624 33.2138 104.066 33.7256C104.507 34.2374 104.733 34.9124 104.733 35.7835C104.733 36.5239 104.539 37.1881 104.141 37.7761C103.743 38.3749 103.151 38.8431 102.344 39.2024C101.537 39.5618 100.568 39.736 99.4171 39.736C98.3948 39.736 97.4156 39.5835 96.4687 39.2896Z" fill="white"/>
<path d="M112.965 38.9956C112.685 39.2243 112.351 39.3985 111.964 39.5074C111.566 39.6162 111.157 39.6816 110.716 39.6816C109.618 39.6816 108.757 39.3876 108.155 38.8105C107.552 38.2225 107.251 37.3732 107.251 36.2626V31.3738H105.594V29.4574H107.251V27.1382H109.597V29.4574H112.287V31.3629H109.597V36.1973C109.597 36.6873 109.715 37.0684 109.952 37.3297C110.189 37.591 110.533 37.7217 110.985 37.7217C111.512 37.7217 111.953 37.5801 112.298 37.3079L112.965 38.9956Z" fill="white"/>
<path d="M116.333 39.0065C115.515 38.5601 114.88 37.9394 114.428 37.1555C113.965 36.3606 113.739 35.4678 113.739 34.4661C113.739 33.4643 113.965 32.5715 114.428 31.7875C114.88 31.0036 115.526 30.3829 116.333 29.9474C117.15 29.501 118.065 29.2832 119.076 29.2832C120.099 29.2832 121.024 29.501 121.842 29.9474C122.66 30.3938 123.295 31.0036 123.747 31.7875C124.198 32.5715 124.435 33.4643 124.435 34.4661C124.435 35.4678 124.209 36.3606 123.747 37.1555C123.284 37.9503 122.649 38.571 121.842 39.0065C121.024 39.4529 120.109 39.6707 119.076 39.6707C118.054 39.6707 117.14 39.4529 116.333 39.0065ZM121.218 36.7635C121.777 36.1755 122.068 35.4133 122.068 34.4661C122.068 33.5188 121.788 32.7457 121.218 32.1686C120.658 31.5806 119.937 31.2975 119.076 31.2975C118.216 31.2975 117.505 31.5915 116.946 32.1686C116.386 32.7566 116.107 33.5188 116.107 34.4661C116.107 35.4133 116.386 36.1864 116.946 36.7635C117.505 37.3515 118.216 37.6346 119.076 37.6346C119.937 37.6454 120.658 37.3515 121.218 36.7635Z" fill="white"/>
<path d="M132.495 29.2725V31.5372C132.291 31.5046 132.108 31.4828 131.946 31.4828C131.032 31.4828 130.322 31.755 129.805 32.2885C129.289 32.8329 129.03 33.606 129.03 34.6186V39.5402H126.685V29.3813H128.923V30.8622C129.601 29.806 130.795 29.2725 132.495 29.2725Z" fill="white"/>
<path d="M143.794 35.2282H135.917C136.057 35.9795 136.412 36.5675 136.993 37.003C137.574 37.4386 138.295 37.6563 139.167 37.6563C140.264 37.6563 141.179 37.2861 141.889 36.5566L143.148 38.0157C142.696 38.5601 142.126 38.9738 141.437 39.2569C140.749 39.54 139.974 39.6707 139.102 39.6707C138.005 39.6707 137.025 39.4529 136.186 39.0065C135.347 38.5601 134.701 37.9394 134.238 37.1555C133.776 36.3606 133.55 35.4678 133.55 34.4661C133.55 33.4752 133.776 32.5824 134.217 31.7984C134.658 31.0036 135.282 30.3829 136.068 29.9474C136.853 29.501 137.746 29.2832 138.736 29.2832C139.716 29.2832 140.587 29.501 141.362 29.9365C142.137 30.372 142.739 30.9927 143.17 31.7766C143.6 32.5715 143.815 33.4861 143.815 34.5205C143.826 34.6838 143.815 34.9234 143.794 35.2282ZM136.843 31.8529C136.326 32.2993 136.003 32.8981 135.896 33.6494H141.588C141.491 32.909 141.179 32.321 140.663 31.8637C140.146 31.4064 139.511 31.1778 138.747 31.1778C138.005 31.1778 137.37 31.3955 136.843 31.8529Z" fill="white"/>
</svg>
