<svg width="40" height="40" viewBox="0 0 40 40" fill="none" xmlns="http://www.w3.org/2000/svg">
<path d="M20 40C8.95408 40 0 31.0454 0 20C0 8.95407 8.95408 0 20 0C31.0459 0 40 8.95407 40 20C40.0006 31.0459 31.0459 40 20 40Z" fill="white"/>
<path d="M16.9528 32.0888H21.8214V19.8968H25.2182L25.5801 15.8146H21.8214C21.8214 15.8146 21.8214 14.2905 21.8214 13.4897C21.8214 12.5271 22.0149 12.1468 22.9456 12.1468C23.6946 12.1468 25.5807 12.1468 25.5807 12.1468V7.91066C25.5807 7.91066 22.8029 7.91066 22.2095 7.91066C18.5868 7.91066 16.9534 9.50618 16.9534 12.56C16.9534 15.2201 16.9534 15.8146 16.9534 15.8146H14.421V19.9476H16.9534L16.9528 32.0888Z" fill="#2E3F57"/>
</svg>
