<svg width="162" height="50" viewBox="0 0 162 50" fill="none" xmlns="http://www.w3.org/2000/svg">
<rect width="162" height="50" rx="8" fill="black"/>
<path d="M53.0927 30.1175H55.3524V35.3003C54.696 35.8339 53.9213 36.2367 53.0389 36.5307C52.1565 36.8138 51.2527 36.9554 50.3165 36.9554C49.0037 36.9554 47.82 36.6723 46.7763 36.0952C45.7217 35.5181 44.8932 34.7232 44.3013 33.7106C43.6988 32.698 43.3975 31.5439 43.3975 30.2699C43.3975 28.996 43.6988 27.8527 44.3013 26.8292C44.9039 25.8166 45.7325 25.0217 46.787 24.4447C47.8416 23.8676 49.036 23.5845 50.3595 23.5845C51.4356 23.5845 52.4148 23.7696 53.2972 24.1289C54.1795 24.4882 54.922 25.0108 55.5246 25.7077L54.0181 27.1994C53.0389 26.2086 51.8552 25.7077 50.4779 25.7077C49.574 25.7077 48.767 25.9037 48.0675 26.2848C47.3681 26.6659 46.8086 27.2103 46.4104 27.9071C46.0123 28.604 45.8186 29.3988 45.8186 30.2808C45.8186 31.1519 46.0123 31.9249 46.4104 32.6218C46.8086 33.3187 47.3573 33.8631 48.0675 34.2551C48.767 34.647 49.574 34.8539 50.4671 34.8539C51.4679 34.8539 52.3502 34.6361 53.1142 34.1897V30.1175H53.0927Z" fill="white"/>
<path d="M60.0014 36.2475C59.2051 35.812 58.581 35.2131 58.1398 34.44C57.6879 33.667 57.4727 32.785 57.4727 31.8051C57.4727 30.8251 57.6986 29.9541 58.1398 29.181C58.5918 28.4079 59.2051 27.809 60.0014 27.3735C60.7977 26.938 61.6908 26.7202 62.6808 26.7202C63.6815 26.7202 64.5854 26.938 65.3817 27.3735C66.1779 27.809 66.8021 28.4079 67.2432 29.181C67.6952 29.9541 67.9104 30.8251 67.9104 31.8051C67.9104 32.785 67.6844 33.6561 67.2432 34.44C66.7913 35.2131 66.1779 35.8229 65.3817 36.2475C64.5854 36.6831 63.6815 36.9008 62.6808 36.9008C61.6908 36.9008 60.7977 36.6831 60.0014 36.2475ZM64.7791 34.059C65.3279 33.4928 65.6076 32.7415 65.6076 31.8051C65.6076 30.8796 65.3279 30.1283 64.7791 29.5512C64.2303 28.985 63.5308 28.691 62.6808 28.691C61.8307 28.691 61.142 28.9741 60.5932 29.5512C60.0444 30.1174 59.7754 30.8687 59.7754 31.8051C59.7754 32.7306 60.0444 33.4819 60.5932 34.059C61.142 34.6252 61.8307 34.9191 62.6808 34.9191C63.5308 34.9082 64.2195 34.6252 64.7791 34.059Z" fill="white"/>
<path d="M71.8481 36.2475C71.0518 35.812 70.4277 35.2131 69.9865 34.44C69.5345 33.667 69.3193 32.785 69.3193 31.8051C69.3193 30.8251 69.5453 29.9541 69.9865 29.181C70.4384 28.4079 71.0518 27.809 71.8481 27.3735C72.6443 26.938 73.5375 26.7202 74.5274 26.7202C75.5282 26.7202 76.4321 26.938 77.2283 27.3735C78.0246 27.809 78.6487 28.4079 79.0899 29.181C79.5419 29.9541 79.7571 30.8251 79.7571 31.8051C79.7571 32.785 79.5311 33.6561 79.0899 34.44C78.638 35.2131 78.0246 35.8229 77.2283 36.2475C76.4321 36.6831 75.5282 36.9008 74.5274 36.9008C73.5375 36.9008 72.6443 36.6831 71.8481 36.2475ZM76.6257 34.059C77.1745 33.4928 77.4543 32.7415 77.4543 31.8051C77.4543 30.8796 77.1745 30.1283 76.6257 29.5512C76.077 28.985 75.3775 28.691 74.5274 28.691C73.6774 28.691 72.9887 28.9741 72.4399 29.5512C71.8911 30.1174 71.6221 30.8687 71.6221 31.8051C71.6221 32.7306 71.8911 33.4819 72.4399 34.059C72.9887 34.6252 73.6774 34.9191 74.5274 34.9191C75.3775 34.9082 76.0662 34.6252 76.6257 34.059Z" fill="white"/>
<path d="M91.7016 26.8402V35.2569C91.7016 38.752 89.9369 40.4942 86.4074 40.4942C85.4605 40.4942 84.5674 40.3744 83.728 40.1348C82.878 39.8953 82.1893 39.5469 81.6297 39.0896L82.6627 37.3474C83.0932 37.7067 83.6312 37.9899 84.2876 38.2076C84.944 38.4254 85.6111 38.5343 86.2783 38.5343C87.3543 38.5343 88.1506 38.2838 88.6456 37.7939C89.1513 37.293 89.3988 36.5417 89.3988 35.5291V35.0064C89.0115 35.442 88.5272 35.7686 87.9677 35.9864C87.4081 36.2042 86.784 36.3239 86.1169 36.3239C85.1915 36.3239 84.3414 36.1279 83.5882 35.7251C82.8349 35.3222 82.2431 34.756 81.8019 34.0265C81.3715 33.297 81.1455 32.4586 81.1455 31.5222C81.1455 30.5858 81.3607 29.7474 81.8019 29.0179C82.2323 28.2883 82.8349 27.733 83.5882 27.341C84.3414 26.9491 85.1807 26.7422 86.1169 26.7422C86.8271 26.7422 87.4727 26.862 88.0538 27.0906C88.6348 27.3302 89.1191 27.6895 89.5172 28.1686V26.8511H91.7016V26.8402ZM88.6026 33.5583C89.1621 33.0357 89.4419 32.3497 89.4419 31.5004C89.4419 30.6729 89.1621 29.9978 88.6026 29.4752C88.043 28.9525 87.3328 28.6912 86.4612 28.6912C85.5788 28.6912 84.8579 28.9525 84.2983 29.4752C83.7388 29.9978 83.459 30.6729 83.459 31.5004C83.459 32.3388 83.7388 33.0248 84.2983 33.5583C84.8579 34.0809 85.5788 34.3531 86.4612 34.3531C87.3328 34.3531 88.0538 34.0918 88.6026 33.5583Z" fill="white"/>
<path d="M94.7148 22.9746H97.0068V36.7701H94.7148V22.9746Z" fill="white"/>
<path d="M109.208 32.5453H101.515C101.655 33.2749 101.999 33.8519 102.569 34.2875C103.14 34.7121 103.85 34.9299 104.689 34.9299C105.765 34.9299 106.658 34.5706 107.358 33.8519L108.584 35.2783C108.143 35.8118 107.584 36.2147 106.916 36.4869C106.239 36.7591 105.485 36.9007 104.635 36.9007C103.559 36.9007 102.612 36.6829 101.784 36.2474C100.966 35.8118 100.331 35.213 99.8791 34.4399C99.4271 33.6668 99.2119 32.7849 99.2119 31.8049C99.2119 30.8359 99.4271 29.9648 99.8683 29.1917C100.299 28.4186 100.901 27.8089 101.676 27.3843C102.451 26.9487 103.312 26.731 104.28 26.731C105.238 26.731 106.088 26.9487 106.841 27.3734C107.594 27.798 108.186 28.3969 108.606 29.1808C109.026 29.9539 109.241 30.8468 109.241 31.8703C109.241 32.0227 109.23 32.2513 109.208 32.5453ZM102.419 29.2462C101.913 29.6817 101.601 30.2697 101.493 30.9992H107.056C106.96 30.2806 106.658 29.7035 106.152 29.2571C105.647 28.8106 105.023 28.5929 104.28 28.5929C103.548 28.5929 102.924 28.8106 102.419 29.2462Z" fill="white"/>
<path d="M124.941 24.3141C125.769 24.6843 126.404 25.2178 126.845 25.9147C127.287 26.6115 127.502 27.4282 127.502 28.3863C127.502 29.3227 127.287 30.1502 126.845 30.8471C126.404 31.544 125.769 32.0884 124.941 32.4586C124.112 32.8288 123.144 33.0139 122.025 33.0139H119.119V36.7704H116.73V23.7588H122.025C123.144 23.7588 124.112 23.9439 124.941 24.3141ZM124.284 30.3027C124.822 29.8563 125.091 29.2139 125.091 28.3863C125.091 27.5588 124.822 26.9164 124.284 26.47C123.746 26.0236 122.961 25.8058 121.917 25.8058H119.13V30.9778H121.917C122.961 30.9669 123.746 30.7491 124.284 30.3027Z" fill="white"/>
<path d="M129.848 22.9746H132.14V36.7701H129.848V22.9746Z" fill="white"/>
<path d="M142.222 27.7762C142.986 28.4731 143.374 29.5293 143.374 30.9447V36.7591H141.211V35.5505C140.931 35.9861 140.533 36.3127 140.006 36.5414C139.489 36.77 138.854 36.8898 138.122 36.8898C137.391 36.8898 136.745 36.7591 136.196 36.5087C135.648 36.2583 135.217 35.8989 134.916 35.4525C134.615 34.9952 134.464 34.4943 134.464 33.9173C134.464 33.0244 134.787 32.3058 135.443 31.7723C136.099 31.2278 137.132 30.9665 138.542 30.9665H141.082V30.8141C141.082 30.1172 140.877 29.5837 140.468 29.2135C140.059 28.8433 139.446 28.6582 138.639 28.6582C138.09 28.6582 137.541 28.7453 137.014 28.9195C136.476 29.0937 136.035 29.3333 135.669 29.649L134.765 27.9613C135.282 27.5694 135.895 27.2645 136.616 27.0467C137.337 26.8398 138.101 26.731 138.908 26.731C140.35 26.731 141.458 27.0794 142.222 27.7762ZM140.124 34.8101C140.576 34.5488 140.888 34.1677 141.071 33.6668V32.5127H138.704C137.38 32.5127 136.724 32.9482 136.724 33.8302C136.724 34.2548 136.885 34.5815 137.219 34.8319C137.552 35.0823 138.004 35.2021 138.596 35.2021C139.166 35.2021 139.683 35.0714 140.124 34.8101Z" fill="white"/>
<path d="M155.307 26.8398L150.712 37.5649C150.282 38.6428 149.765 39.405 149.152 39.8405C148.538 40.2761 147.796 40.5047 146.924 40.5047C146.429 40.5047 145.956 40.4285 145.472 40.2652C144.998 40.1018 144.6 39.8841 144.299 39.601L145.213 37.8915C145.429 38.0984 145.698 38.2726 145.999 38.3924C146.3 38.5121 146.602 38.5775 146.903 38.5775C147.312 38.5775 147.645 38.4686 147.904 38.2617C148.162 38.0548 148.409 37.6955 148.625 37.2056L148.786 36.8136L144.503 26.8507H146.892L149.98 34.1895L153.079 26.8507H155.307V26.8398Z" fill="white"/>
<path d="M38.986 24.2915L32.8094 20.6875L27.7305 25.6526L32.3683 30.193L38.9752 26.3277C39.3411 26.1208 39.5563 25.7288 39.5563 25.3042C39.5671 24.8795 39.3411 24.4984 38.986 24.2915Z" fill="#FFD109"/>
<path d="M31.7655 20.0779L24.9648 16.1036L10.083 8.38379L26.9017 24.8361L31.7655 20.0779Z" fill="#06EF79"/>
<path d="M10.3301 42.6711L24.9967 34.494L31.3239 30.8028L26.9013 26.4692L10.3301 42.6711Z" fill="#F93646"/>
<path d="M9.09281 9.04785L9.07129 42.2682L26.0622 25.6526L9.09281 9.04785Z" fill="#05D5FB"/>
<path d="M47.5082 16.5285C46.9917 16.5285 46.5075 16.4196 46.0556 16.191C45.6036 15.9623 45.2162 15.6575 44.8827 15.2655C44.5491 14.8844 44.2908 14.4488 44.1079 13.9589C43.925 13.4798 43.8281 12.9789 43.8281 12.4563C43.8281 11.9119 43.925 11.4001 44.1079 10.921C44.2908 10.4419 44.5491 10.0064 44.8827 9.63619C45.2162 9.26599 45.6036 8.97201 46.0448 8.75424C46.4967 8.53647 46.981 8.43848 47.5082 8.43848C48.2722 8.43848 48.8963 8.6018 49.4021 8.91757C49.8971 9.24422 50.2737 9.65797 50.5212 10.1806L49.7572 10.725C49.5312 10.2568 49.2084 9.91929 48.8103 9.69064C48.4121 9.46198 47.9709 9.3531 47.4867 9.3531C47.0886 9.3531 46.7227 9.4402 46.3999 9.61442C46.0771 9.78863 45.7973 10.0173 45.5606 10.3222C45.3238 10.6161 45.1517 10.9537 45.0225 11.3239C44.9042 11.6941 44.8396 12.0861 44.8396 12.4889C44.8396 12.9136 44.9042 13.3165 45.0441 13.6975C45.184 14.0786 45.3776 14.4053 45.6251 14.6993C45.8726 14.9933 46.1739 15.211 46.5075 15.3744C46.8411 15.5377 47.1962 15.6248 47.5836 15.6248C48.0355 15.6248 48.4659 15.505 48.8748 15.2764C49.2837 15.0477 49.6711 14.6884 50.0262 14.2093V15.2546C49.316 16.1039 48.4767 16.5285 47.5082 16.5285ZM49.9078 13.262H48.2077V12.4998H50.7472V16.485H49.9078V13.262Z" fill="white"/>
<path d="M57.6234 15.5815V16.4852H52.2646V8.49316H57.5158V9.3969H53.2654V11.9774H56.967V12.8158H53.2654V15.5706H57.6234V15.5815Z" fill="white"/>
<path d="M64.6819 9.3969H61.9595V16.4852H60.9587V9.3969H58.2363V8.49316H64.6819V9.3969Z" fill="white"/>
<path d="M68.2979 16.4743V8.49316H69.2986V16.4743H68.2979Z" fill="white"/>
<path d="M72.1824 10.366V16.4852H71.1816V8.49316H72.021L76.8417 14.7322V8.50405H77.8424V16.4743H76.9278L72.1824 10.366Z" fill="white"/>
<path d="M85.7514 16.5287C85.1919 16.5287 84.6969 16.4198 84.245 16.1911C83.793 15.9625 83.4056 15.6576 83.0721 15.2765C82.7385 14.8954 82.491 14.4599 82.3081 13.9699C82.1251 13.4908 82.0391 12.9899 82.0391 12.4782C82.0391 11.9447 82.1359 11.4329 82.3188 10.9538C82.5125 10.4747 82.7708 10.0392 83.1044 9.65812C83.4379 9.27702 83.8361 8.98304 84.288 8.75438C84.74 8.53662 85.2349 8.42773 85.7622 8.42773C86.3218 8.42773 86.8167 8.5475 87.2687 8.77616C87.7206 9.00481 88.108 9.32058 88.4308 9.71256C88.7536 10.1045 89.0119 10.5401 89.1841 11.0192C89.367 11.4982 89.4531 11.9882 89.4531 12.4891C89.4531 13.0226 89.3562 13.5344 89.1733 14.0135C88.9904 14.4925 88.7321 14.9281 88.3878 15.3092C88.0542 15.6903 87.6561 15.9842 87.2041 16.202C86.7737 16.4307 86.2787 16.5287 85.7514 16.5287ZM83.0506 12.4891C83.0506 12.892 83.1151 13.2839 83.2442 13.665C83.3734 14.0461 83.5563 14.3837 83.793 14.6668C84.0298 14.9607 84.3203 15.1894 84.6539 15.3636C84.9874 15.5378 85.3533 15.6249 85.7622 15.6249C86.1819 15.6249 86.5585 15.5378 86.8921 15.3527C87.2256 15.1676 87.5054 14.9281 87.7421 14.6341C87.9789 14.3292 88.151 13.9917 88.2802 13.6215C88.3985 13.2513 88.4631 12.8702 88.4631 12.4891C88.4631 12.0862 88.3985 11.6942 88.2694 11.324C88.1403 10.9538 87.9574 10.6163 87.7099 10.3223C87.4731 10.0283 87.1826 9.78878 86.849 9.62545C86.5154 9.46213 86.1496 9.37502 85.7514 9.37502C85.3318 9.37502 84.9552 9.46212 84.6216 9.63634C84.288 9.81055 84.0082 10.0501 83.7715 10.355C83.5348 10.6598 83.3626 10.9865 83.2335 11.3567C83.1151 11.716 83.0506 12.0971 83.0506 12.4891Z" fill="white"/>
<path d="M91.863 10.366V16.4852H90.8623V8.49316H91.7016L96.5223 14.7322V8.50405H97.5231V16.4743H96.6084L91.863 10.366Z" fill="white"/>
</svg>
