<svg width="130" height="40" viewBox="0 0 130 40" fill="none" xmlns="http://www.w3.org/2000/svg">
<rect width="130" height="40" rx="8" fill="white"/>
<path d="M42.6051 24.0937H44.4184V28.24C43.8917 28.6668 43.27 28.9891 42.5619 29.2243C41.8538 29.4508 41.1285 29.564 40.3773 29.564C39.3238 29.564 38.3739 29.3375 37.5363 28.8759C36.6901 28.4142 36.0252 27.7783 35.5503 26.9682C35.0667 26.1581 34.825 25.2348 34.825 24.2157C34.825 23.1965 35.0667 22.2819 35.5503 21.4631C36.0339 20.653 36.6987 20.0171 37.545 19.5555C38.3912 19.0938 39.3497 18.8673 40.4118 18.8673C41.2753 18.8673 42.0611 19.0154 42.7692 19.3028C43.4772 19.5903 44.073 20.0084 44.5566 20.5659L43.3477 21.7593C42.5619 20.9666 41.6121 20.5659 40.5068 20.5659C39.7814 20.5659 39.1338 20.7227 38.5725 21.0276C38.0113 21.3324 37.5622 21.768 37.2428 22.3254C36.9233 22.8829 36.7678 23.5188 36.7678 24.2244C36.7678 24.9212 36.9233 25.5397 37.2428 26.0972C37.5622 26.6547 38.0026 27.0902 38.5725 27.4038C39.1338 27.7174 39.7814 27.8829 40.4982 27.8829C41.3012 27.8829 42.0093 27.7086 42.6224 27.3515V24.0937H42.6051Z" fill="#2E3F57"/>
<path d="M48.1487 28.9978C47.5097 28.6494 47.0089 28.1703 46.6549 27.5518C46.2922 26.9334 46.1195 26.2278 46.1195 25.4439C46.1195 24.6599 46.3008 23.963 46.6549 23.3446C47.0175 22.7261 47.5097 22.247 48.1487 21.8986C48.7877 21.5502 49.5044 21.376 50.2988 21.376C51.1019 21.376 51.8272 21.5502 52.4662 21.8986C53.1052 22.247 53.6061 22.7261 53.9601 23.3446C54.3228 23.963 54.4955 24.6599 54.4955 25.4439C54.4955 26.2278 54.3141 26.9247 53.9601 27.5518C53.5974 28.1703 53.1052 28.6581 52.4662 28.9978C51.8272 29.3462 51.1019 29.5205 50.2988 29.5205C49.5044 29.5205 48.7877 29.3462 48.1487 28.9978ZM51.9827 27.247C52.4231 26.794 52.6476 26.193 52.6476 25.4439C52.6476 24.7035 52.4231 24.1024 51.9827 23.6408C51.5423 23.1878 50.981 22.9526 50.2988 22.9526C49.6167 22.9526 49.064 23.1791 48.6237 23.6408C48.1833 24.0937 47.9674 24.6947 47.9674 25.4439C47.9674 26.1843 48.1833 26.7853 48.6237 27.247C49.064 27.6999 49.6167 27.9351 50.2988 27.9351C50.981 27.9264 51.5337 27.6999 51.9827 27.247Z" fill="#2E3F57"/>
<path d="M57.6559 28.9978C57.0169 28.6494 56.5161 28.1703 56.1621 27.5518C55.7994 26.9334 55.6267 26.2278 55.6267 25.4439C55.6267 24.6599 55.808 23.963 56.1621 23.3446C56.5248 22.7261 57.0169 22.247 57.6559 21.8986C58.2949 21.5502 59.0116 21.376 59.806 21.376C60.6091 21.376 61.3344 21.5502 61.9734 21.8986C62.6124 22.247 63.1133 22.7261 63.4673 23.3446C63.83 23.963 64.0027 24.6599 64.0027 25.4439C64.0027 26.2278 63.8213 26.9247 63.4673 27.5518C63.1046 28.1703 62.6124 28.6581 61.9734 28.9978C61.3344 29.3462 60.6091 29.5205 59.806 29.5205C59.0116 29.5205 58.2949 29.3462 57.6559 28.9978ZM61.4899 27.247C61.9303 26.794 62.1548 26.193 62.1548 25.4439C62.1548 24.7035 61.9303 24.1024 61.4899 23.6408C61.0495 23.1878 60.4882 22.9526 59.806 22.9526C59.1239 22.9526 58.5712 23.1791 58.1309 23.6408C57.6905 24.0937 57.4746 24.6947 57.4746 25.4439C57.4746 26.1843 57.6905 26.7853 58.1309 27.247C58.5712 27.6999 59.1239 27.9351 59.806 27.9351C60.4882 27.9264 61.0409 27.6999 61.4899 27.247Z" fill="#2E3F57"/>
<path d="M73.5875 21.4718V28.2052C73.5875 31.0013 72.1714 32.395 69.3391 32.395C68.5792 32.395 67.8625 32.2992 67.189 32.1076C66.5068 31.9159 65.9542 31.6372 65.5052 31.2713L66.3341 29.8776C66.6795 30.1651 67.1113 30.3916 67.638 30.5658C68.1647 30.74 68.7001 30.8271 69.2355 30.8271C70.099 30.8271 70.738 30.6267 71.1352 30.2348C71.541 29.8341 71.7396 29.233 71.7396 28.4229V28.0048C71.4288 28.3533 71.0402 28.6146 70.5912 28.7888C70.1421 28.963 69.6413 29.0588 69.1059 29.0588C68.3633 29.0588 67.6812 28.902 67.0767 28.5797C66.4723 28.2574 65.9973 27.8045 65.6433 27.2209C65.2979 26.6373 65.1166 25.9665 65.1166 25.2174C65.1166 24.4683 65.2893 23.7976 65.6433 23.214C65.9887 22.6304 66.4723 22.1861 67.0767 21.8725C67.6812 21.5589 68.3547 21.3934 69.1059 21.3934C69.6759 21.3934 70.194 21.4893 70.6602 21.6722C71.1265 21.8638 71.5151 22.1513 71.8346 22.5345V21.4805H73.5875V21.4718ZM71.1006 26.8463C71.5496 26.4282 71.7742 25.8794 71.7742 25.2C71.7742 24.538 71.5496 23.9979 71.1006 23.5798C70.6516 23.1617 70.0817 22.9526 69.3823 22.9526C68.6742 22.9526 68.0957 23.1617 67.6466 23.5798C67.1976 23.9979 66.9731 24.538 66.9731 25.2C66.9731 25.8707 67.1976 26.4195 67.6466 26.8463C68.0957 27.2644 68.6742 27.4822 69.3823 27.4822C70.0817 27.4822 70.6602 27.2731 71.1006 26.8463Z" fill="#2E3F57"/>
<path d="M76.0052 18.3795H77.8445V29.4159H76.0052V18.3795Z" fill="#2E3F57"/>
<path d="M87.6367 26.0363H81.4626C81.5749 26.6199 81.8512 27.0815 82.3089 27.43C82.7665 27.7697 83.3364 27.9439 84.01 27.9439C84.8735 27.9439 85.5902 27.6565 86.1514 27.0815L87.1358 28.2226C86.7818 28.6495 86.3328 28.9718 85.7974 29.1895C85.2534 29.4073 84.649 29.5205 83.9668 29.5205C83.1033 29.5205 82.3434 29.3463 81.6785 28.9979C81.0223 28.6495 80.5128 28.1704 80.1501 27.5519C79.7874 26.9335 79.6147 26.2279 79.6147 25.4439C79.6147 24.6687 79.7874 23.9718 80.1415 23.3534C80.4869 22.7349 80.9704 22.2471 81.5922 21.9074C82.2139 21.559 82.9047 21.3848 83.6818 21.3848C84.4504 21.3848 85.1325 21.559 85.737 21.8987C86.3414 22.2384 86.8164 22.7175 87.1531 23.3447C87.4899 23.9631 87.6626 24.6774 87.6626 25.4962C87.6626 25.6182 87.6539 25.8011 87.6367 26.0363ZM82.188 23.3969C81.7821 23.7454 81.5317 24.2157 81.4454 24.7994H85.9097C85.832 24.2244 85.5902 23.7628 85.1843 23.4056C84.7785 23.0485 84.2777 22.8743 83.6818 22.8743C83.0947 22.8743 82.5938 23.0485 82.188 23.3969Z" fill="#2E3F57"/>
<path d="M100.261 19.451C100.926 19.7471 101.435 20.1739 101.789 20.7314C102.143 21.2889 102.316 21.9422 102.316 22.7088C102.316 23.4579 102.143 24.1199 101.789 24.6774C101.435 25.2348 100.926 25.6704 100.261 25.9665C99.5961 26.2627 98.819 26.4108 97.9209 26.4108H95.5895V29.416H93.6725V19.0067H97.9209C98.819 19.0067 99.5961 19.1548 100.261 19.451ZM99.7343 24.2418C100.166 23.8847 100.382 23.3708 100.382 22.7088C100.382 22.0467 100.166 21.5328 99.7343 21.1757C99.3025 20.8185 98.6722 20.6443 97.8346 20.6443H95.5981V24.7819H97.8346C98.6722 24.7732 99.3025 24.599 99.7343 24.2418Z" fill="#2E3F57"/>
<path d="M104.199 18.3795H106.038V29.4159H104.199V18.3795Z" fill="#2E3F57"/>
<path d="M114.129 22.221C114.742 22.7785 115.053 23.6234 115.053 24.7558V29.4073H113.317V28.4404C113.093 28.7888 112.773 29.0502 112.35 29.2331C111.936 29.416 111.426 29.5118 110.839 29.5118C110.252 29.5118 109.734 29.4073 109.293 29.207C108.853 29.0066 108.507 28.7192 108.266 28.362C108.024 27.9962 107.903 27.5955 107.903 27.1338C107.903 26.4195 108.162 25.8446 108.689 25.4178C109.215 24.9823 110.044 24.7732 111.176 24.7732H113.213V24.6513C113.213 24.0938 113.049 23.667 112.721 23.3708C112.393 23.0746 111.901 22.9266 111.253 22.9266C110.813 22.9266 110.373 22.9962 109.949 23.1356C109.518 23.275 109.164 23.4666 108.87 23.7192L108.145 22.3691C108.559 22.0555 109.051 21.8116 109.63 21.6374C110.209 21.4719 110.822 21.3848 111.469 21.3848C112.626 21.3848 113.516 21.6635 114.129 22.221ZM112.445 27.8481C112.808 27.639 113.058 27.3342 113.205 26.9335V26.0101H111.305C110.243 26.0101 109.716 26.3586 109.716 27.0641C109.716 27.4038 109.846 27.6652 110.114 27.8655C110.381 28.0659 110.744 28.1617 111.219 28.1617C111.676 28.1617 112.091 28.0571 112.445 27.8481Z" fill="#2E3F57"/>
<path d="M124.629 21.4718L120.942 30.0518C120.596 30.9142 120.182 31.5239 119.69 31.8724C119.198 32.2208 118.602 32.4037 117.902 32.4037C117.505 32.4037 117.125 32.3427 116.737 32.2121C116.357 32.0814 116.037 31.9072 115.795 31.6807L116.529 30.3131C116.702 30.4786 116.918 30.618 117.16 30.7138C117.402 30.8096 117.643 30.8619 117.885 30.8619C118.213 30.8619 118.481 30.7748 118.688 30.6093C118.895 30.4438 119.094 30.1563 119.267 29.7644L119.396 29.4508L115.959 21.4805H117.876L120.355 27.3515L122.842 21.4805H124.629V21.4718Z" fill="#2E3F57"/>
<path d="M31.2847 19.4335L26.3282 16.5503L22.2524 20.5224L25.9741 24.1547L31.276 21.0624C31.5696 20.8969 31.7423 20.5833 31.7423 20.2436C31.7509 19.9039 31.5696 19.599 31.2847 19.4335Z" fill="#2E3F57"/>
<path d="M25.4905 16.0625L20.0332 12.8831L8.09094 6.70728L21.5875 19.8691L25.4905 16.0625Z" fill="#2E3F57"/>
<path d="M8.28955 34.1372L20.0591 27.5954L25.1364 24.6425L21.5875 21.1757L8.28955 34.1372Z" fill="#2E3F57"/>
<path d="M7.29657 7.23865L7.2793 33.8149L20.914 20.5224L7.29657 7.23865Z" fill="#2E3F57"/>
<path d="M38.1236 13.2229C37.7091 13.2229 37.3205 13.1358 36.9579 12.9529C36.5952 12.7699 36.2843 12.526 36.0166 12.2125C35.749 11.9076 35.5417 11.5592 35.3949 11.1672C35.2481 10.7839 35.1704 10.3832 35.1704 9.9651C35.1704 9.52956 35.2481 9.12016 35.3949 8.73689C35.5417 8.35362 35.749 8.00519 36.0166 7.70903C36.2843 7.41287 36.5952 7.17768 36.9492 7.00347C37.3119 6.82925 37.7005 6.75085 38.1236 6.75085C38.7367 6.75085 39.2375 6.88152 39.6433 7.13413C40.0405 7.39545 40.3428 7.72645 40.5414 8.14456L39.9283 8.5801C39.747 8.20554 39.4879 7.93551 39.1684 7.75258C38.8489 7.56966 38.4949 7.48255 38.1063 7.48255C37.7868 7.48255 37.4932 7.55224 37.2342 7.69161C36.9751 7.83098 36.7506 8.0139 36.5606 8.2578C36.3707 8.49299 36.2325 8.76302 36.1289 9.05918C36.0339 9.35535 35.9821 9.66893 35.9821 9.99123C35.9821 10.3309 36.0339 10.6532 36.1462 10.9581C36.2584 11.263 36.4139 11.5243 36.6125 11.7595C36.8111 11.9947 37.0528 12.1689 37.3205 12.2996C37.5882 12.4302 37.8732 12.4999 38.184 12.4999C38.5467 12.4999 38.8921 12.4041 39.2202 12.2212C39.5484 12.0382 39.8592 11.7508 40.1442 11.3675V12.2037C39.5743 12.8832 38.9007 13.2229 38.1236 13.2229ZM40.0492 10.6097H38.6849V9.99994H40.7227V13.188H40.0492V10.6097Z" fill="#2E3F57"/>
<path d="M46.2404 12.465V13.188H41.9402V6.79431H46.1541V7.5173H42.7432V9.58173H45.7137V10.2525H42.7432V12.4563H46.2404V12.465Z" fill="#2E3F57"/>
<path d="M51.905 7.5173H49.7204V13.188H48.9173V7.5173H46.7327V6.79431H51.905V7.5173Z" fill="#2E3F57"/>
<path d="M54.8064 13.1792V6.79431H55.6095V13.1792H54.8064Z" fill="#2E3F57"/>
<path d="M57.9237 8.29255V13.188H57.1206V6.79431H57.7941L61.6626 11.7855V6.80302H62.4657V13.1792H61.7317L57.9237 8.29255Z" fill="#2E3F57"/>
<path d="M68.8124 13.2228C68.3634 13.2228 67.9662 13.1357 67.6035 12.9528C67.2409 12.7699 66.93 12.526 66.6623 12.2211C66.3946 11.9162 66.196 11.5678 66.0492 11.1758C65.9025 10.7925 65.8334 10.3918 65.8334 9.98243C65.8334 9.55561 65.9111 9.14621 66.0579 8.76294C66.2133 8.37967 66.4206 8.03124 66.6882 7.72637C66.9559 7.4215 67.2754 7.18631 67.6381 7.00339C68.0008 6.82917 68.398 6.74207 68.8211 6.74207C69.2701 6.74207 69.6673 6.83788 70.03 7.0208C70.3927 7.20373 70.7035 7.45634 70.9626 7.76992C71.2216 8.08351 71.4289 8.43194 71.567 8.81521C71.7138 9.19848 71.7829 9.59046 71.7829 9.99115C71.7829 10.418 71.7052 10.8274 71.5584 11.2106C71.4116 11.5939 71.2043 11.9423 70.928 12.2472C70.6603 12.5521 70.3408 12.7873 69.9782 12.9615C69.6328 13.1444 69.2356 13.2228 68.8124 13.2228ZM66.6451 9.99115C66.6451 10.3134 66.6969 10.627 66.8005 10.9319C66.9041 11.2368 67.0509 11.5068 67.2409 11.7333C67.4308 11.9685 67.664 12.1514 67.9317 12.2908C68.1994 12.4301 68.493 12.4998 68.8211 12.4998C69.1578 12.4998 69.4601 12.4301 69.7278 12.2821C69.9954 12.134 70.22 11.9423 70.4099 11.7072C70.5999 11.4633 70.7381 11.1932 70.8417 10.8971C70.9367 10.6009 70.9885 10.296 70.9885 9.99115C70.9885 9.66885 70.9367 9.35527 70.833 9.0591C70.7294 8.76294 70.5826 8.49291 70.384 8.25772C70.194 8.02253 69.9609 7.8309 69.6932 7.70024C69.4255 7.56958 69.1319 7.49989 68.8124 7.49989C68.4757 7.49989 68.1735 7.56958 67.9058 7.70895C67.6381 7.84832 67.4136 8.03995 67.2236 8.28385C67.0336 8.52775 66.8955 8.78907 66.7919 9.08523C66.6969 9.37269 66.6451 9.67756 66.6451 9.99115Z" fill="#2E3F57"/>
<path d="M73.7171 8.29255V13.188H72.9141V6.79431H73.5876L77.4561 11.7855V6.80302H78.2591V13.1792H77.5252L73.7171 8.29255Z" fill="#2E3F57"/>
</svg>
