<svg width="40" height="40" viewBox="0 0 40 40" fill="none" xmlns="http://www.w3.org/2000/svg">
<path d="M20 40C8.95408 40 0 31.0454 0 20C0 8.95407 8.95408 0 20 0C31.0459 0 40 8.95407 40 20C40.0006 31.0459 31.0459 40 20 40Z" fill="white"/>
<path fill-rule="evenodd" clip-rule="evenodd" d="M15.4783 9.09963C16.6484 9.04665 17.0214 9.03383 20 9.03383C22.9786 9.03383 23.3516 9.04665 24.5211 9.09963C25.6883 9.15317 26.4852 9.33832 27.1829 9.60935C27.904 9.8893 28.5157 10.2646 29.1253 10.8742C29.7348 11.4837 30.1096 12.0955 30.3901 12.8166C30.6611 13.5142 30.8463 14.3111 30.8998 15.4784C30.9528 16.6478 30.9656 17.0209 30.9656 19.9994C30.9656 22.978 30.9528 23.3511 30.8998 24.5211C30.8463 25.6883 30.6611 26.4852 30.3901 27.1829C30.1101 27.904 29.7348 28.5157 29.1253 29.1253C28.5157 29.7348 27.904 30.1096 27.1829 30.3901C26.4852 30.6611 25.6883 30.8463 24.5211 30.8998C23.3516 30.9534 22.978 30.9656 20 30.9656C17.0214 30.9656 16.6484 30.9534 15.4783 30.8998C14.3111 30.8463 13.5142 30.6611 12.8165 30.3901C12.0955 30.1101 11.4837 29.7348 10.8742 29.1253C10.2641 28.5157 9.88931 27.904 9.60935 27.1829C9.33832 26.4852 9.15262 25.6883 9.09964 24.5211C9.04666 23.3511 9.03382 22.9774 9.03382 19.9994C9.03382 17.0214 9.0461 16.6484 9.09964 15.4784C9.15262 14.3111 9.33832 13.5142 9.60935 12.8166C9.88931 12.0955 10.2646 11.4837 10.8742 10.8742C11.4837 10.2646 12.0955 9.88986 12.8165 9.60935C13.5142 9.33832 14.3111 9.15317 15.4783 9.09963ZM14.3686 20C14.3686 16.8898 16.8898 14.3686 20 14.3686C23.1102 14.3686 25.6314 16.8898 25.6314 20C25.6314 23.1102 23.1102 25.6314 20 25.6314C16.8898 25.6314 14.3686 23.1102 14.3686 20ZM27.1701 14.1461C27.1701 14.8727 26.5812 15.4622 25.854 15.4622C25.1273 15.4622 24.5378 14.8727 24.5378 14.1461C24.5378 13.4194 25.1273 12.8299 25.854 12.8299C26.5806 12.8299 27.1701 13.4194 27.1701 14.1461Z" fill="#2E3F57"/>
<path d="M20 23.6556C17.9812 23.6556 16.3444 22.0188 16.3444 20C16.3444 17.9812 17.9806 16.3444 20 16.3444C22.0188 16.3444 23.655 17.9806 23.655 20C23.6556 22.0188 22.0188 23.6556 20 23.6556Z" fill="#2E3F57"/>
</svg>
