<svg width="40" height="40" viewBox="0 0 40 40" fill="none" xmlns="http://www.w3.org/2000/svg">
<path d="M20 40C8.95408 40 0 31.0454 0 20C0 8.95407 8.95408 0 20 0C31.0459 0 40 8.95407 40 20C40.0006 31.0459 31.0459 40 20 40Z" fill="#2E3F57"/>
<path d="M20 23.6556C17.9812 23.6556 16.3444 22.0188 16.3444 20C16.3444 17.9812 17.9806 16.3444 20 16.3444C22.0188 16.3444 23.655 17.9806 23.655 20C23.6556 22.0188 22.0188 23.6556 20 23.6556Z" fill="white"/>
<path fill-rule="evenodd" clip-rule="evenodd" d="M20 9.03383C17.0214 9.03383 16.6484 9.04665 15.4783 9.09963C14.3111 9.15317 13.5142 9.33832 12.8165 9.60935C12.0955 9.88986 11.4837 10.2646 10.8742 10.8742C10.2646 11.4837 9.88931 12.0955 9.60935 12.8166C9.33832 13.5142 9.15262 14.3111 9.09964 15.4784C9.0461 16.6484 9.03382 17.0214 9.03382 19.9994C9.03382 22.9774 9.04666 23.3511 9.09964 24.5211C9.15262 25.6883 9.33832 26.4852 9.60935 27.1829C9.88931 27.904 10.2641 28.5157 10.8742 29.1253C11.4837 29.7348 12.0955 30.1101 12.8165 30.3901C13.5142 30.6611 14.3111 30.8463 15.4783 30.8998C16.6484 30.9534 17.0214 30.9656 20 30.9656C22.978 30.9656 23.3516 30.9534 24.5211 30.8998C25.6883 30.8463 26.4852 30.6611 27.1829 30.3901C27.904 30.1096 28.5157 29.7348 29.1253 29.1253C29.7348 28.5157 30.1101 27.904 30.3901 27.1829C30.6611 26.4852 30.8463 25.6883 30.8998 24.5211C30.9528 23.3511 30.9656 22.978 30.9656 19.9994C30.9656 17.0209 30.9528 16.6478 30.8998 15.4784C30.8463 14.3111 30.6611 13.5142 30.3901 12.8166C30.1096 12.0955 29.7348 11.4837 29.1253 10.8742C28.5157 10.2646 27.904 9.8893 27.1829 9.60935C26.4852 9.33832 25.6883 9.15317 24.5211 9.09963C23.3516 9.04665 22.9786 9.03383 20 9.03383ZM20 14.3686C16.8898 14.3686 14.3686 16.8898 14.3686 20C14.3686 23.1102 16.8898 25.6314 20 25.6314C23.1102 25.6314 25.6314 23.1102 25.6314 20C25.6314 16.8898 23.1102 14.3686 20 14.3686ZM16.3444 20C16.3444 22.0188 17.9812 23.6556 20 23.6556C22.0188 23.6556 23.6556 22.0188 23.655 20C23.655 17.9806 22.0188 16.3444 20 16.3444C17.9806 16.3444 16.3444 17.9812 16.3444 20ZM25.854 15.4622C26.5812 15.4622 27.1701 14.8727 27.1701 14.1461C27.1701 13.4194 26.5806 12.8299 25.854 12.8299C25.1273 12.8299 24.5378 13.4194 24.5378 14.1461C24.5378 14.8727 25.1273 15.4622 25.854 15.4622Z" fill="white"/>
</svg>
