<svg width="40" height="40" viewBox="0 0 40 40" fill="none" xmlns="http://www.w3.org/2000/svg">
<path d="M20 40C8.95408 40 0 31.0454 0 20C0 8.95407 8.95463 0 20 0C31.0459 0 40 8.95407 40 20C40.0006 31.0459 31.0459 40 20 40Z" fill="#2E3F57"/>
<path d="M9.34389 26.6949C11.279 27.9358 13.5772 28.6596 16.0461 28.6596C24.1642 28.6596 28.7505 21.803 28.4745 15.6529C29.3283 15.0372 30.07 14.2671 30.6561 13.3893C29.8715 13.7367 29.0288 13.9721 28.1449 14.0775C29.0472 13.5376 29.7404 12.6805 30.0666 11.6583C29.2218 12.1596 28.286 12.5238 27.2905 12.7201C26.4925 11.8702 25.3565 11.3393 24.0984 11.3393C21.2765 11.3393 19.2025 13.9726 19.8394 16.708C16.2056 16.5257 12.9833 14.7852 10.8273 12.139C9.68185 14.1048 10.2334 16.6762 12.1802 17.9773C11.4631 17.955 10.7883 17.7576 10.1988 17.4302C10.1514 19.4563 11.603 21.3507 13.706 21.7734C13.0904 21.9407 12.4161 21.9786 11.7324 21.8476C12.2879 23.5853 13.9029 24.8485 15.8163 24.8841C13.9793 26.3257 11.6638 26.9693 9.34389 26.6949Z" fill="white"/>
</svg>
